%TF.GenerationSoftware,KiCad,Pcbnew,(5.1.6)-1*%
%TF.CreationDate,2021-03-16T16:30:30+01:00*%
%TF.ProjectId,24v-logic,3234762d-6c6f-4676-9963-2e6b69636164,rev?*%
%TF.SameCoordinates,Original*%
%TF.FileFunction,Copper,L2,Bot*%
%TF.FilePolarity,Positive*%
%FSLAX46Y46*%
G04 Gerber Fmt 4.6, Leading zero omitted, Abs format (unit mm)*
G04 Created by KiCad (PCBNEW (5.1.6)-1) date 2021-03-16 16:30:30*
%MOMM*%
%LPD*%
G01*
G04 APERTURE LIST*
%TA.AperFunction,ComponentPad*%
%ADD10C,1.700000*%
%TD*%
%TA.AperFunction,ComponentPad*%
%ADD11O,1.800000X3.600000*%
%TD*%
%TA.AperFunction,ViaPad*%
%ADD12C,0.800000*%
%TD*%
%TA.AperFunction,Conductor*%
%ADD13C,0.250000*%
%TD*%
%TA.AperFunction,Conductor*%
%ADD14C,0.254000*%
%TD*%
G04 APERTURE END LIST*
D10*
%TO.P,J3,20*%
%TO.N,D7*%
X97028000Y-81534000D03*
%TO.P,J3,18*%
%TO.N,GND*%
X99568000Y-81534000D03*
%TO.P,J3,16*%
%TO.N,D6*%
X102108000Y-81534000D03*
%TO.P,J3,14*%
%TO.N,GND*%
X104648000Y-81534000D03*
%TO.P,J3,12*%
%TO.N,D5*%
X107188000Y-81534000D03*
%TO.P,J3,10*%
%TO.N,D15*%
X109728000Y-81534000D03*
%TO.P,J3,8*%
%TO.N,GND*%
X112268000Y-81534000D03*
%TO.P,J3,6*%
%TO.N,D14*%
X114808000Y-81534000D03*
%TO.P,J3,4*%
%TO.N,GND*%
X117348000Y-81534000D03*
%TO.P,J3,2*%
%TO.N,D13*%
X119888000Y-81534000D03*
%TO.P,J3,19*%
%TO.N,D4*%
X97028000Y-78994000D03*
%TO.P,J3,17*%
%TO.N,D3*%
X99568000Y-78994000D03*
%TO.P,J3,15*%
%TO.N,D2*%
X102108000Y-78994000D03*
%TO.P,J3,13*%
%TO.N,D1*%
X104648000Y-78994000D03*
%TO.P,J3,11*%
%TO.N,D0*%
X107188000Y-78994000D03*
%TO.P,J3,9*%
%TO.N,D12*%
X109728000Y-78994000D03*
%TO.P,J3,7*%
%TO.N,D11*%
X112268000Y-78994000D03*
%TO.P,J3,5*%
%TO.N,D10*%
X114808000Y-78994000D03*
%TO.P,J3,3*%
%TO.N,D9*%
X117348000Y-78994000D03*
%TO.P,J3,1*%
%TO.N,D8*%
%TA.AperFunction,ComponentPad*%
G36*
G01*
X119288000Y-78144000D02*
X120488000Y-78144000D01*
G75*
G02*
X120738000Y-78394000I0J-250000D01*
G01*
X120738000Y-79594000D01*
G75*
G02*
X120488000Y-79844000I-250000J0D01*
G01*
X119288000Y-79844000D01*
G75*
G02*
X119038000Y-79594000I0J250000D01*
G01*
X119038000Y-78394000D01*
G75*
G02*
X119288000Y-78144000I250000J0D01*
G01*
G37*
%TD.AperFunction*%
%TD*%
D11*
%TO.P,J2,9*%
%TO.N,I24-7*%
X124079000Y-129540000D03*
%TO.P,J2,8*%
%TO.N,I24-6*%
X120269000Y-129540000D03*
%TO.P,J2,7*%
%TO.N,I24-5*%
X116459000Y-129540000D03*
%TO.P,J2,6*%
%TO.N,I24-4*%
X112649000Y-129540000D03*
%TO.P,J2,5*%
%TO.N,I24-3*%
X108839000Y-129540000D03*
%TO.P,J2,4*%
%TO.N,I24-2*%
X105029000Y-129540000D03*
%TO.P,J2,3*%
%TO.N,I24-1*%
X101219000Y-129540000D03*
%TO.P,J2,2*%
%TO.N,I24-0*%
X97409000Y-129540000D03*
%TO.P,J2,1*%
%TO.N,GND*%
%TA.AperFunction,ComponentPad*%
G36*
G01*
X92699000Y-131090000D02*
X92699000Y-127990000D01*
G75*
G02*
X92949000Y-127740000I250000J0D01*
G01*
X94249000Y-127740000D01*
G75*
G02*
X94499000Y-127990000I0J-250000D01*
G01*
X94499000Y-131090000D01*
G75*
G02*
X94249000Y-131340000I-250000J0D01*
G01*
X92949000Y-131340000D01*
G75*
G02*
X92699000Y-131090000I0J250000D01*
G01*
G37*
%TD.AperFunction*%
%TD*%
D10*
%TO.P,J1,20*%
%TO.N,D15*%
X97028000Y-69215000D03*
%TO.P,J1,18*%
%TO.N,GND*%
X99568000Y-69215000D03*
%TO.P,J1,16*%
%TO.N,D14*%
X102108000Y-69215000D03*
%TO.P,J1,14*%
%TO.N,GND*%
X104648000Y-69215000D03*
%TO.P,J1,12*%
%TO.N,D13*%
X107188000Y-69215000D03*
%TO.P,J1,10*%
%TO.N,D7*%
X109728000Y-69215000D03*
%TO.P,J1,8*%
%TO.N,GND*%
X112268000Y-69215000D03*
%TO.P,J1,6*%
%TO.N,D6*%
X114808000Y-69215000D03*
%TO.P,J1,4*%
%TO.N,GND*%
X117348000Y-69215000D03*
%TO.P,J1,2*%
%TO.N,D5*%
X119888000Y-69215000D03*
%TO.P,J1,19*%
%TO.N,D12*%
X97028000Y-66675000D03*
%TO.P,J1,17*%
%TO.N,D11*%
X99568000Y-66675000D03*
%TO.P,J1,15*%
%TO.N,D10*%
X102108000Y-66675000D03*
%TO.P,J1,13*%
%TO.N,D9*%
X104648000Y-66675000D03*
%TO.P,J1,11*%
%TO.N,D8*%
X107188000Y-66675000D03*
%TO.P,J1,9*%
%TO.N,D4*%
X109728000Y-66675000D03*
%TO.P,J1,7*%
%TO.N,D3*%
X112268000Y-66675000D03*
%TO.P,J1,5*%
%TO.N,D2*%
X114808000Y-66675000D03*
%TO.P,J1,3*%
%TO.N,D1*%
X117348000Y-66675000D03*
%TO.P,J1,1*%
%TO.N,D0*%
%TA.AperFunction,ComponentPad*%
G36*
G01*
X119288000Y-65825000D02*
X120488000Y-65825000D01*
G75*
G02*
X120738000Y-66075000I0J-250000D01*
G01*
X120738000Y-67275000D01*
G75*
G02*
X120488000Y-67525000I-250000J0D01*
G01*
X119288000Y-67525000D01*
G75*
G02*
X119038000Y-67275000I0J250000D01*
G01*
X119038000Y-66075000D01*
G75*
G02*
X119288000Y-65825000I250000J0D01*
G01*
G37*
%TD.AperFunction*%
%TD*%
D12*
%TO.N,D0*%
X97028000Y-98933000D03*
X97028000Y-88392000D03*
X108458000Y-84709000D03*
%TO.N,D1*%
X100965000Y-98933000D03*
X100965000Y-88392000D03*
X105791000Y-87630000D03*
%TO.N,D2*%
X104902000Y-88392000D03*
X104902000Y-98933000D03*
X103251000Y-88392000D03*
%TO.N,D3*%
X108839000Y-98933000D03*
X108839000Y-88392000D03*
X100076000Y-87593010D03*
%TO.N,D4*%
X112776000Y-88392000D03*
X112776000Y-98933000D03*
X98044000Y-86868000D03*
%TO.N,D5*%
X116713000Y-98933000D03*
X116713000Y-88392000D03*
X107188000Y-85926018D03*
%TO.N,GND*%
X102235000Y-75946000D03*
X104394000Y-74422000D03*
X106553000Y-72263000D03*
X114300000Y-74930000D03*
X111633000Y-72136000D03*
X108966000Y-74295000D03*
X108204000Y-75819000D03*
X129921000Y-72517000D03*
X129667000Y-83820000D03*
X129667000Y-98044000D03*
X129794000Y-110363000D03*
X90170000Y-110236000D03*
X91186000Y-98171000D03*
X91059000Y-83820000D03*
X90678000Y-72644000D03*
X90551000Y-62738000D03*
X130048000Y-63119000D03*
X107315000Y-62357000D03*
X98679000Y-72644000D03*
X116586000Y-72136000D03*
%TO.N,D6*%
X120650000Y-88392000D03*
X120650000Y-98933000D03*
X102108000Y-85725000D03*
%TO.N,D7*%
X124587000Y-98933000D03*
X124587000Y-88392000D03*
%TO.N,I24-7*%
X124460000Y-104902000D03*
%TO.N,I24-6*%
X120396000Y-104902000D03*
%TO.N,I24-5*%
X116586000Y-104902000D03*
%TO.N,I24-4*%
X112649000Y-104902000D03*
%TO.N,I24-3*%
X108839000Y-104902000D03*
%TO.N,I24-2*%
X104902000Y-104902000D03*
%TO.N,I24-1*%
X101219000Y-104902000D03*
%TO.N,I24-0*%
X97409000Y-104902000D03*
%TD*%
D13*
%TO.N,D0*%
X97028000Y-98933000D02*
X97028000Y-88392000D01*
X108458000Y-80264000D02*
X107188000Y-78994000D01*
X108458000Y-84709000D02*
X108458000Y-80264000D01*
%TO.N,D1*%
X100965000Y-98933000D02*
X100965000Y-88392000D01*
X105823001Y-80169001D02*
X104648000Y-78994000D01*
X105823001Y-83533999D02*
X105823001Y-80169001D01*
X105791000Y-83566000D02*
X105823001Y-83533999D01*
X105791000Y-87630000D02*
X105791000Y-83566000D01*
%TO.N,D2*%
X104902000Y-88392000D02*
X104902000Y-98933000D01*
X102108000Y-78994000D02*
X103283001Y-80169001D01*
X103283001Y-80169001D02*
X103283001Y-85057999D01*
X103251000Y-85090000D02*
X103283001Y-85057999D01*
X103251000Y-88392000D02*
X103251000Y-85090000D01*
%TO.N,D3*%
X108839000Y-98933000D02*
X108839000Y-88392000D01*
X99568000Y-78994000D02*
X100743001Y-80169001D01*
X100743001Y-86926009D02*
X100076000Y-87593010D01*
X100743001Y-80169001D02*
X100743001Y-86926009D01*
%TO.N,D4*%
X112776000Y-88392000D02*
X112776000Y-98933000D01*
X98203001Y-80169001D02*
X97028000Y-78994000D01*
X98203001Y-86708999D02*
X98203001Y-80169001D01*
X98044000Y-86868000D02*
X98203001Y-86708999D01*
%TO.N,D8*%
X107188000Y-66675000D02*
X108363001Y-67850001D01*
X108363001Y-67850001D02*
X108363001Y-69589003D01*
X108363001Y-69589003D02*
X109512998Y-70739000D01*
X111633000Y-70739000D02*
X119888000Y-78994000D01*
X109512998Y-70739000D02*
X111633000Y-70739000D01*
%TO.N,D9*%
X107726591Y-70390001D02*
X106623999Y-70390001D01*
X106623999Y-70390001D02*
X106012999Y-69779001D01*
X106012999Y-69779001D02*
X106012999Y-68039999D01*
X106012999Y-68039999D02*
X104648000Y-66675000D01*
X116172999Y-77818999D02*
X115155588Y-77818999D01*
X115155588Y-77818999D02*
X107726591Y-70390001D01*
X117348000Y-78994000D02*
X116172999Y-77818999D01*
%TO.N,D10*%
X104534010Y-70840012D02*
X103472999Y-69779001D01*
X103472999Y-68039999D02*
X102108000Y-66675000D01*
X106654012Y-70840012D02*
X104534010Y-70840012D01*
X114808000Y-78994000D02*
X106654012Y-70840012D01*
X103472999Y-69779001D02*
X103472999Y-68039999D01*
%TO.N,D11*%
X108072975Y-76918977D02*
X100743001Y-69589003D01*
X110192977Y-76918977D02*
X108072975Y-76918977D01*
X100743001Y-67850001D02*
X99568000Y-66675000D01*
X100743001Y-69589003D02*
X100743001Y-67850001D01*
X112268000Y-78994000D02*
X110192977Y-76918977D01*
%TO.N,D12*%
X98203001Y-69589003D02*
X98203001Y-67850001D01*
X98203001Y-67850001D02*
X97028000Y-66675000D01*
X105982986Y-77368988D02*
X98203001Y-69589003D01*
X109728000Y-78994000D02*
X108102988Y-77368988D01*
X108102988Y-77368988D02*
X105982986Y-77368988D01*
%TO.N,D5*%
X116713000Y-98933000D02*
X116713000Y-88392000D01*
X107188000Y-81534000D02*
X107188000Y-85926018D01*
%TO.N,GND*%
X99568000Y-81534000D02*
X99568000Y-84709000D01*
X104648000Y-81534000D02*
X104648000Y-86995000D01*
X104648000Y-86995000D02*
X104013000Y-87630000D01*
X104013000Y-87630000D02*
X104013000Y-90678000D01*
X99568000Y-80733002D02*
X98298000Y-79463002D01*
X99568000Y-81534000D02*
X99568000Y-80733002D01*
X98298000Y-79463002D02*
X98298000Y-77343000D01*
X104648000Y-80733002D02*
X103378000Y-79463002D01*
X104648000Y-81534000D02*
X104648000Y-80733002D01*
X103378000Y-79463002D02*
X103378000Y-77597000D01*
X99568000Y-69215000D02*
X99568000Y-69723000D01*
X99568000Y-69723000D02*
X100330000Y-70485000D01*
%TO.N,D6*%
X120650000Y-88392000D02*
X120650000Y-98933000D01*
X102108000Y-81534000D02*
X102108000Y-85725000D01*
%TO.N,D7*%
X124587000Y-98933000D02*
X124587000Y-88392000D01*
%TO.N,D13*%
X108363001Y-70390001D02*
X107188000Y-69215000D01*
X118712990Y-80358990D02*
X118712990Y-78619988D01*
X119888000Y-81534000D02*
X118712990Y-80358990D01*
X117461990Y-77368988D02*
X115341988Y-77368988D01*
X115341988Y-77368988D02*
X108363001Y-70390001D01*
X118712990Y-78619988D02*
X117461990Y-77368988D01*
%TO.N,D14*%
X113632999Y-78619997D02*
X110070002Y-75057000D01*
X114808000Y-81534000D02*
X113632999Y-80358999D01*
X113632999Y-80358999D02*
X113632999Y-78619997D01*
X107950000Y-75057000D02*
X102108000Y-69215000D01*
X110070002Y-75057000D02*
X107950000Y-75057000D01*
%TO.N,D15*%
X108363001Y-79368003D02*
X108363001Y-78429999D01*
X109728000Y-80733002D02*
X108363001Y-79368003D01*
X109728000Y-81534000D02*
X109728000Y-80733002D01*
X105631999Y-77818999D02*
X98107500Y-70294500D01*
X108363001Y-78429999D02*
X107752001Y-77818999D01*
X98203001Y-70390001D02*
X98107500Y-70294500D01*
X98107500Y-70294500D02*
X97028000Y-69215000D01*
X107752001Y-77818999D02*
X105631999Y-77818999D01*
%TO.N,I24-7*%
X124079000Y-129540000D02*
X124079000Y-105283000D01*
X124079000Y-105283000D02*
X124460000Y-104902000D01*
%TO.N,I24-6*%
X120269000Y-129540000D02*
X120269000Y-105029000D01*
X120269000Y-105029000D02*
X120396000Y-104902000D01*
%TO.N,I24-5*%
X116459000Y-129540000D02*
X116459000Y-105029000D01*
X116459000Y-105029000D02*
X116586000Y-104902000D01*
%TO.N,I24-4*%
X112649000Y-129540000D02*
X112649000Y-104902000D01*
%TO.N,I24-3*%
X108839000Y-129540000D02*
X108839000Y-104902000D01*
%TO.N,I24-2*%
X105029000Y-129540000D02*
X105029000Y-105029000D01*
X105029000Y-105029000D02*
X104902000Y-104902000D01*
%TO.N,I24-1*%
X101219000Y-129540000D02*
X101219000Y-104902000D01*
%TO.N,I24-0*%
X97409000Y-129540000D02*
X97409000Y-104902000D01*
%TD*%
D14*
%TO.N,GND*%
G36*
X138151001Y-138024000D02*
G01*
X83083000Y-138024000D01*
X83083000Y-134399872D01*
X84252000Y-134399872D01*
X84252000Y-134840128D01*
X84337890Y-135271925D01*
X84506369Y-135678669D01*
X84750962Y-136044729D01*
X85062271Y-136356038D01*
X85428331Y-136600631D01*
X85835075Y-136769110D01*
X86266872Y-136855000D01*
X86707128Y-136855000D01*
X87138925Y-136769110D01*
X87545669Y-136600631D01*
X87911729Y-136356038D01*
X88223038Y-136044729D01*
X88467631Y-135678669D01*
X88636110Y-135271925D01*
X88722000Y-134840128D01*
X88722000Y-134399872D01*
X132512000Y-134399872D01*
X132512000Y-134840128D01*
X132597890Y-135271925D01*
X132766369Y-135678669D01*
X133010962Y-136044729D01*
X133322271Y-136356038D01*
X133688331Y-136600631D01*
X134095075Y-136769110D01*
X134526872Y-136855000D01*
X134967128Y-136855000D01*
X135398925Y-136769110D01*
X135805669Y-136600631D01*
X136171729Y-136356038D01*
X136483038Y-136044729D01*
X136727631Y-135678669D01*
X136896110Y-135271925D01*
X136982000Y-134840128D01*
X136982000Y-134399872D01*
X136896110Y-133968075D01*
X136727631Y-133561331D01*
X136483038Y-133195271D01*
X136171729Y-132883962D01*
X135805669Y-132639369D01*
X135398925Y-132470890D01*
X134967128Y-132385000D01*
X134526872Y-132385000D01*
X134095075Y-132470890D01*
X133688331Y-132639369D01*
X133322271Y-132883962D01*
X133010962Y-133195271D01*
X132766369Y-133561331D01*
X132597890Y-133968075D01*
X132512000Y-134399872D01*
X88722000Y-134399872D01*
X88636110Y-133968075D01*
X88467631Y-133561331D01*
X88223038Y-133195271D01*
X87911729Y-132883962D01*
X87545669Y-132639369D01*
X87138925Y-132470890D01*
X86707128Y-132385000D01*
X86266872Y-132385000D01*
X85835075Y-132470890D01*
X85428331Y-132639369D01*
X85062271Y-132883962D01*
X84750962Y-133195271D01*
X84506369Y-133561331D01*
X84337890Y-133968075D01*
X84252000Y-134399872D01*
X83083000Y-134399872D01*
X83083000Y-131340000D01*
X92060928Y-131340000D01*
X92073188Y-131464482D01*
X92109498Y-131584180D01*
X92168463Y-131694494D01*
X92247815Y-131791185D01*
X92344506Y-131870537D01*
X92454820Y-131929502D01*
X92574518Y-131965812D01*
X92699000Y-131978072D01*
X93313250Y-131975000D01*
X93472000Y-131816250D01*
X93472000Y-129667000D01*
X93726000Y-129667000D01*
X93726000Y-131816250D01*
X93884750Y-131975000D01*
X94499000Y-131978072D01*
X94623482Y-131965812D01*
X94743180Y-131929502D01*
X94853494Y-131870537D01*
X94950185Y-131791185D01*
X95029537Y-131694494D01*
X95088502Y-131584180D01*
X95124812Y-131464482D01*
X95137072Y-131340000D01*
X95134000Y-129825750D01*
X94975250Y-129667000D01*
X93726000Y-129667000D01*
X93472000Y-129667000D01*
X92222750Y-129667000D01*
X92064000Y-129825750D01*
X92060928Y-131340000D01*
X83083000Y-131340000D01*
X83083000Y-127740000D01*
X92060928Y-127740000D01*
X92064000Y-129254250D01*
X92222750Y-129413000D01*
X93472000Y-129413000D01*
X93472000Y-127263750D01*
X93726000Y-127263750D01*
X93726000Y-129413000D01*
X94975250Y-129413000D01*
X95134000Y-129254250D01*
X95135399Y-128564593D01*
X95874000Y-128564593D01*
X95874000Y-130515408D01*
X95896211Y-130740913D01*
X95983984Y-131030261D01*
X96126520Y-131296927D01*
X96318340Y-131530661D01*
X96552074Y-131722481D01*
X96818740Y-131865017D01*
X97108088Y-131952790D01*
X97409000Y-131982427D01*
X97709913Y-131952790D01*
X97999261Y-131865017D01*
X98265927Y-131722481D01*
X98499661Y-131530661D01*
X98691481Y-131296927D01*
X98834017Y-131030261D01*
X98921790Y-130740913D01*
X98944000Y-130515408D01*
X98944000Y-128564593D01*
X99684000Y-128564593D01*
X99684000Y-130515408D01*
X99706211Y-130740913D01*
X99793984Y-131030261D01*
X99936520Y-131296927D01*
X100128340Y-131530661D01*
X100362074Y-131722481D01*
X100628740Y-131865017D01*
X100918088Y-131952790D01*
X101219000Y-131982427D01*
X101519913Y-131952790D01*
X101809261Y-131865017D01*
X102075927Y-131722481D01*
X102309661Y-131530661D01*
X102501481Y-131296927D01*
X102644017Y-131030261D01*
X102731790Y-130740913D01*
X102754000Y-130515408D01*
X102754000Y-128564593D01*
X103494000Y-128564593D01*
X103494000Y-130515408D01*
X103516211Y-130740913D01*
X103603984Y-131030261D01*
X103746520Y-131296927D01*
X103938340Y-131530661D01*
X104172074Y-131722481D01*
X104438740Y-131865017D01*
X104728088Y-131952790D01*
X105029000Y-131982427D01*
X105329913Y-131952790D01*
X105619261Y-131865017D01*
X105885927Y-131722481D01*
X106119661Y-131530661D01*
X106311481Y-131296927D01*
X106454017Y-131030261D01*
X106541790Y-130740913D01*
X106564000Y-130515408D01*
X106564000Y-128564593D01*
X107304000Y-128564593D01*
X107304000Y-130515408D01*
X107326211Y-130740913D01*
X107413984Y-131030261D01*
X107556520Y-131296927D01*
X107748340Y-131530661D01*
X107982074Y-131722481D01*
X108248740Y-131865017D01*
X108538088Y-131952790D01*
X108839000Y-131982427D01*
X109139913Y-131952790D01*
X109429261Y-131865017D01*
X109695927Y-131722481D01*
X109929661Y-131530661D01*
X110121481Y-131296927D01*
X110264017Y-131030261D01*
X110351790Y-130740913D01*
X110374000Y-130515408D01*
X110374000Y-128564593D01*
X111114000Y-128564593D01*
X111114000Y-130515408D01*
X111136211Y-130740913D01*
X111223984Y-131030261D01*
X111366520Y-131296927D01*
X111558340Y-131530661D01*
X111792074Y-131722481D01*
X112058740Y-131865017D01*
X112348088Y-131952790D01*
X112649000Y-131982427D01*
X112949913Y-131952790D01*
X113239261Y-131865017D01*
X113505927Y-131722481D01*
X113739661Y-131530661D01*
X113931481Y-131296927D01*
X114074017Y-131030261D01*
X114161790Y-130740913D01*
X114184000Y-130515408D01*
X114184000Y-128564593D01*
X114924000Y-128564593D01*
X114924000Y-130515408D01*
X114946211Y-130740913D01*
X115033984Y-131030261D01*
X115176520Y-131296927D01*
X115368340Y-131530661D01*
X115602074Y-131722481D01*
X115868740Y-131865017D01*
X116158088Y-131952790D01*
X116459000Y-131982427D01*
X116759913Y-131952790D01*
X117049261Y-131865017D01*
X117315927Y-131722481D01*
X117549661Y-131530661D01*
X117741481Y-131296927D01*
X117884017Y-131030261D01*
X117971790Y-130740913D01*
X117994000Y-130515408D01*
X117994000Y-128564593D01*
X118734000Y-128564593D01*
X118734000Y-130515408D01*
X118756211Y-130740913D01*
X118843984Y-131030261D01*
X118986520Y-131296927D01*
X119178340Y-131530661D01*
X119412074Y-131722481D01*
X119678740Y-131865017D01*
X119968088Y-131952790D01*
X120269000Y-131982427D01*
X120569913Y-131952790D01*
X120859261Y-131865017D01*
X121125927Y-131722481D01*
X121359661Y-131530661D01*
X121551481Y-131296927D01*
X121694017Y-131030261D01*
X121781790Y-130740913D01*
X121804000Y-130515408D01*
X121804000Y-128564593D01*
X122544000Y-128564593D01*
X122544000Y-130515408D01*
X122566211Y-130740913D01*
X122653984Y-131030261D01*
X122796520Y-131296927D01*
X122988340Y-131530661D01*
X123222074Y-131722481D01*
X123488740Y-131865017D01*
X123778088Y-131952790D01*
X124079000Y-131982427D01*
X124379913Y-131952790D01*
X124669261Y-131865017D01*
X124935927Y-131722481D01*
X125169661Y-131530661D01*
X125361481Y-131296927D01*
X125504017Y-131030261D01*
X125591790Y-130740913D01*
X125614000Y-130515408D01*
X125614000Y-128564592D01*
X125591790Y-128339087D01*
X125504017Y-128049739D01*
X125361481Y-127783073D01*
X125169661Y-127549339D01*
X124935926Y-127357519D01*
X124839000Y-127305711D01*
X124839000Y-105865289D01*
X124950256Y-105819205D01*
X125119774Y-105705937D01*
X125263937Y-105561774D01*
X125377205Y-105392256D01*
X125455226Y-105203898D01*
X125495000Y-105003939D01*
X125495000Y-104800061D01*
X125455226Y-104600102D01*
X125377205Y-104411744D01*
X125263937Y-104242226D01*
X125119774Y-104098063D01*
X124950256Y-103984795D01*
X124761898Y-103906774D01*
X124561939Y-103867000D01*
X124358061Y-103867000D01*
X124158102Y-103906774D01*
X123969744Y-103984795D01*
X123800226Y-104098063D01*
X123656063Y-104242226D01*
X123542795Y-104411744D01*
X123464774Y-104600102D01*
X123425000Y-104800061D01*
X123425000Y-104894319D01*
X123373454Y-104990754D01*
X123343180Y-105090558D01*
X123329998Y-105134014D01*
X123323115Y-105203898D01*
X123315324Y-105283000D01*
X123319001Y-105320333D01*
X123319000Y-127305710D01*
X123222073Y-127357519D01*
X122988339Y-127549339D01*
X122796519Y-127783074D01*
X122653983Y-128049740D01*
X122566210Y-128339088D01*
X122544000Y-128564593D01*
X121804000Y-128564593D01*
X121804000Y-128564592D01*
X121781790Y-128339087D01*
X121694017Y-128049739D01*
X121551481Y-127783073D01*
X121359661Y-127549339D01*
X121125926Y-127357519D01*
X121029000Y-127305711D01*
X121029000Y-105723827D01*
X121055774Y-105705937D01*
X121199937Y-105561774D01*
X121313205Y-105392256D01*
X121391226Y-105203898D01*
X121431000Y-105003939D01*
X121431000Y-104800061D01*
X121391226Y-104600102D01*
X121313205Y-104411744D01*
X121199937Y-104242226D01*
X121055774Y-104098063D01*
X120886256Y-103984795D01*
X120697898Y-103906774D01*
X120497939Y-103867000D01*
X120294061Y-103867000D01*
X120094102Y-103906774D01*
X119905744Y-103984795D01*
X119736226Y-104098063D01*
X119592063Y-104242226D01*
X119478795Y-104411744D01*
X119400774Y-104600102D01*
X119361000Y-104800061D01*
X119361000Y-105003939D01*
X119400774Y-105203898D01*
X119478795Y-105392256D01*
X119509001Y-105437463D01*
X119509000Y-127305710D01*
X119412073Y-127357519D01*
X119178339Y-127549339D01*
X118986519Y-127783074D01*
X118843983Y-128049740D01*
X118756210Y-128339088D01*
X118734000Y-128564593D01*
X117994000Y-128564593D01*
X117994000Y-128564592D01*
X117971790Y-128339087D01*
X117884017Y-128049739D01*
X117741481Y-127783073D01*
X117549661Y-127549339D01*
X117315926Y-127357519D01*
X117219000Y-127305711D01*
X117219000Y-105723827D01*
X117245774Y-105705937D01*
X117389937Y-105561774D01*
X117503205Y-105392256D01*
X117581226Y-105203898D01*
X117621000Y-105003939D01*
X117621000Y-104800061D01*
X117581226Y-104600102D01*
X117503205Y-104411744D01*
X117389937Y-104242226D01*
X117245774Y-104098063D01*
X117076256Y-103984795D01*
X116887898Y-103906774D01*
X116687939Y-103867000D01*
X116484061Y-103867000D01*
X116284102Y-103906774D01*
X116095744Y-103984795D01*
X115926226Y-104098063D01*
X115782063Y-104242226D01*
X115668795Y-104411744D01*
X115590774Y-104600102D01*
X115551000Y-104800061D01*
X115551000Y-105003939D01*
X115590774Y-105203898D01*
X115668795Y-105392256D01*
X115699001Y-105437463D01*
X115699000Y-127305710D01*
X115602073Y-127357519D01*
X115368339Y-127549339D01*
X115176519Y-127783074D01*
X115033983Y-128049740D01*
X114946210Y-128339088D01*
X114924000Y-128564593D01*
X114184000Y-128564593D01*
X114184000Y-128564592D01*
X114161790Y-128339087D01*
X114074017Y-128049739D01*
X113931481Y-127783073D01*
X113739661Y-127549339D01*
X113505926Y-127357519D01*
X113409000Y-127305711D01*
X113409000Y-105605711D01*
X113452937Y-105561774D01*
X113566205Y-105392256D01*
X113644226Y-105203898D01*
X113684000Y-105003939D01*
X113684000Y-104800061D01*
X113644226Y-104600102D01*
X113566205Y-104411744D01*
X113452937Y-104242226D01*
X113308774Y-104098063D01*
X113139256Y-103984795D01*
X112950898Y-103906774D01*
X112750939Y-103867000D01*
X112547061Y-103867000D01*
X112347102Y-103906774D01*
X112158744Y-103984795D01*
X111989226Y-104098063D01*
X111845063Y-104242226D01*
X111731795Y-104411744D01*
X111653774Y-104600102D01*
X111614000Y-104800061D01*
X111614000Y-105003939D01*
X111653774Y-105203898D01*
X111731795Y-105392256D01*
X111845063Y-105561774D01*
X111889001Y-105605712D01*
X111889000Y-127305710D01*
X111792073Y-127357519D01*
X111558339Y-127549339D01*
X111366519Y-127783074D01*
X111223983Y-128049740D01*
X111136210Y-128339088D01*
X111114000Y-128564593D01*
X110374000Y-128564593D01*
X110374000Y-128564592D01*
X110351790Y-128339087D01*
X110264017Y-128049739D01*
X110121481Y-127783073D01*
X109929661Y-127549339D01*
X109695926Y-127357519D01*
X109599000Y-127305711D01*
X109599000Y-105605711D01*
X109642937Y-105561774D01*
X109756205Y-105392256D01*
X109834226Y-105203898D01*
X109874000Y-105003939D01*
X109874000Y-104800061D01*
X109834226Y-104600102D01*
X109756205Y-104411744D01*
X109642937Y-104242226D01*
X109498774Y-104098063D01*
X109329256Y-103984795D01*
X109140898Y-103906774D01*
X108940939Y-103867000D01*
X108737061Y-103867000D01*
X108537102Y-103906774D01*
X108348744Y-103984795D01*
X108179226Y-104098063D01*
X108035063Y-104242226D01*
X107921795Y-104411744D01*
X107843774Y-104600102D01*
X107804000Y-104800061D01*
X107804000Y-105003939D01*
X107843774Y-105203898D01*
X107921795Y-105392256D01*
X108035063Y-105561774D01*
X108079001Y-105605712D01*
X108079000Y-127305710D01*
X107982073Y-127357519D01*
X107748339Y-127549339D01*
X107556519Y-127783074D01*
X107413983Y-128049740D01*
X107326210Y-128339088D01*
X107304000Y-128564593D01*
X106564000Y-128564593D01*
X106564000Y-128564592D01*
X106541790Y-128339087D01*
X106454017Y-128049739D01*
X106311481Y-127783073D01*
X106119661Y-127549339D01*
X105885926Y-127357519D01*
X105789000Y-127305711D01*
X105789000Y-105437461D01*
X105819205Y-105392256D01*
X105897226Y-105203898D01*
X105937000Y-105003939D01*
X105937000Y-104800061D01*
X105897226Y-104600102D01*
X105819205Y-104411744D01*
X105705937Y-104242226D01*
X105561774Y-104098063D01*
X105392256Y-103984795D01*
X105203898Y-103906774D01*
X105003939Y-103867000D01*
X104800061Y-103867000D01*
X104600102Y-103906774D01*
X104411744Y-103984795D01*
X104242226Y-104098063D01*
X104098063Y-104242226D01*
X103984795Y-104411744D01*
X103906774Y-104600102D01*
X103867000Y-104800061D01*
X103867000Y-105003939D01*
X103906774Y-105203898D01*
X103984795Y-105392256D01*
X104098063Y-105561774D01*
X104242226Y-105705937D01*
X104269001Y-105723827D01*
X104269000Y-127305710D01*
X104172073Y-127357519D01*
X103938339Y-127549339D01*
X103746519Y-127783074D01*
X103603983Y-128049740D01*
X103516210Y-128339088D01*
X103494000Y-128564593D01*
X102754000Y-128564593D01*
X102754000Y-128564592D01*
X102731790Y-128339087D01*
X102644017Y-128049739D01*
X102501481Y-127783073D01*
X102309661Y-127549339D01*
X102075926Y-127357519D01*
X101979000Y-127305711D01*
X101979000Y-105605711D01*
X102022937Y-105561774D01*
X102136205Y-105392256D01*
X102214226Y-105203898D01*
X102254000Y-105003939D01*
X102254000Y-104800061D01*
X102214226Y-104600102D01*
X102136205Y-104411744D01*
X102022937Y-104242226D01*
X101878774Y-104098063D01*
X101709256Y-103984795D01*
X101520898Y-103906774D01*
X101320939Y-103867000D01*
X101117061Y-103867000D01*
X100917102Y-103906774D01*
X100728744Y-103984795D01*
X100559226Y-104098063D01*
X100415063Y-104242226D01*
X100301795Y-104411744D01*
X100223774Y-104600102D01*
X100184000Y-104800061D01*
X100184000Y-105003939D01*
X100223774Y-105203898D01*
X100301795Y-105392256D01*
X100415063Y-105561774D01*
X100459001Y-105605712D01*
X100459000Y-127305710D01*
X100362073Y-127357519D01*
X100128339Y-127549339D01*
X99936519Y-127783074D01*
X99793983Y-128049740D01*
X99706210Y-128339088D01*
X99684000Y-128564593D01*
X98944000Y-128564593D01*
X98944000Y-128564592D01*
X98921790Y-128339087D01*
X98834017Y-128049739D01*
X98691481Y-127783073D01*
X98499661Y-127549339D01*
X98265926Y-127357519D01*
X98169000Y-127305711D01*
X98169000Y-105605711D01*
X98212937Y-105561774D01*
X98326205Y-105392256D01*
X98404226Y-105203898D01*
X98444000Y-105003939D01*
X98444000Y-104800061D01*
X98404226Y-104600102D01*
X98326205Y-104411744D01*
X98212937Y-104242226D01*
X98068774Y-104098063D01*
X97899256Y-103984795D01*
X97710898Y-103906774D01*
X97510939Y-103867000D01*
X97307061Y-103867000D01*
X97107102Y-103906774D01*
X96918744Y-103984795D01*
X96749226Y-104098063D01*
X96605063Y-104242226D01*
X96491795Y-104411744D01*
X96413774Y-104600102D01*
X96374000Y-104800061D01*
X96374000Y-105003939D01*
X96413774Y-105203898D01*
X96491795Y-105392256D01*
X96605063Y-105561774D01*
X96649001Y-105605712D01*
X96649000Y-127305710D01*
X96552073Y-127357519D01*
X96318339Y-127549339D01*
X96126519Y-127783074D01*
X95983983Y-128049740D01*
X95896210Y-128339088D01*
X95874000Y-128564593D01*
X95135399Y-128564593D01*
X95137072Y-127740000D01*
X95124812Y-127615518D01*
X95088502Y-127495820D01*
X95029537Y-127385506D01*
X94950185Y-127288815D01*
X94853494Y-127209463D01*
X94743180Y-127150498D01*
X94623482Y-127114188D01*
X94499000Y-127101928D01*
X93884750Y-127105000D01*
X93726000Y-127263750D01*
X93472000Y-127263750D01*
X93313250Y-127105000D01*
X92699000Y-127101928D01*
X92574518Y-127114188D01*
X92454820Y-127150498D01*
X92344506Y-127209463D01*
X92247815Y-127288815D01*
X92168463Y-127385506D01*
X92109498Y-127495820D01*
X92073188Y-127615518D01*
X92060928Y-127740000D01*
X83083000Y-127740000D01*
X83083000Y-66528740D01*
X95543000Y-66528740D01*
X95543000Y-66821260D01*
X95600068Y-67108158D01*
X95712010Y-67378411D01*
X95874525Y-67621632D01*
X96081368Y-67828475D01*
X96255760Y-67945000D01*
X96081368Y-68061525D01*
X95874525Y-68268368D01*
X95712010Y-68511589D01*
X95600068Y-68781842D01*
X95543000Y-69068740D01*
X95543000Y-69361260D01*
X95600068Y-69648158D01*
X95712010Y-69918411D01*
X95874525Y-70161632D01*
X96081368Y-70368475D01*
X96324589Y-70530990D01*
X96594842Y-70642932D01*
X96881740Y-70700000D01*
X97174260Y-70700000D01*
X97394408Y-70656210D01*
X97596497Y-70858299D01*
X97596503Y-70858304D01*
X104289430Y-77551231D01*
X104214842Y-77566068D01*
X103944589Y-77678010D01*
X103701368Y-77840525D01*
X103494525Y-78047368D01*
X103378000Y-78221760D01*
X103261475Y-78047368D01*
X103054632Y-77840525D01*
X102811411Y-77678010D01*
X102541158Y-77566068D01*
X102254260Y-77509000D01*
X101961740Y-77509000D01*
X101674842Y-77566068D01*
X101404589Y-77678010D01*
X101161368Y-77840525D01*
X100954525Y-78047368D01*
X100838000Y-78221760D01*
X100721475Y-78047368D01*
X100514632Y-77840525D01*
X100271411Y-77678010D01*
X100001158Y-77566068D01*
X99714260Y-77509000D01*
X99421740Y-77509000D01*
X99134842Y-77566068D01*
X98864589Y-77678010D01*
X98621368Y-77840525D01*
X98414525Y-78047368D01*
X98298000Y-78221760D01*
X98181475Y-78047368D01*
X97974632Y-77840525D01*
X97731411Y-77678010D01*
X97461158Y-77566068D01*
X97174260Y-77509000D01*
X96881740Y-77509000D01*
X96594842Y-77566068D01*
X96324589Y-77678010D01*
X96081368Y-77840525D01*
X95874525Y-78047368D01*
X95712010Y-78290589D01*
X95600068Y-78560842D01*
X95543000Y-78847740D01*
X95543000Y-79140260D01*
X95600068Y-79427158D01*
X95712010Y-79697411D01*
X95874525Y-79940632D01*
X96081368Y-80147475D01*
X96255760Y-80264000D01*
X96081368Y-80380525D01*
X95874525Y-80587368D01*
X95712010Y-80830589D01*
X95600068Y-81100842D01*
X95543000Y-81387740D01*
X95543000Y-81680260D01*
X95600068Y-81967158D01*
X95712010Y-82237411D01*
X95874525Y-82480632D01*
X96081368Y-82687475D01*
X96324589Y-82849990D01*
X96594842Y-82961932D01*
X96881740Y-83019000D01*
X97174260Y-83019000D01*
X97443002Y-82965544D01*
X97443001Y-86024791D01*
X97384226Y-86064063D01*
X97240063Y-86208226D01*
X97126795Y-86377744D01*
X97048774Y-86566102D01*
X97009000Y-86766061D01*
X97009000Y-86969939D01*
X97048774Y-87169898D01*
X97126275Y-87357000D01*
X96926061Y-87357000D01*
X96726102Y-87396774D01*
X96537744Y-87474795D01*
X96368226Y-87588063D01*
X96224063Y-87732226D01*
X96110795Y-87901744D01*
X96032774Y-88090102D01*
X95993000Y-88290061D01*
X95993000Y-88493939D01*
X96032774Y-88693898D01*
X96110795Y-88882256D01*
X96224063Y-89051774D01*
X96268001Y-89095712D01*
X96268000Y-98229289D01*
X96224063Y-98273226D01*
X96110795Y-98442744D01*
X96032774Y-98631102D01*
X95993000Y-98831061D01*
X95993000Y-99034939D01*
X96032774Y-99234898D01*
X96110795Y-99423256D01*
X96224063Y-99592774D01*
X96368226Y-99736937D01*
X96537744Y-99850205D01*
X96726102Y-99928226D01*
X96926061Y-99968000D01*
X97129939Y-99968000D01*
X97329898Y-99928226D01*
X97518256Y-99850205D01*
X97687774Y-99736937D01*
X97831937Y-99592774D01*
X97945205Y-99423256D01*
X98023226Y-99234898D01*
X98063000Y-99034939D01*
X98063000Y-98831061D01*
X98023226Y-98631102D01*
X97945205Y-98442744D01*
X97831937Y-98273226D01*
X97788000Y-98229289D01*
X97788000Y-89095711D01*
X97831937Y-89051774D01*
X97945205Y-88882256D01*
X98023226Y-88693898D01*
X98063000Y-88493939D01*
X98063000Y-88290061D01*
X98023226Y-88090102D01*
X97945725Y-87903000D01*
X98145939Y-87903000D01*
X98345898Y-87863226D01*
X98534256Y-87785205D01*
X98703774Y-87671937D01*
X98847937Y-87527774D01*
X98961205Y-87358256D01*
X99039226Y-87169898D01*
X99079000Y-86969939D01*
X99079000Y-86766061D01*
X99039226Y-86566102D01*
X98963001Y-86382080D01*
X98963001Y-82890699D01*
X99060883Y-82937371D01*
X99344411Y-83009339D01*
X99636531Y-83024611D01*
X99926019Y-82982599D01*
X99983001Y-82962412D01*
X99983002Y-86558010D01*
X99974061Y-86558010D01*
X99774102Y-86597784D01*
X99585744Y-86675805D01*
X99416226Y-86789073D01*
X99272063Y-86933236D01*
X99158795Y-87102754D01*
X99080774Y-87291112D01*
X99041000Y-87491071D01*
X99041000Y-87694949D01*
X99080774Y-87894908D01*
X99158795Y-88083266D01*
X99272063Y-88252784D01*
X99416226Y-88396947D01*
X99585744Y-88510215D01*
X99774102Y-88588236D01*
X99955952Y-88624408D01*
X99969774Y-88693898D01*
X100047795Y-88882256D01*
X100161063Y-89051774D01*
X100205001Y-89095712D01*
X100205000Y-98229289D01*
X100161063Y-98273226D01*
X100047795Y-98442744D01*
X99969774Y-98631102D01*
X99930000Y-98831061D01*
X99930000Y-99034939D01*
X99969774Y-99234898D01*
X100047795Y-99423256D01*
X100161063Y-99592774D01*
X100305226Y-99736937D01*
X100474744Y-99850205D01*
X100663102Y-99928226D01*
X100863061Y-99968000D01*
X101066939Y-99968000D01*
X101266898Y-99928226D01*
X101455256Y-99850205D01*
X101624774Y-99736937D01*
X101768937Y-99592774D01*
X101882205Y-99423256D01*
X101960226Y-99234898D01*
X102000000Y-99034939D01*
X102000000Y-98831061D01*
X101960226Y-98631102D01*
X101882205Y-98442744D01*
X101768937Y-98273226D01*
X101725000Y-98229289D01*
X101725000Y-89095711D01*
X101768937Y-89051774D01*
X101882205Y-88882256D01*
X101960226Y-88693898D01*
X102000000Y-88493939D01*
X102000000Y-88290061D01*
X101960226Y-88090102D01*
X101882205Y-87901744D01*
X101768937Y-87732226D01*
X101624774Y-87588063D01*
X101455256Y-87474795D01*
X101321322Y-87419317D01*
X101377975Y-87350285D01*
X101448547Y-87218256D01*
X101492004Y-87074995D01*
X101503001Y-86963342D01*
X101503001Y-86963332D01*
X101506677Y-86926009D01*
X101503001Y-86888686D01*
X101503001Y-86565536D01*
X101617744Y-86642205D01*
X101806102Y-86720226D01*
X102006061Y-86760000D01*
X102209939Y-86760000D01*
X102409898Y-86720226D01*
X102491001Y-86686632D01*
X102491000Y-87688289D01*
X102447063Y-87732226D01*
X102333795Y-87901744D01*
X102255774Y-88090102D01*
X102216000Y-88290061D01*
X102216000Y-88493939D01*
X102255774Y-88693898D01*
X102333795Y-88882256D01*
X102447063Y-89051774D01*
X102591226Y-89195937D01*
X102760744Y-89309205D01*
X102949102Y-89387226D01*
X103149061Y-89427000D01*
X103352939Y-89427000D01*
X103552898Y-89387226D01*
X103741256Y-89309205D01*
X103910774Y-89195937D01*
X104054937Y-89051774D01*
X104076500Y-89019503D01*
X104098063Y-89051774D01*
X104142000Y-89095711D01*
X104142001Y-98229288D01*
X104098063Y-98273226D01*
X103984795Y-98442744D01*
X103906774Y-98631102D01*
X103867000Y-98831061D01*
X103867000Y-99034939D01*
X103906774Y-99234898D01*
X103984795Y-99423256D01*
X104098063Y-99592774D01*
X104242226Y-99736937D01*
X104411744Y-99850205D01*
X104600102Y-99928226D01*
X104800061Y-99968000D01*
X105003939Y-99968000D01*
X105203898Y-99928226D01*
X105392256Y-99850205D01*
X105561774Y-99736937D01*
X105705937Y-99592774D01*
X105819205Y-99423256D01*
X105897226Y-99234898D01*
X105937000Y-99034939D01*
X105937000Y-98831061D01*
X105897226Y-98631102D01*
X105819205Y-98442744D01*
X105705937Y-98273226D01*
X105662000Y-98229289D01*
X105662000Y-89095711D01*
X105705937Y-89051774D01*
X105819205Y-88882256D01*
X105897226Y-88693898D01*
X105903388Y-88662922D01*
X106092898Y-88625226D01*
X106281256Y-88547205D01*
X106450774Y-88433937D01*
X106594650Y-88290061D01*
X107804000Y-88290061D01*
X107804000Y-88493939D01*
X107843774Y-88693898D01*
X107921795Y-88882256D01*
X108035063Y-89051774D01*
X108079001Y-89095712D01*
X108079000Y-98229289D01*
X108035063Y-98273226D01*
X107921795Y-98442744D01*
X107843774Y-98631102D01*
X107804000Y-98831061D01*
X107804000Y-99034939D01*
X107843774Y-99234898D01*
X107921795Y-99423256D01*
X108035063Y-99592774D01*
X108179226Y-99736937D01*
X108348744Y-99850205D01*
X108537102Y-99928226D01*
X108737061Y-99968000D01*
X108940939Y-99968000D01*
X109140898Y-99928226D01*
X109329256Y-99850205D01*
X109498774Y-99736937D01*
X109642937Y-99592774D01*
X109756205Y-99423256D01*
X109834226Y-99234898D01*
X109874000Y-99034939D01*
X109874000Y-98831061D01*
X109834226Y-98631102D01*
X109756205Y-98442744D01*
X109642937Y-98273226D01*
X109599000Y-98229289D01*
X109599000Y-89095711D01*
X109642937Y-89051774D01*
X109756205Y-88882256D01*
X109834226Y-88693898D01*
X109874000Y-88493939D01*
X109874000Y-88290061D01*
X111741000Y-88290061D01*
X111741000Y-88493939D01*
X111780774Y-88693898D01*
X111858795Y-88882256D01*
X111972063Y-89051774D01*
X112016000Y-89095711D01*
X112016001Y-98229288D01*
X111972063Y-98273226D01*
X111858795Y-98442744D01*
X111780774Y-98631102D01*
X111741000Y-98831061D01*
X111741000Y-99034939D01*
X111780774Y-99234898D01*
X111858795Y-99423256D01*
X111972063Y-99592774D01*
X112116226Y-99736937D01*
X112285744Y-99850205D01*
X112474102Y-99928226D01*
X112674061Y-99968000D01*
X112877939Y-99968000D01*
X113077898Y-99928226D01*
X113266256Y-99850205D01*
X113435774Y-99736937D01*
X113579937Y-99592774D01*
X113693205Y-99423256D01*
X113771226Y-99234898D01*
X113811000Y-99034939D01*
X113811000Y-98831061D01*
X113771226Y-98631102D01*
X113693205Y-98442744D01*
X113579937Y-98273226D01*
X113536000Y-98229289D01*
X113536000Y-89095711D01*
X113579937Y-89051774D01*
X113693205Y-88882256D01*
X113771226Y-88693898D01*
X113811000Y-88493939D01*
X113811000Y-88290061D01*
X115678000Y-88290061D01*
X115678000Y-88493939D01*
X115717774Y-88693898D01*
X115795795Y-88882256D01*
X115909063Y-89051774D01*
X115953001Y-89095712D01*
X115953000Y-98229289D01*
X115909063Y-98273226D01*
X115795795Y-98442744D01*
X115717774Y-98631102D01*
X115678000Y-98831061D01*
X115678000Y-99034939D01*
X115717774Y-99234898D01*
X115795795Y-99423256D01*
X115909063Y-99592774D01*
X116053226Y-99736937D01*
X116222744Y-99850205D01*
X116411102Y-99928226D01*
X116611061Y-99968000D01*
X116814939Y-99968000D01*
X117014898Y-99928226D01*
X117203256Y-99850205D01*
X117372774Y-99736937D01*
X117516937Y-99592774D01*
X117630205Y-99423256D01*
X117708226Y-99234898D01*
X117748000Y-99034939D01*
X117748000Y-98831061D01*
X117708226Y-98631102D01*
X117630205Y-98442744D01*
X117516937Y-98273226D01*
X117473000Y-98229289D01*
X117473000Y-89095711D01*
X117516937Y-89051774D01*
X117630205Y-88882256D01*
X117708226Y-88693898D01*
X117748000Y-88493939D01*
X117748000Y-88290061D01*
X119615000Y-88290061D01*
X119615000Y-88493939D01*
X119654774Y-88693898D01*
X119732795Y-88882256D01*
X119846063Y-89051774D01*
X119890000Y-89095711D01*
X119890001Y-98229288D01*
X119846063Y-98273226D01*
X119732795Y-98442744D01*
X119654774Y-98631102D01*
X119615000Y-98831061D01*
X119615000Y-99034939D01*
X119654774Y-99234898D01*
X119732795Y-99423256D01*
X119846063Y-99592774D01*
X119990226Y-99736937D01*
X120159744Y-99850205D01*
X120348102Y-99928226D01*
X120548061Y-99968000D01*
X120751939Y-99968000D01*
X120951898Y-99928226D01*
X121140256Y-99850205D01*
X121309774Y-99736937D01*
X121453937Y-99592774D01*
X121567205Y-99423256D01*
X121645226Y-99234898D01*
X121685000Y-99034939D01*
X121685000Y-98831061D01*
X121645226Y-98631102D01*
X121567205Y-98442744D01*
X121453937Y-98273226D01*
X121410000Y-98229289D01*
X121410000Y-89095711D01*
X121453937Y-89051774D01*
X121567205Y-88882256D01*
X121645226Y-88693898D01*
X121685000Y-88493939D01*
X121685000Y-88290061D01*
X123552000Y-88290061D01*
X123552000Y-88493939D01*
X123591774Y-88693898D01*
X123669795Y-88882256D01*
X123783063Y-89051774D01*
X123827001Y-89095712D01*
X123827000Y-98229289D01*
X123783063Y-98273226D01*
X123669795Y-98442744D01*
X123591774Y-98631102D01*
X123552000Y-98831061D01*
X123552000Y-99034939D01*
X123591774Y-99234898D01*
X123669795Y-99423256D01*
X123783063Y-99592774D01*
X123927226Y-99736937D01*
X124096744Y-99850205D01*
X124285102Y-99928226D01*
X124485061Y-99968000D01*
X124688939Y-99968000D01*
X124888898Y-99928226D01*
X125077256Y-99850205D01*
X125246774Y-99736937D01*
X125390937Y-99592774D01*
X125504205Y-99423256D01*
X125582226Y-99234898D01*
X125622000Y-99034939D01*
X125622000Y-98831061D01*
X125582226Y-98631102D01*
X125504205Y-98442744D01*
X125390937Y-98273226D01*
X125347000Y-98229289D01*
X125347000Y-89095711D01*
X125390937Y-89051774D01*
X125504205Y-88882256D01*
X125582226Y-88693898D01*
X125622000Y-88493939D01*
X125622000Y-88290061D01*
X125582226Y-88090102D01*
X125504205Y-87901744D01*
X125390937Y-87732226D01*
X125246774Y-87588063D01*
X125077256Y-87474795D01*
X124888898Y-87396774D01*
X124688939Y-87357000D01*
X124485061Y-87357000D01*
X124285102Y-87396774D01*
X124096744Y-87474795D01*
X123927226Y-87588063D01*
X123783063Y-87732226D01*
X123669795Y-87901744D01*
X123591774Y-88090102D01*
X123552000Y-88290061D01*
X121685000Y-88290061D01*
X121645226Y-88090102D01*
X121567205Y-87901744D01*
X121453937Y-87732226D01*
X121309774Y-87588063D01*
X121140256Y-87474795D01*
X120951898Y-87396774D01*
X120751939Y-87357000D01*
X120548061Y-87357000D01*
X120348102Y-87396774D01*
X120159744Y-87474795D01*
X119990226Y-87588063D01*
X119846063Y-87732226D01*
X119732795Y-87901744D01*
X119654774Y-88090102D01*
X119615000Y-88290061D01*
X117748000Y-88290061D01*
X117708226Y-88090102D01*
X117630205Y-87901744D01*
X117516937Y-87732226D01*
X117372774Y-87588063D01*
X117203256Y-87474795D01*
X117014898Y-87396774D01*
X116814939Y-87357000D01*
X116611061Y-87357000D01*
X116411102Y-87396774D01*
X116222744Y-87474795D01*
X116053226Y-87588063D01*
X115909063Y-87732226D01*
X115795795Y-87901744D01*
X115717774Y-88090102D01*
X115678000Y-88290061D01*
X113811000Y-88290061D01*
X113771226Y-88090102D01*
X113693205Y-87901744D01*
X113579937Y-87732226D01*
X113435774Y-87588063D01*
X113266256Y-87474795D01*
X113077898Y-87396774D01*
X112877939Y-87357000D01*
X112674061Y-87357000D01*
X112474102Y-87396774D01*
X112285744Y-87474795D01*
X112116226Y-87588063D01*
X111972063Y-87732226D01*
X111858795Y-87901744D01*
X111780774Y-88090102D01*
X111741000Y-88290061D01*
X109874000Y-88290061D01*
X109834226Y-88090102D01*
X109756205Y-87901744D01*
X109642937Y-87732226D01*
X109498774Y-87588063D01*
X109329256Y-87474795D01*
X109140898Y-87396774D01*
X108940939Y-87357000D01*
X108737061Y-87357000D01*
X108537102Y-87396774D01*
X108348744Y-87474795D01*
X108179226Y-87588063D01*
X108035063Y-87732226D01*
X107921795Y-87901744D01*
X107843774Y-88090102D01*
X107804000Y-88290061D01*
X106594650Y-88290061D01*
X106594937Y-88289774D01*
X106708205Y-88120256D01*
X106786226Y-87931898D01*
X106826000Y-87731939D01*
X106826000Y-87528061D01*
X106786226Y-87328102D01*
X106708205Y-87139744D01*
X106594937Y-86970226D01*
X106551000Y-86926289D01*
X106551000Y-86745172D01*
X106697744Y-86843223D01*
X106886102Y-86921244D01*
X107086061Y-86961018D01*
X107289939Y-86961018D01*
X107489898Y-86921244D01*
X107678256Y-86843223D01*
X107847774Y-86729955D01*
X107991937Y-86585792D01*
X108105205Y-86416274D01*
X108183226Y-86227916D01*
X108223000Y-86027957D01*
X108223000Y-85824079D01*
X108200934Y-85713144D01*
X108356061Y-85744000D01*
X108559939Y-85744000D01*
X108759898Y-85704226D01*
X108948256Y-85626205D01*
X109117774Y-85512937D01*
X109261937Y-85368774D01*
X109375205Y-85199256D01*
X109453226Y-85010898D01*
X109493000Y-84810939D01*
X109493000Y-84607061D01*
X109453226Y-84407102D01*
X109375205Y-84218744D01*
X109261937Y-84049226D01*
X109218000Y-84005289D01*
X109218000Y-82930103D01*
X109294842Y-82961932D01*
X109581740Y-83019000D01*
X109874260Y-83019000D01*
X110161158Y-82961932D01*
X110431411Y-82849990D01*
X110674632Y-82687475D01*
X110799710Y-82562397D01*
X111419208Y-82562397D01*
X111496843Y-82811472D01*
X111760883Y-82937371D01*
X112044411Y-83009339D01*
X112336531Y-83024611D01*
X112626019Y-82982599D01*
X112901747Y-82884919D01*
X113039157Y-82811472D01*
X113116792Y-82562397D01*
X112268000Y-81713605D01*
X111419208Y-82562397D01*
X110799710Y-82562397D01*
X110881475Y-82480632D01*
X110997311Y-82307271D01*
X111239603Y-82382792D01*
X112088395Y-81534000D01*
X111239603Y-80685208D01*
X110997311Y-80760729D01*
X110881475Y-80587368D01*
X110674632Y-80380525D01*
X110500240Y-80264000D01*
X110674632Y-80147475D01*
X110881475Y-79940632D01*
X110998000Y-79766240D01*
X111114525Y-79940632D01*
X111321368Y-80147475D01*
X111494729Y-80263311D01*
X111419208Y-80505603D01*
X112268000Y-81354395D01*
X112282143Y-81340253D01*
X112461748Y-81519858D01*
X112447605Y-81534000D01*
X113296397Y-82382792D01*
X113538689Y-82307271D01*
X113654525Y-82480632D01*
X113861368Y-82687475D01*
X114104589Y-82849990D01*
X114374842Y-82961932D01*
X114661740Y-83019000D01*
X114954260Y-83019000D01*
X115241158Y-82961932D01*
X115511411Y-82849990D01*
X115754632Y-82687475D01*
X115879710Y-82562397D01*
X116499208Y-82562397D01*
X116576843Y-82811472D01*
X116840883Y-82937371D01*
X117124411Y-83009339D01*
X117416531Y-83024611D01*
X117706019Y-82982599D01*
X117981747Y-82884919D01*
X118119157Y-82811472D01*
X118196792Y-82562397D01*
X117348000Y-81713605D01*
X116499208Y-82562397D01*
X115879710Y-82562397D01*
X115961475Y-82480632D01*
X116077311Y-82307271D01*
X116319603Y-82382792D01*
X117168395Y-81534000D01*
X116319603Y-80685208D01*
X116077311Y-80760729D01*
X115961475Y-80587368D01*
X115754632Y-80380525D01*
X115580240Y-80264000D01*
X115754632Y-80147475D01*
X115961475Y-79940632D01*
X116078000Y-79766240D01*
X116194525Y-79940632D01*
X116401368Y-80147475D01*
X116574729Y-80263311D01*
X116499208Y-80505603D01*
X117348000Y-81354395D01*
X117362143Y-81340253D01*
X117541748Y-81519858D01*
X117527605Y-81534000D01*
X118376397Y-82382792D01*
X118618689Y-82307271D01*
X118734525Y-82480632D01*
X118941368Y-82687475D01*
X119184589Y-82849990D01*
X119454842Y-82961932D01*
X119741740Y-83019000D01*
X120034260Y-83019000D01*
X120321158Y-82961932D01*
X120591411Y-82849990D01*
X120834632Y-82687475D01*
X121041475Y-82480632D01*
X121203990Y-82237411D01*
X121315932Y-81967158D01*
X121373000Y-81680260D01*
X121373000Y-81387740D01*
X121315932Y-81100842D01*
X121203990Y-80830589D01*
X121041475Y-80587368D01*
X120854392Y-80400285D01*
X120981386Y-80332405D01*
X121115962Y-80221962D01*
X121226405Y-80087386D01*
X121308472Y-79933850D01*
X121359008Y-79767254D01*
X121376072Y-79594000D01*
X121376072Y-78394000D01*
X121359008Y-78220746D01*
X121308472Y-78054150D01*
X121226405Y-77900614D01*
X121115962Y-77766038D01*
X120981386Y-77655595D01*
X120827850Y-77573528D01*
X120661254Y-77522992D01*
X120488000Y-77505928D01*
X119474730Y-77505928D01*
X112630731Y-70661930D01*
X112901747Y-70565919D01*
X113039157Y-70492472D01*
X113116792Y-70243397D01*
X112268000Y-69394605D01*
X112253858Y-69408748D01*
X112074253Y-69229143D01*
X112088395Y-69215000D01*
X111239603Y-68366208D01*
X110997311Y-68441729D01*
X110881475Y-68268368D01*
X110674632Y-68061525D01*
X110500240Y-67945000D01*
X110674632Y-67828475D01*
X110881475Y-67621632D01*
X110998000Y-67447240D01*
X111114525Y-67621632D01*
X111321368Y-67828475D01*
X111494729Y-67944311D01*
X111419208Y-68186603D01*
X112268000Y-69035395D01*
X113116792Y-68186603D01*
X113041271Y-67944311D01*
X113214632Y-67828475D01*
X113421475Y-67621632D01*
X113538000Y-67447240D01*
X113654525Y-67621632D01*
X113861368Y-67828475D01*
X114035760Y-67945000D01*
X113861368Y-68061525D01*
X113654525Y-68268368D01*
X113538689Y-68441729D01*
X113296397Y-68366208D01*
X112447605Y-69215000D01*
X113296397Y-70063792D01*
X113538689Y-69988271D01*
X113654525Y-70161632D01*
X113861368Y-70368475D01*
X114104589Y-70530990D01*
X114374842Y-70642932D01*
X114661740Y-70700000D01*
X114954260Y-70700000D01*
X115241158Y-70642932D01*
X115511411Y-70530990D01*
X115754632Y-70368475D01*
X115879710Y-70243397D01*
X116499208Y-70243397D01*
X116576843Y-70492472D01*
X116840883Y-70618371D01*
X117124411Y-70690339D01*
X117416531Y-70705611D01*
X117706019Y-70663599D01*
X117981747Y-70565919D01*
X118119157Y-70492472D01*
X118196792Y-70243397D01*
X117348000Y-69394605D01*
X116499208Y-70243397D01*
X115879710Y-70243397D01*
X115961475Y-70161632D01*
X116077311Y-69988271D01*
X116319603Y-70063792D01*
X117168395Y-69215000D01*
X116319603Y-68366208D01*
X116077311Y-68441729D01*
X115961475Y-68268368D01*
X115754632Y-68061525D01*
X115580240Y-67945000D01*
X115754632Y-67828475D01*
X115961475Y-67621632D01*
X116078000Y-67447240D01*
X116194525Y-67621632D01*
X116401368Y-67828475D01*
X116574729Y-67944311D01*
X116499208Y-68186603D01*
X117348000Y-69035395D01*
X118196792Y-68186603D01*
X118121271Y-67944311D01*
X118294632Y-67828475D01*
X118481715Y-67641392D01*
X118549595Y-67768386D01*
X118660038Y-67902962D01*
X118794614Y-68013405D01*
X118921608Y-68081285D01*
X118734525Y-68268368D01*
X118618689Y-68441729D01*
X118376397Y-68366208D01*
X117527605Y-69215000D01*
X118376397Y-70063792D01*
X118618689Y-69988271D01*
X118734525Y-70161632D01*
X118941368Y-70368475D01*
X119184589Y-70530990D01*
X119454842Y-70642932D01*
X119741740Y-70700000D01*
X120034260Y-70700000D01*
X120321158Y-70642932D01*
X120591411Y-70530990D01*
X120834632Y-70368475D01*
X121041475Y-70161632D01*
X121203990Y-69918411D01*
X121315932Y-69648158D01*
X121373000Y-69361260D01*
X121373000Y-69068740D01*
X121315932Y-68781842D01*
X121203990Y-68511589D01*
X121041475Y-68268368D01*
X120854392Y-68081285D01*
X120981386Y-68013405D01*
X121115962Y-67902962D01*
X121226405Y-67768386D01*
X121308472Y-67614850D01*
X121359008Y-67448254D01*
X121376072Y-67275000D01*
X121376072Y-66075000D01*
X121359008Y-65901746D01*
X121308472Y-65735150D01*
X121226405Y-65581614D01*
X121115962Y-65447038D01*
X120981386Y-65336595D01*
X120827850Y-65254528D01*
X120661254Y-65203992D01*
X120488000Y-65186928D01*
X119288000Y-65186928D01*
X119114746Y-65203992D01*
X118948150Y-65254528D01*
X118794614Y-65336595D01*
X118660038Y-65447038D01*
X118549595Y-65581614D01*
X118481715Y-65708608D01*
X118294632Y-65521525D01*
X118051411Y-65359010D01*
X117781158Y-65247068D01*
X117494260Y-65190000D01*
X117201740Y-65190000D01*
X116914842Y-65247068D01*
X116644589Y-65359010D01*
X116401368Y-65521525D01*
X116194525Y-65728368D01*
X116078000Y-65902760D01*
X115961475Y-65728368D01*
X115754632Y-65521525D01*
X115511411Y-65359010D01*
X115241158Y-65247068D01*
X114954260Y-65190000D01*
X114661740Y-65190000D01*
X114374842Y-65247068D01*
X114104589Y-65359010D01*
X113861368Y-65521525D01*
X113654525Y-65728368D01*
X113538000Y-65902760D01*
X113421475Y-65728368D01*
X113214632Y-65521525D01*
X112971411Y-65359010D01*
X112701158Y-65247068D01*
X112414260Y-65190000D01*
X112121740Y-65190000D01*
X111834842Y-65247068D01*
X111564589Y-65359010D01*
X111321368Y-65521525D01*
X111114525Y-65728368D01*
X110998000Y-65902760D01*
X110881475Y-65728368D01*
X110674632Y-65521525D01*
X110431411Y-65359010D01*
X110161158Y-65247068D01*
X109874260Y-65190000D01*
X109581740Y-65190000D01*
X109294842Y-65247068D01*
X109024589Y-65359010D01*
X108781368Y-65521525D01*
X108574525Y-65728368D01*
X108458000Y-65902760D01*
X108341475Y-65728368D01*
X108134632Y-65521525D01*
X107891411Y-65359010D01*
X107621158Y-65247068D01*
X107334260Y-65190000D01*
X107041740Y-65190000D01*
X106754842Y-65247068D01*
X106484589Y-65359010D01*
X106241368Y-65521525D01*
X106034525Y-65728368D01*
X105918000Y-65902760D01*
X105801475Y-65728368D01*
X105594632Y-65521525D01*
X105351411Y-65359010D01*
X105081158Y-65247068D01*
X104794260Y-65190000D01*
X104501740Y-65190000D01*
X104214842Y-65247068D01*
X103944589Y-65359010D01*
X103701368Y-65521525D01*
X103494525Y-65728368D01*
X103378000Y-65902760D01*
X103261475Y-65728368D01*
X103054632Y-65521525D01*
X102811411Y-65359010D01*
X102541158Y-65247068D01*
X102254260Y-65190000D01*
X101961740Y-65190000D01*
X101674842Y-65247068D01*
X101404589Y-65359010D01*
X101161368Y-65521525D01*
X100954525Y-65728368D01*
X100838000Y-65902760D01*
X100721475Y-65728368D01*
X100514632Y-65521525D01*
X100271411Y-65359010D01*
X100001158Y-65247068D01*
X99714260Y-65190000D01*
X99421740Y-65190000D01*
X99134842Y-65247068D01*
X98864589Y-65359010D01*
X98621368Y-65521525D01*
X98414525Y-65728368D01*
X98298000Y-65902760D01*
X98181475Y-65728368D01*
X97974632Y-65521525D01*
X97731411Y-65359010D01*
X97461158Y-65247068D01*
X97174260Y-65190000D01*
X96881740Y-65190000D01*
X96594842Y-65247068D01*
X96324589Y-65359010D01*
X96081368Y-65521525D01*
X95874525Y-65728368D01*
X95712010Y-65971589D01*
X95600068Y-66241842D01*
X95543000Y-66528740D01*
X83083000Y-66528740D01*
X83083000Y-63787872D01*
X84252000Y-63787872D01*
X84252000Y-64228128D01*
X84337890Y-64659925D01*
X84506369Y-65066669D01*
X84750962Y-65432729D01*
X85062271Y-65744038D01*
X85428331Y-65988631D01*
X85835075Y-66157110D01*
X86266872Y-66243000D01*
X86707128Y-66243000D01*
X87138925Y-66157110D01*
X87545669Y-65988631D01*
X87911729Y-65744038D01*
X88223038Y-65432729D01*
X88467631Y-65066669D01*
X88636110Y-64659925D01*
X88722000Y-64228128D01*
X88722000Y-63787872D01*
X132512000Y-63787872D01*
X132512000Y-64228128D01*
X132597890Y-64659925D01*
X132766369Y-65066669D01*
X133010962Y-65432729D01*
X133322271Y-65744038D01*
X133688331Y-65988631D01*
X134095075Y-66157110D01*
X134526872Y-66243000D01*
X134967128Y-66243000D01*
X135398925Y-66157110D01*
X135805669Y-65988631D01*
X136171729Y-65744038D01*
X136483038Y-65432729D01*
X136727631Y-65066669D01*
X136896110Y-64659925D01*
X136982000Y-64228128D01*
X136982000Y-63787872D01*
X136896110Y-63356075D01*
X136727631Y-62949331D01*
X136483038Y-62583271D01*
X136171729Y-62271962D01*
X135805669Y-62027369D01*
X135398925Y-61858890D01*
X134967128Y-61773000D01*
X134526872Y-61773000D01*
X134095075Y-61858890D01*
X133688331Y-62027369D01*
X133322271Y-62271962D01*
X133010962Y-62583271D01*
X132766369Y-62949331D01*
X132597890Y-63356075D01*
X132512000Y-63787872D01*
X88722000Y-63787872D01*
X88636110Y-63356075D01*
X88467631Y-62949331D01*
X88223038Y-62583271D01*
X87911729Y-62271962D01*
X87545669Y-62027369D01*
X87138925Y-61858890D01*
X86707128Y-61773000D01*
X86266872Y-61773000D01*
X85835075Y-61858890D01*
X85428331Y-62027369D01*
X85062271Y-62271962D01*
X84750962Y-62583271D01*
X84506369Y-62949331D01*
X84337890Y-63356075D01*
X84252000Y-63787872D01*
X83083000Y-63787872D01*
X83083000Y-60604000D01*
X138151000Y-60604000D01*
X138151001Y-138024000D01*
G37*
X138151001Y-138024000D02*
X83083000Y-138024000D01*
X83083000Y-134399872D01*
X84252000Y-134399872D01*
X84252000Y-134840128D01*
X84337890Y-135271925D01*
X84506369Y-135678669D01*
X84750962Y-136044729D01*
X85062271Y-136356038D01*
X85428331Y-136600631D01*
X85835075Y-136769110D01*
X86266872Y-136855000D01*
X86707128Y-136855000D01*
X87138925Y-136769110D01*
X87545669Y-136600631D01*
X87911729Y-136356038D01*
X88223038Y-136044729D01*
X88467631Y-135678669D01*
X88636110Y-135271925D01*
X88722000Y-134840128D01*
X88722000Y-134399872D01*
X132512000Y-134399872D01*
X132512000Y-134840128D01*
X132597890Y-135271925D01*
X132766369Y-135678669D01*
X133010962Y-136044729D01*
X133322271Y-136356038D01*
X133688331Y-136600631D01*
X134095075Y-136769110D01*
X134526872Y-136855000D01*
X134967128Y-136855000D01*
X135398925Y-136769110D01*
X135805669Y-136600631D01*
X136171729Y-136356038D01*
X136483038Y-136044729D01*
X136727631Y-135678669D01*
X136896110Y-135271925D01*
X136982000Y-134840128D01*
X136982000Y-134399872D01*
X136896110Y-133968075D01*
X136727631Y-133561331D01*
X136483038Y-133195271D01*
X136171729Y-132883962D01*
X135805669Y-132639369D01*
X135398925Y-132470890D01*
X134967128Y-132385000D01*
X134526872Y-132385000D01*
X134095075Y-132470890D01*
X133688331Y-132639369D01*
X133322271Y-132883962D01*
X133010962Y-133195271D01*
X132766369Y-133561331D01*
X132597890Y-133968075D01*
X132512000Y-134399872D01*
X88722000Y-134399872D01*
X88636110Y-133968075D01*
X88467631Y-133561331D01*
X88223038Y-133195271D01*
X87911729Y-132883962D01*
X87545669Y-132639369D01*
X87138925Y-132470890D01*
X86707128Y-132385000D01*
X86266872Y-132385000D01*
X85835075Y-132470890D01*
X85428331Y-132639369D01*
X85062271Y-132883962D01*
X84750962Y-133195271D01*
X84506369Y-133561331D01*
X84337890Y-133968075D01*
X84252000Y-134399872D01*
X83083000Y-134399872D01*
X83083000Y-131340000D01*
X92060928Y-131340000D01*
X92073188Y-131464482D01*
X92109498Y-131584180D01*
X92168463Y-131694494D01*
X92247815Y-131791185D01*
X92344506Y-131870537D01*
X92454820Y-131929502D01*
X92574518Y-131965812D01*
X92699000Y-131978072D01*
X93313250Y-131975000D01*
X93472000Y-131816250D01*
X93472000Y-129667000D01*
X93726000Y-129667000D01*
X93726000Y-131816250D01*
X93884750Y-131975000D01*
X94499000Y-131978072D01*
X94623482Y-131965812D01*
X94743180Y-131929502D01*
X94853494Y-131870537D01*
X94950185Y-131791185D01*
X95029537Y-131694494D01*
X95088502Y-131584180D01*
X95124812Y-131464482D01*
X95137072Y-131340000D01*
X95134000Y-129825750D01*
X94975250Y-129667000D01*
X93726000Y-129667000D01*
X93472000Y-129667000D01*
X92222750Y-129667000D01*
X92064000Y-129825750D01*
X92060928Y-131340000D01*
X83083000Y-131340000D01*
X83083000Y-127740000D01*
X92060928Y-127740000D01*
X92064000Y-129254250D01*
X92222750Y-129413000D01*
X93472000Y-129413000D01*
X93472000Y-127263750D01*
X93726000Y-127263750D01*
X93726000Y-129413000D01*
X94975250Y-129413000D01*
X95134000Y-129254250D01*
X95135399Y-128564593D01*
X95874000Y-128564593D01*
X95874000Y-130515408D01*
X95896211Y-130740913D01*
X95983984Y-131030261D01*
X96126520Y-131296927D01*
X96318340Y-131530661D01*
X96552074Y-131722481D01*
X96818740Y-131865017D01*
X97108088Y-131952790D01*
X97409000Y-131982427D01*
X97709913Y-131952790D01*
X97999261Y-131865017D01*
X98265927Y-131722481D01*
X98499661Y-131530661D01*
X98691481Y-131296927D01*
X98834017Y-131030261D01*
X98921790Y-130740913D01*
X98944000Y-130515408D01*
X98944000Y-128564593D01*
X99684000Y-128564593D01*
X99684000Y-130515408D01*
X99706211Y-130740913D01*
X99793984Y-131030261D01*
X99936520Y-131296927D01*
X100128340Y-131530661D01*
X100362074Y-131722481D01*
X100628740Y-131865017D01*
X100918088Y-131952790D01*
X101219000Y-131982427D01*
X101519913Y-131952790D01*
X101809261Y-131865017D01*
X102075927Y-131722481D01*
X102309661Y-131530661D01*
X102501481Y-131296927D01*
X102644017Y-131030261D01*
X102731790Y-130740913D01*
X102754000Y-130515408D01*
X102754000Y-128564593D01*
X103494000Y-128564593D01*
X103494000Y-130515408D01*
X103516211Y-130740913D01*
X103603984Y-131030261D01*
X103746520Y-131296927D01*
X103938340Y-131530661D01*
X104172074Y-131722481D01*
X104438740Y-131865017D01*
X104728088Y-131952790D01*
X105029000Y-131982427D01*
X105329913Y-131952790D01*
X105619261Y-131865017D01*
X105885927Y-131722481D01*
X106119661Y-131530661D01*
X106311481Y-131296927D01*
X106454017Y-131030261D01*
X106541790Y-130740913D01*
X106564000Y-130515408D01*
X106564000Y-128564593D01*
X107304000Y-128564593D01*
X107304000Y-130515408D01*
X107326211Y-130740913D01*
X107413984Y-131030261D01*
X107556520Y-131296927D01*
X107748340Y-131530661D01*
X107982074Y-131722481D01*
X108248740Y-131865017D01*
X108538088Y-131952790D01*
X108839000Y-131982427D01*
X109139913Y-131952790D01*
X109429261Y-131865017D01*
X109695927Y-131722481D01*
X109929661Y-131530661D01*
X110121481Y-131296927D01*
X110264017Y-131030261D01*
X110351790Y-130740913D01*
X110374000Y-130515408D01*
X110374000Y-128564593D01*
X111114000Y-128564593D01*
X111114000Y-130515408D01*
X111136211Y-130740913D01*
X111223984Y-131030261D01*
X111366520Y-131296927D01*
X111558340Y-131530661D01*
X111792074Y-131722481D01*
X112058740Y-131865017D01*
X112348088Y-131952790D01*
X112649000Y-131982427D01*
X112949913Y-131952790D01*
X113239261Y-131865017D01*
X113505927Y-131722481D01*
X113739661Y-131530661D01*
X113931481Y-131296927D01*
X114074017Y-131030261D01*
X114161790Y-130740913D01*
X114184000Y-130515408D01*
X114184000Y-128564593D01*
X114924000Y-128564593D01*
X114924000Y-130515408D01*
X114946211Y-130740913D01*
X115033984Y-131030261D01*
X115176520Y-131296927D01*
X115368340Y-131530661D01*
X115602074Y-131722481D01*
X115868740Y-131865017D01*
X116158088Y-131952790D01*
X116459000Y-131982427D01*
X116759913Y-131952790D01*
X117049261Y-131865017D01*
X117315927Y-131722481D01*
X117549661Y-131530661D01*
X117741481Y-131296927D01*
X117884017Y-131030261D01*
X117971790Y-130740913D01*
X117994000Y-130515408D01*
X117994000Y-128564593D01*
X118734000Y-128564593D01*
X118734000Y-130515408D01*
X118756211Y-130740913D01*
X118843984Y-131030261D01*
X118986520Y-131296927D01*
X119178340Y-131530661D01*
X119412074Y-131722481D01*
X119678740Y-131865017D01*
X119968088Y-131952790D01*
X120269000Y-131982427D01*
X120569913Y-131952790D01*
X120859261Y-131865017D01*
X121125927Y-131722481D01*
X121359661Y-131530661D01*
X121551481Y-131296927D01*
X121694017Y-131030261D01*
X121781790Y-130740913D01*
X121804000Y-130515408D01*
X121804000Y-128564593D01*
X122544000Y-128564593D01*
X122544000Y-130515408D01*
X122566211Y-130740913D01*
X122653984Y-131030261D01*
X122796520Y-131296927D01*
X122988340Y-131530661D01*
X123222074Y-131722481D01*
X123488740Y-131865017D01*
X123778088Y-131952790D01*
X124079000Y-131982427D01*
X124379913Y-131952790D01*
X124669261Y-131865017D01*
X124935927Y-131722481D01*
X125169661Y-131530661D01*
X125361481Y-131296927D01*
X125504017Y-131030261D01*
X125591790Y-130740913D01*
X125614000Y-130515408D01*
X125614000Y-128564592D01*
X125591790Y-128339087D01*
X125504017Y-128049739D01*
X125361481Y-127783073D01*
X125169661Y-127549339D01*
X124935926Y-127357519D01*
X124839000Y-127305711D01*
X124839000Y-105865289D01*
X124950256Y-105819205D01*
X125119774Y-105705937D01*
X125263937Y-105561774D01*
X125377205Y-105392256D01*
X125455226Y-105203898D01*
X125495000Y-105003939D01*
X125495000Y-104800061D01*
X125455226Y-104600102D01*
X125377205Y-104411744D01*
X125263937Y-104242226D01*
X125119774Y-104098063D01*
X124950256Y-103984795D01*
X124761898Y-103906774D01*
X124561939Y-103867000D01*
X124358061Y-103867000D01*
X124158102Y-103906774D01*
X123969744Y-103984795D01*
X123800226Y-104098063D01*
X123656063Y-104242226D01*
X123542795Y-104411744D01*
X123464774Y-104600102D01*
X123425000Y-104800061D01*
X123425000Y-104894319D01*
X123373454Y-104990754D01*
X123343180Y-105090558D01*
X123329998Y-105134014D01*
X123323115Y-105203898D01*
X123315324Y-105283000D01*
X123319001Y-105320333D01*
X123319000Y-127305710D01*
X123222073Y-127357519D01*
X122988339Y-127549339D01*
X122796519Y-127783074D01*
X122653983Y-128049740D01*
X122566210Y-128339088D01*
X122544000Y-128564593D01*
X121804000Y-128564593D01*
X121804000Y-128564592D01*
X121781790Y-128339087D01*
X121694017Y-128049739D01*
X121551481Y-127783073D01*
X121359661Y-127549339D01*
X121125926Y-127357519D01*
X121029000Y-127305711D01*
X121029000Y-105723827D01*
X121055774Y-105705937D01*
X121199937Y-105561774D01*
X121313205Y-105392256D01*
X121391226Y-105203898D01*
X121431000Y-105003939D01*
X121431000Y-104800061D01*
X121391226Y-104600102D01*
X121313205Y-104411744D01*
X121199937Y-104242226D01*
X121055774Y-104098063D01*
X120886256Y-103984795D01*
X120697898Y-103906774D01*
X120497939Y-103867000D01*
X120294061Y-103867000D01*
X120094102Y-103906774D01*
X119905744Y-103984795D01*
X119736226Y-104098063D01*
X119592063Y-104242226D01*
X119478795Y-104411744D01*
X119400774Y-104600102D01*
X119361000Y-104800061D01*
X119361000Y-105003939D01*
X119400774Y-105203898D01*
X119478795Y-105392256D01*
X119509001Y-105437463D01*
X119509000Y-127305710D01*
X119412073Y-127357519D01*
X119178339Y-127549339D01*
X118986519Y-127783074D01*
X118843983Y-128049740D01*
X118756210Y-128339088D01*
X118734000Y-128564593D01*
X117994000Y-128564593D01*
X117994000Y-128564592D01*
X117971790Y-128339087D01*
X117884017Y-128049739D01*
X117741481Y-127783073D01*
X117549661Y-127549339D01*
X117315926Y-127357519D01*
X117219000Y-127305711D01*
X117219000Y-105723827D01*
X117245774Y-105705937D01*
X117389937Y-105561774D01*
X117503205Y-105392256D01*
X117581226Y-105203898D01*
X117621000Y-105003939D01*
X117621000Y-104800061D01*
X117581226Y-104600102D01*
X117503205Y-104411744D01*
X117389937Y-104242226D01*
X117245774Y-104098063D01*
X117076256Y-103984795D01*
X116887898Y-103906774D01*
X116687939Y-103867000D01*
X116484061Y-103867000D01*
X116284102Y-103906774D01*
X116095744Y-103984795D01*
X115926226Y-104098063D01*
X115782063Y-104242226D01*
X115668795Y-104411744D01*
X115590774Y-104600102D01*
X115551000Y-104800061D01*
X115551000Y-105003939D01*
X115590774Y-105203898D01*
X115668795Y-105392256D01*
X115699001Y-105437463D01*
X115699000Y-127305710D01*
X115602073Y-127357519D01*
X115368339Y-127549339D01*
X115176519Y-127783074D01*
X115033983Y-128049740D01*
X114946210Y-128339088D01*
X114924000Y-128564593D01*
X114184000Y-128564593D01*
X114184000Y-128564592D01*
X114161790Y-128339087D01*
X114074017Y-128049739D01*
X113931481Y-127783073D01*
X113739661Y-127549339D01*
X113505926Y-127357519D01*
X113409000Y-127305711D01*
X113409000Y-105605711D01*
X113452937Y-105561774D01*
X113566205Y-105392256D01*
X113644226Y-105203898D01*
X113684000Y-105003939D01*
X113684000Y-104800061D01*
X113644226Y-104600102D01*
X113566205Y-104411744D01*
X113452937Y-104242226D01*
X113308774Y-104098063D01*
X113139256Y-103984795D01*
X112950898Y-103906774D01*
X112750939Y-103867000D01*
X112547061Y-103867000D01*
X112347102Y-103906774D01*
X112158744Y-103984795D01*
X111989226Y-104098063D01*
X111845063Y-104242226D01*
X111731795Y-104411744D01*
X111653774Y-104600102D01*
X111614000Y-104800061D01*
X111614000Y-105003939D01*
X111653774Y-105203898D01*
X111731795Y-105392256D01*
X111845063Y-105561774D01*
X111889001Y-105605712D01*
X111889000Y-127305710D01*
X111792073Y-127357519D01*
X111558339Y-127549339D01*
X111366519Y-127783074D01*
X111223983Y-128049740D01*
X111136210Y-128339088D01*
X111114000Y-128564593D01*
X110374000Y-128564593D01*
X110374000Y-128564592D01*
X110351790Y-128339087D01*
X110264017Y-128049739D01*
X110121481Y-127783073D01*
X109929661Y-127549339D01*
X109695926Y-127357519D01*
X109599000Y-127305711D01*
X109599000Y-105605711D01*
X109642937Y-105561774D01*
X109756205Y-105392256D01*
X109834226Y-105203898D01*
X109874000Y-105003939D01*
X109874000Y-104800061D01*
X109834226Y-104600102D01*
X109756205Y-104411744D01*
X109642937Y-104242226D01*
X109498774Y-104098063D01*
X109329256Y-103984795D01*
X109140898Y-103906774D01*
X108940939Y-103867000D01*
X108737061Y-103867000D01*
X108537102Y-103906774D01*
X108348744Y-103984795D01*
X108179226Y-104098063D01*
X108035063Y-104242226D01*
X107921795Y-104411744D01*
X107843774Y-104600102D01*
X107804000Y-104800061D01*
X107804000Y-105003939D01*
X107843774Y-105203898D01*
X107921795Y-105392256D01*
X108035063Y-105561774D01*
X108079001Y-105605712D01*
X108079000Y-127305710D01*
X107982073Y-127357519D01*
X107748339Y-127549339D01*
X107556519Y-127783074D01*
X107413983Y-128049740D01*
X107326210Y-128339088D01*
X107304000Y-128564593D01*
X106564000Y-128564593D01*
X106564000Y-128564592D01*
X106541790Y-128339087D01*
X106454017Y-128049739D01*
X106311481Y-127783073D01*
X106119661Y-127549339D01*
X105885926Y-127357519D01*
X105789000Y-127305711D01*
X105789000Y-105437461D01*
X105819205Y-105392256D01*
X105897226Y-105203898D01*
X105937000Y-105003939D01*
X105937000Y-104800061D01*
X105897226Y-104600102D01*
X105819205Y-104411744D01*
X105705937Y-104242226D01*
X105561774Y-104098063D01*
X105392256Y-103984795D01*
X105203898Y-103906774D01*
X105003939Y-103867000D01*
X104800061Y-103867000D01*
X104600102Y-103906774D01*
X104411744Y-103984795D01*
X104242226Y-104098063D01*
X104098063Y-104242226D01*
X103984795Y-104411744D01*
X103906774Y-104600102D01*
X103867000Y-104800061D01*
X103867000Y-105003939D01*
X103906774Y-105203898D01*
X103984795Y-105392256D01*
X104098063Y-105561774D01*
X104242226Y-105705937D01*
X104269001Y-105723827D01*
X104269000Y-127305710D01*
X104172073Y-127357519D01*
X103938339Y-127549339D01*
X103746519Y-127783074D01*
X103603983Y-128049740D01*
X103516210Y-128339088D01*
X103494000Y-128564593D01*
X102754000Y-128564593D01*
X102754000Y-128564592D01*
X102731790Y-128339087D01*
X102644017Y-128049739D01*
X102501481Y-127783073D01*
X102309661Y-127549339D01*
X102075926Y-127357519D01*
X101979000Y-127305711D01*
X101979000Y-105605711D01*
X102022937Y-105561774D01*
X102136205Y-105392256D01*
X102214226Y-105203898D01*
X102254000Y-105003939D01*
X102254000Y-104800061D01*
X102214226Y-104600102D01*
X102136205Y-104411744D01*
X102022937Y-104242226D01*
X101878774Y-104098063D01*
X101709256Y-103984795D01*
X101520898Y-103906774D01*
X101320939Y-103867000D01*
X101117061Y-103867000D01*
X100917102Y-103906774D01*
X100728744Y-103984795D01*
X100559226Y-104098063D01*
X100415063Y-104242226D01*
X100301795Y-104411744D01*
X100223774Y-104600102D01*
X100184000Y-104800061D01*
X100184000Y-105003939D01*
X100223774Y-105203898D01*
X100301795Y-105392256D01*
X100415063Y-105561774D01*
X100459001Y-105605712D01*
X100459000Y-127305710D01*
X100362073Y-127357519D01*
X100128339Y-127549339D01*
X99936519Y-127783074D01*
X99793983Y-128049740D01*
X99706210Y-128339088D01*
X99684000Y-128564593D01*
X98944000Y-128564593D01*
X98944000Y-128564592D01*
X98921790Y-128339087D01*
X98834017Y-128049739D01*
X98691481Y-127783073D01*
X98499661Y-127549339D01*
X98265926Y-127357519D01*
X98169000Y-127305711D01*
X98169000Y-105605711D01*
X98212937Y-105561774D01*
X98326205Y-105392256D01*
X98404226Y-105203898D01*
X98444000Y-105003939D01*
X98444000Y-104800061D01*
X98404226Y-104600102D01*
X98326205Y-104411744D01*
X98212937Y-104242226D01*
X98068774Y-104098063D01*
X97899256Y-103984795D01*
X97710898Y-103906774D01*
X97510939Y-103867000D01*
X97307061Y-103867000D01*
X97107102Y-103906774D01*
X96918744Y-103984795D01*
X96749226Y-104098063D01*
X96605063Y-104242226D01*
X96491795Y-104411744D01*
X96413774Y-104600102D01*
X96374000Y-104800061D01*
X96374000Y-105003939D01*
X96413774Y-105203898D01*
X96491795Y-105392256D01*
X96605063Y-105561774D01*
X96649001Y-105605712D01*
X96649000Y-127305710D01*
X96552073Y-127357519D01*
X96318339Y-127549339D01*
X96126519Y-127783074D01*
X95983983Y-128049740D01*
X95896210Y-128339088D01*
X95874000Y-128564593D01*
X95135399Y-128564593D01*
X95137072Y-127740000D01*
X95124812Y-127615518D01*
X95088502Y-127495820D01*
X95029537Y-127385506D01*
X94950185Y-127288815D01*
X94853494Y-127209463D01*
X94743180Y-127150498D01*
X94623482Y-127114188D01*
X94499000Y-127101928D01*
X93884750Y-127105000D01*
X93726000Y-127263750D01*
X93472000Y-127263750D01*
X93313250Y-127105000D01*
X92699000Y-127101928D01*
X92574518Y-127114188D01*
X92454820Y-127150498D01*
X92344506Y-127209463D01*
X92247815Y-127288815D01*
X92168463Y-127385506D01*
X92109498Y-127495820D01*
X92073188Y-127615518D01*
X92060928Y-127740000D01*
X83083000Y-127740000D01*
X83083000Y-66528740D01*
X95543000Y-66528740D01*
X95543000Y-66821260D01*
X95600068Y-67108158D01*
X95712010Y-67378411D01*
X95874525Y-67621632D01*
X96081368Y-67828475D01*
X96255760Y-67945000D01*
X96081368Y-68061525D01*
X95874525Y-68268368D01*
X95712010Y-68511589D01*
X95600068Y-68781842D01*
X95543000Y-69068740D01*
X95543000Y-69361260D01*
X95600068Y-69648158D01*
X95712010Y-69918411D01*
X95874525Y-70161632D01*
X96081368Y-70368475D01*
X96324589Y-70530990D01*
X96594842Y-70642932D01*
X96881740Y-70700000D01*
X97174260Y-70700000D01*
X97394408Y-70656210D01*
X97596497Y-70858299D01*
X97596503Y-70858304D01*
X104289430Y-77551231D01*
X104214842Y-77566068D01*
X103944589Y-77678010D01*
X103701368Y-77840525D01*
X103494525Y-78047368D01*
X103378000Y-78221760D01*
X103261475Y-78047368D01*
X103054632Y-77840525D01*
X102811411Y-77678010D01*
X102541158Y-77566068D01*
X102254260Y-77509000D01*
X101961740Y-77509000D01*
X101674842Y-77566068D01*
X101404589Y-77678010D01*
X101161368Y-77840525D01*
X100954525Y-78047368D01*
X100838000Y-78221760D01*
X100721475Y-78047368D01*
X100514632Y-77840525D01*
X100271411Y-77678010D01*
X100001158Y-77566068D01*
X99714260Y-77509000D01*
X99421740Y-77509000D01*
X99134842Y-77566068D01*
X98864589Y-77678010D01*
X98621368Y-77840525D01*
X98414525Y-78047368D01*
X98298000Y-78221760D01*
X98181475Y-78047368D01*
X97974632Y-77840525D01*
X97731411Y-77678010D01*
X97461158Y-77566068D01*
X97174260Y-77509000D01*
X96881740Y-77509000D01*
X96594842Y-77566068D01*
X96324589Y-77678010D01*
X96081368Y-77840525D01*
X95874525Y-78047368D01*
X95712010Y-78290589D01*
X95600068Y-78560842D01*
X95543000Y-78847740D01*
X95543000Y-79140260D01*
X95600068Y-79427158D01*
X95712010Y-79697411D01*
X95874525Y-79940632D01*
X96081368Y-80147475D01*
X96255760Y-80264000D01*
X96081368Y-80380525D01*
X95874525Y-80587368D01*
X95712010Y-80830589D01*
X95600068Y-81100842D01*
X95543000Y-81387740D01*
X95543000Y-81680260D01*
X95600068Y-81967158D01*
X95712010Y-82237411D01*
X95874525Y-82480632D01*
X96081368Y-82687475D01*
X96324589Y-82849990D01*
X96594842Y-82961932D01*
X96881740Y-83019000D01*
X97174260Y-83019000D01*
X97443002Y-82965544D01*
X97443001Y-86024791D01*
X97384226Y-86064063D01*
X97240063Y-86208226D01*
X97126795Y-86377744D01*
X97048774Y-86566102D01*
X97009000Y-86766061D01*
X97009000Y-86969939D01*
X97048774Y-87169898D01*
X97126275Y-87357000D01*
X96926061Y-87357000D01*
X96726102Y-87396774D01*
X96537744Y-87474795D01*
X96368226Y-87588063D01*
X96224063Y-87732226D01*
X96110795Y-87901744D01*
X96032774Y-88090102D01*
X95993000Y-88290061D01*
X95993000Y-88493939D01*
X96032774Y-88693898D01*
X96110795Y-88882256D01*
X96224063Y-89051774D01*
X96268001Y-89095712D01*
X96268000Y-98229289D01*
X96224063Y-98273226D01*
X96110795Y-98442744D01*
X96032774Y-98631102D01*
X95993000Y-98831061D01*
X95993000Y-99034939D01*
X96032774Y-99234898D01*
X96110795Y-99423256D01*
X96224063Y-99592774D01*
X96368226Y-99736937D01*
X96537744Y-99850205D01*
X96726102Y-99928226D01*
X96926061Y-99968000D01*
X97129939Y-99968000D01*
X97329898Y-99928226D01*
X97518256Y-99850205D01*
X97687774Y-99736937D01*
X97831937Y-99592774D01*
X97945205Y-99423256D01*
X98023226Y-99234898D01*
X98063000Y-99034939D01*
X98063000Y-98831061D01*
X98023226Y-98631102D01*
X97945205Y-98442744D01*
X97831937Y-98273226D01*
X97788000Y-98229289D01*
X97788000Y-89095711D01*
X97831937Y-89051774D01*
X97945205Y-88882256D01*
X98023226Y-88693898D01*
X98063000Y-88493939D01*
X98063000Y-88290061D01*
X98023226Y-88090102D01*
X97945725Y-87903000D01*
X98145939Y-87903000D01*
X98345898Y-87863226D01*
X98534256Y-87785205D01*
X98703774Y-87671937D01*
X98847937Y-87527774D01*
X98961205Y-87358256D01*
X99039226Y-87169898D01*
X99079000Y-86969939D01*
X99079000Y-86766061D01*
X99039226Y-86566102D01*
X98963001Y-86382080D01*
X98963001Y-82890699D01*
X99060883Y-82937371D01*
X99344411Y-83009339D01*
X99636531Y-83024611D01*
X99926019Y-82982599D01*
X99983001Y-82962412D01*
X99983002Y-86558010D01*
X99974061Y-86558010D01*
X99774102Y-86597784D01*
X99585744Y-86675805D01*
X99416226Y-86789073D01*
X99272063Y-86933236D01*
X99158795Y-87102754D01*
X99080774Y-87291112D01*
X99041000Y-87491071D01*
X99041000Y-87694949D01*
X99080774Y-87894908D01*
X99158795Y-88083266D01*
X99272063Y-88252784D01*
X99416226Y-88396947D01*
X99585744Y-88510215D01*
X99774102Y-88588236D01*
X99955952Y-88624408D01*
X99969774Y-88693898D01*
X100047795Y-88882256D01*
X100161063Y-89051774D01*
X100205001Y-89095712D01*
X100205000Y-98229289D01*
X100161063Y-98273226D01*
X100047795Y-98442744D01*
X99969774Y-98631102D01*
X99930000Y-98831061D01*
X99930000Y-99034939D01*
X99969774Y-99234898D01*
X100047795Y-99423256D01*
X100161063Y-99592774D01*
X100305226Y-99736937D01*
X100474744Y-99850205D01*
X100663102Y-99928226D01*
X100863061Y-99968000D01*
X101066939Y-99968000D01*
X101266898Y-99928226D01*
X101455256Y-99850205D01*
X101624774Y-99736937D01*
X101768937Y-99592774D01*
X101882205Y-99423256D01*
X101960226Y-99234898D01*
X102000000Y-99034939D01*
X102000000Y-98831061D01*
X101960226Y-98631102D01*
X101882205Y-98442744D01*
X101768937Y-98273226D01*
X101725000Y-98229289D01*
X101725000Y-89095711D01*
X101768937Y-89051774D01*
X101882205Y-88882256D01*
X101960226Y-88693898D01*
X102000000Y-88493939D01*
X102000000Y-88290061D01*
X101960226Y-88090102D01*
X101882205Y-87901744D01*
X101768937Y-87732226D01*
X101624774Y-87588063D01*
X101455256Y-87474795D01*
X101321322Y-87419317D01*
X101377975Y-87350285D01*
X101448547Y-87218256D01*
X101492004Y-87074995D01*
X101503001Y-86963342D01*
X101503001Y-86963332D01*
X101506677Y-86926009D01*
X101503001Y-86888686D01*
X101503001Y-86565536D01*
X101617744Y-86642205D01*
X101806102Y-86720226D01*
X102006061Y-86760000D01*
X102209939Y-86760000D01*
X102409898Y-86720226D01*
X102491001Y-86686632D01*
X102491000Y-87688289D01*
X102447063Y-87732226D01*
X102333795Y-87901744D01*
X102255774Y-88090102D01*
X102216000Y-88290061D01*
X102216000Y-88493939D01*
X102255774Y-88693898D01*
X102333795Y-88882256D01*
X102447063Y-89051774D01*
X102591226Y-89195937D01*
X102760744Y-89309205D01*
X102949102Y-89387226D01*
X103149061Y-89427000D01*
X103352939Y-89427000D01*
X103552898Y-89387226D01*
X103741256Y-89309205D01*
X103910774Y-89195937D01*
X104054937Y-89051774D01*
X104076500Y-89019503D01*
X104098063Y-89051774D01*
X104142000Y-89095711D01*
X104142001Y-98229288D01*
X104098063Y-98273226D01*
X103984795Y-98442744D01*
X103906774Y-98631102D01*
X103867000Y-98831061D01*
X103867000Y-99034939D01*
X103906774Y-99234898D01*
X103984795Y-99423256D01*
X104098063Y-99592774D01*
X104242226Y-99736937D01*
X104411744Y-99850205D01*
X104600102Y-99928226D01*
X104800061Y-99968000D01*
X105003939Y-99968000D01*
X105203898Y-99928226D01*
X105392256Y-99850205D01*
X105561774Y-99736937D01*
X105705937Y-99592774D01*
X105819205Y-99423256D01*
X105897226Y-99234898D01*
X105937000Y-99034939D01*
X105937000Y-98831061D01*
X105897226Y-98631102D01*
X105819205Y-98442744D01*
X105705937Y-98273226D01*
X105662000Y-98229289D01*
X105662000Y-89095711D01*
X105705937Y-89051774D01*
X105819205Y-88882256D01*
X105897226Y-88693898D01*
X105903388Y-88662922D01*
X106092898Y-88625226D01*
X106281256Y-88547205D01*
X106450774Y-88433937D01*
X106594650Y-88290061D01*
X107804000Y-88290061D01*
X107804000Y-88493939D01*
X107843774Y-88693898D01*
X107921795Y-88882256D01*
X108035063Y-89051774D01*
X108079001Y-89095712D01*
X108079000Y-98229289D01*
X108035063Y-98273226D01*
X107921795Y-98442744D01*
X107843774Y-98631102D01*
X107804000Y-98831061D01*
X107804000Y-99034939D01*
X107843774Y-99234898D01*
X107921795Y-99423256D01*
X108035063Y-99592774D01*
X108179226Y-99736937D01*
X108348744Y-99850205D01*
X108537102Y-99928226D01*
X108737061Y-99968000D01*
X108940939Y-99968000D01*
X109140898Y-99928226D01*
X109329256Y-99850205D01*
X109498774Y-99736937D01*
X109642937Y-99592774D01*
X109756205Y-99423256D01*
X109834226Y-99234898D01*
X109874000Y-99034939D01*
X109874000Y-98831061D01*
X109834226Y-98631102D01*
X109756205Y-98442744D01*
X109642937Y-98273226D01*
X109599000Y-98229289D01*
X109599000Y-89095711D01*
X109642937Y-89051774D01*
X109756205Y-88882256D01*
X109834226Y-88693898D01*
X109874000Y-88493939D01*
X109874000Y-88290061D01*
X111741000Y-88290061D01*
X111741000Y-88493939D01*
X111780774Y-88693898D01*
X111858795Y-88882256D01*
X111972063Y-89051774D01*
X112016000Y-89095711D01*
X112016001Y-98229288D01*
X111972063Y-98273226D01*
X111858795Y-98442744D01*
X111780774Y-98631102D01*
X111741000Y-98831061D01*
X111741000Y-99034939D01*
X111780774Y-99234898D01*
X111858795Y-99423256D01*
X111972063Y-99592774D01*
X112116226Y-99736937D01*
X112285744Y-99850205D01*
X112474102Y-99928226D01*
X112674061Y-99968000D01*
X112877939Y-99968000D01*
X113077898Y-99928226D01*
X113266256Y-99850205D01*
X113435774Y-99736937D01*
X113579937Y-99592774D01*
X113693205Y-99423256D01*
X113771226Y-99234898D01*
X113811000Y-99034939D01*
X113811000Y-98831061D01*
X113771226Y-98631102D01*
X113693205Y-98442744D01*
X113579937Y-98273226D01*
X113536000Y-98229289D01*
X113536000Y-89095711D01*
X113579937Y-89051774D01*
X113693205Y-88882256D01*
X113771226Y-88693898D01*
X113811000Y-88493939D01*
X113811000Y-88290061D01*
X115678000Y-88290061D01*
X115678000Y-88493939D01*
X115717774Y-88693898D01*
X115795795Y-88882256D01*
X115909063Y-89051774D01*
X115953001Y-89095712D01*
X115953000Y-98229289D01*
X115909063Y-98273226D01*
X115795795Y-98442744D01*
X115717774Y-98631102D01*
X115678000Y-98831061D01*
X115678000Y-99034939D01*
X115717774Y-99234898D01*
X115795795Y-99423256D01*
X115909063Y-99592774D01*
X116053226Y-99736937D01*
X116222744Y-99850205D01*
X116411102Y-99928226D01*
X116611061Y-99968000D01*
X116814939Y-99968000D01*
X117014898Y-99928226D01*
X117203256Y-99850205D01*
X117372774Y-99736937D01*
X117516937Y-99592774D01*
X117630205Y-99423256D01*
X117708226Y-99234898D01*
X117748000Y-99034939D01*
X117748000Y-98831061D01*
X117708226Y-98631102D01*
X117630205Y-98442744D01*
X117516937Y-98273226D01*
X117473000Y-98229289D01*
X117473000Y-89095711D01*
X117516937Y-89051774D01*
X117630205Y-88882256D01*
X117708226Y-88693898D01*
X117748000Y-88493939D01*
X117748000Y-88290061D01*
X119615000Y-88290061D01*
X119615000Y-88493939D01*
X119654774Y-88693898D01*
X119732795Y-88882256D01*
X119846063Y-89051774D01*
X119890000Y-89095711D01*
X119890001Y-98229288D01*
X119846063Y-98273226D01*
X119732795Y-98442744D01*
X119654774Y-98631102D01*
X119615000Y-98831061D01*
X119615000Y-99034939D01*
X119654774Y-99234898D01*
X119732795Y-99423256D01*
X119846063Y-99592774D01*
X119990226Y-99736937D01*
X120159744Y-99850205D01*
X120348102Y-99928226D01*
X120548061Y-99968000D01*
X120751939Y-99968000D01*
X120951898Y-99928226D01*
X121140256Y-99850205D01*
X121309774Y-99736937D01*
X121453937Y-99592774D01*
X121567205Y-99423256D01*
X121645226Y-99234898D01*
X121685000Y-99034939D01*
X121685000Y-98831061D01*
X121645226Y-98631102D01*
X121567205Y-98442744D01*
X121453937Y-98273226D01*
X121410000Y-98229289D01*
X121410000Y-89095711D01*
X121453937Y-89051774D01*
X121567205Y-88882256D01*
X121645226Y-88693898D01*
X121685000Y-88493939D01*
X121685000Y-88290061D01*
X123552000Y-88290061D01*
X123552000Y-88493939D01*
X123591774Y-88693898D01*
X123669795Y-88882256D01*
X123783063Y-89051774D01*
X123827001Y-89095712D01*
X123827000Y-98229289D01*
X123783063Y-98273226D01*
X123669795Y-98442744D01*
X123591774Y-98631102D01*
X123552000Y-98831061D01*
X123552000Y-99034939D01*
X123591774Y-99234898D01*
X123669795Y-99423256D01*
X123783063Y-99592774D01*
X123927226Y-99736937D01*
X124096744Y-99850205D01*
X124285102Y-99928226D01*
X124485061Y-99968000D01*
X124688939Y-99968000D01*
X124888898Y-99928226D01*
X125077256Y-99850205D01*
X125246774Y-99736937D01*
X125390937Y-99592774D01*
X125504205Y-99423256D01*
X125582226Y-99234898D01*
X125622000Y-99034939D01*
X125622000Y-98831061D01*
X125582226Y-98631102D01*
X125504205Y-98442744D01*
X125390937Y-98273226D01*
X125347000Y-98229289D01*
X125347000Y-89095711D01*
X125390937Y-89051774D01*
X125504205Y-88882256D01*
X125582226Y-88693898D01*
X125622000Y-88493939D01*
X125622000Y-88290061D01*
X125582226Y-88090102D01*
X125504205Y-87901744D01*
X125390937Y-87732226D01*
X125246774Y-87588063D01*
X125077256Y-87474795D01*
X124888898Y-87396774D01*
X124688939Y-87357000D01*
X124485061Y-87357000D01*
X124285102Y-87396774D01*
X124096744Y-87474795D01*
X123927226Y-87588063D01*
X123783063Y-87732226D01*
X123669795Y-87901744D01*
X123591774Y-88090102D01*
X123552000Y-88290061D01*
X121685000Y-88290061D01*
X121645226Y-88090102D01*
X121567205Y-87901744D01*
X121453937Y-87732226D01*
X121309774Y-87588063D01*
X121140256Y-87474795D01*
X120951898Y-87396774D01*
X120751939Y-87357000D01*
X120548061Y-87357000D01*
X120348102Y-87396774D01*
X120159744Y-87474795D01*
X119990226Y-87588063D01*
X119846063Y-87732226D01*
X119732795Y-87901744D01*
X119654774Y-88090102D01*
X119615000Y-88290061D01*
X117748000Y-88290061D01*
X117708226Y-88090102D01*
X117630205Y-87901744D01*
X117516937Y-87732226D01*
X117372774Y-87588063D01*
X117203256Y-87474795D01*
X117014898Y-87396774D01*
X116814939Y-87357000D01*
X116611061Y-87357000D01*
X116411102Y-87396774D01*
X116222744Y-87474795D01*
X116053226Y-87588063D01*
X115909063Y-87732226D01*
X115795795Y-87901744D01*
X115717774Y-88090102D01*
X115678000Y-88290061D01*
X113811000Y-88290061D01*
X113771226Y-88090102D01*
X113693205Y-87901744D01*
X113579937Y-87732226D01*
X113435774Y-87588063D01*
X113266256Y-87474795D01*
X113077898Y-87396774D01*
X112877939Y-87357000D01*
X112674061Y-87357000D01*
X112474102Y-87396774D01*
X112285744Y-87474795D01*
X112116226Y-87588063D01*
X111972063Y-87732226D01*
X111858795Y-87901744D01*
X111780774Y-88090102D01*
X111741000Y-88290061D01*
X109874000Y-88290061D01*
X109834226Y-88090102D01*
X109756205Y-87901744D01*
X109642937Y-87732226D01*
X109498774Y-87588063D01*
X109329256Y-87474795D01*
X109140898Y-87396774D01*
X108940939Y-87357000D01*
X108737061Y-87357000D01*
X108537102Y-87396774D01*
X108348744Y-87474795D01*
X108179226Y-87588063D01*
X108035063Y-87732226D01*
X107921795Y-87901744D01*
X107843774Y-88090102D01*
X107804000Y-88290061D01*
X106594650Y-88290061D01*
X106594937Y-88289774D01*
X106708205Y-88120256D01*
X106786226Y-87931898D01*
X106826000Y-87731939D01*
X106826000Y-87528061D01*
X106786226Y-87328102D01*
X106708205Y-87139744D01*
X106594937Y-86970226D01*
X106551000Y-86926289D01*
X106551000Y-86745172D01*
X106697744Y-86843223D01*
X106886102Y-86921244D01*
X107086061Y-86961018D01*
X107289939Y-86961018D01*
X107489898Y-86921244D01*
X107678256Y-86843223D01*
X107847774Y-86729955D01*
X107991937Y-86585792D01*
X108105205Y-86416274D01*
X108183226Y-86227916D01*
X108223000Y-86027957D01*
X108223000Y-85824079D01*
X108200934Y-85713144D01*
X108356061Y-85744000D01*
X108559939Y-85744000D01*
X108759898Y-85704226D01*
X108948256Y-85626205D01*
X109117774Y-85512937D01*
X109261937Y-85368774D01*
X109375205Y-85199256D01*
X109453226Y-85010898D01*
X109493000Y-84810939D01*
X109493000Y-84607061D01*
X109453226Y-84407102D01*
X109375205Y-84218744D01*
X109261937Y-84049226D01*
X109218000Y-84005289D01*
X109218000Y-82930103D01*
X109294842Y-82961932D01*
X109581740Y-83019000D01*
X109874260Y-83019000D01*
X110161158Y-82961932D01*
X110431411Y-82849990D01*
X110674632Y-82687475D01*
X110799710Y-82562397D01*
X111419208Y-82562397D01*
X111496843Y-82811472D01*
X111760883Y-82937371D01*
X112044411Y-83009339D01*
X112336531Y-83024611D01*
X112626019Y-82982599D01*
X112901747Y-82884919D01*
X113039157Y-82811472D01*
X113116792Y-82562397D01*
X112268000Y-81713605D01*
X111419208Y-82562397D01*
X110799710Y-82562397D01*
X110881475Y-82480632D01*
X110997311Y-82307271D01*
X111239603Y-82382792D01*
X112088395Y-81534000D01*
X111239603Y-80685208D01*
X110997311Y-80760729D01*
X110881475Y-80587368D01*
X110674632Y-80380525D01*
X110500240Y-80264000D01*
X110674632Y-80147475D01*
X110881475Y-79940632D01*
X110998000Y-79766240D01*
X111114525Y-79940632D01*
X111321368Y-80147475D01*
X111494729Y-80263311D01*
X111419208Y-80505603D01*
X112268000Y-81354395D01*
X112282143Y-81340253D01*
X112461748Y-81519858D01*
X112447605Y-81534000D01*
X113296397Y-82382792D01*
X113538689Y-82307271D01*
X113654525Y-82480632D01*
X113861368Y-82687475D01*
X114104589Y-82849990D01*
X114374842Y-82961932D01*
X114661740Y-83019000D01*
X114954260Y-83019000D01*
X115241158Y-82961932D01*
X115511411Y-82849990D01*
X115754632Y-82687475D01*
X115879710Y-82562397D01*
X116499208Y-82562397D01*
X116576843Y-82811472D01*
X116840883Y-82937371D01*
X117124411Y-83009339D01*
X117416531Y-83024611D01*
X117706019Y-82982599D01*
X117981747Y-82884919D01*
X118119157Y-82811472D01*
X118196792Y-82562397D01*
X117348000Y-81713605D01*
X116499208Y-82562397D01*
X115879710Y-82562397D01*
X115961475Y-82480632D01*
X116077311Y-82307271D01*
X116319603Y-82382792D01*
X117168395Y-81534000D01*
X116319603Y-80685208D01*
X116077311Y-80760729D01*
X115961475Y-80587368D01*
X115754632Y-80380525D01*
X115580240Y-80264000D01*
X115754632Y-80147475D01*
X115961475Y-79940632D01*
X116078000Y-79766240D01*
X116194525Y-79940632D01*
X116401368Y-80147475D01*
X116574729Y-80263311D01*
X116499208Y-80505603D01*
X117348000Y-81354395D01*
X117362143Y-81340253D01*
X117541748Y-81519858D01*
X117527605Y-81534000D01*
X118376397Y-82382792D01*
X118618689Y-82307271D01*
X118734525Y-82480632D01*
X118941368Y-82687475D01*
X119184589Y-82849990D01*
X119454842Y-82961932D01*
X119741740Y-83019000D01*
X120034260Y-83019000D01*
X120321158Y-82961932D01*
X120591411Y-82849990D01*
X120834632Y-82687475D01*
X121041475Y-82480632D01*
X121203990Y-82237411D01*
X121315932Y-81967158D01*
X121373000Y-81680260D01*
X121373000Y-81387740D01*
X121315932Y-81100842D01*
X121203990Y-80830589D01*
X121041475Y-80587368D01*
X120854392Y-80400285D01*
X120981386Y-80332405D01*
X121115962Y-80221962D01*
X121226405Y-80087386D01*
X121308472Y-79933850D01*
X121359008Y-79767254D01*
X121376072Y-79594000D01*
X121376072Y-78394000D01*
X121359008Y-78220746D01*
X121308472Y-78054150D01*
X121226405Y-77900614D01*
X121115962Y-77766038D01*
X120981386Y-77655595D01*
X120827850Y-77573528D01*
X120661254Y-77522992D01*
X120488000Y-77505928D01*
X119474730Y-77505928D01*
X112630731Y-70661930D01*
X112901747Y-70565919D01*
X113039157Y-70492472D01*
X113116792Y-70243397D01*
X112268000Y-69394605D01*
X112253858Y-69408748D01*
X112074253Y-69229143D01*
X112088395Y-69215000D01*
X111239603Y-68366208D01*
X110997311Y-68441729D01*
X110881475Y-68268368D01*
X110674632Y-68061525D01*
X110500240Y-67945000D01*
X110674632Y-67828475D01*
X110881475Y-67621632D01*
X110998000Y-67447240D01*
X111114525Y-67621632D01*
X111321368Y-67828475D01*
X111494729Y-67944311D01*
X111419208Y-68186603D01*
X112268000Y-69035395D01*
X113116792Y-68186603D01*
X113041271Y-67944311D01*
X113214632Y-67828475D01*
X113421475Y-67621632D01*
X113538000Y-67447240D01*
X113654525Y-67621632D01*
X113861368Y-67828475D01*
X114035760Y-67945000D01*
X113861368Y-68061525D01*
X113654525Y-68268368D01*
X113538689Y-68441729D01*
X113296397Y-68366208D01*
X112447605Y-69215000D01*
X113296397Y-70063792D01*
X113538689Y-69988271D01*
X113654525Y-70161632D01*
X113861368Y-70368475D01*
X114104589Y-70530990D01*
X114374842Y-70642932D01*
X114661740Y-70700000D01*
X114954260Y-70700000D01*
X115241158Y-70642932D01*
X115511411Y-70530990D01*
X115754632Y-70368475D01*
X115879710Y-70243397D01*
X116499208Y-70243397D01*
X116576843Y-70492472D01*
X116840883Y-70618371D01*
X117124411Y-70690339D01*
X117416531Y-70705611D01*
X117706019Y-70663599D01*
X117981747Y-70565919D01*
X118119157Y-70492472D01*
X118196792Y-70243397D01*
X117348000Y-69394605D01*
X116499208Y-70243397D01*
X115879710Y-70243397D01*
X115961475Y-70161632D01*
X116077311Y-69988271D01*
X116319603Y-70063792D01*
X117168395Y-69215000D01*
X116319603Y-68366208D01*
X116077311Y-68441729D01*
X115961475Y-68268368D01*
X115754632Y-68061525D01*
X115580240Y-67945000D01*
X115754632Y-67828475D01*
X115961475Y-67621632D01*
X116078000Y-67447240D01*
X116194525Y-67621632D01*
X116401368Y-67828475D01*
X116574729Y-67944311D01*
X116499208Y-68186603D01*
X117348000Y-69035395D01*
X118196792Y-68186603D01*
X118121271Y-67944311D01*
X118294632Y-67828475D01*
X118481715Y-67641392D01*
X118549595Y-67768386D01*
X118660038Y-67902962D01*
X118794614Y-68013405D01*
X118921608Y-68081285D01*
X118734525Y-68268368D01*
X118618689Y-68441729D01*
X118376397Y-68366208D01*
X117527605Y-69215000D01*
X118376397Y-70063792D01*
X118618689Y-69988271D01*
X118734525Y-70161632D01*
X118941368Y-70368475D01*
X119184589Y-70530990D01*
X119454842Y-70642932D01*
X119741740Y-70700000D01*
X120034260Y-70700000D01*
X120321158Y-70642932D01*
X120591411Y-70530990D01*
X120834632Y-70368475D01*
X121041475Y-70161632D01*
X121203990Y-69918411D01*
X121315932Y-69648158D01*
X121373000Y-69361260D01*
X121373000Y-69068740D01*
X121315932Y-68781842D01*
X121203990Y-68511589D01*
X121041475Y-68268368D01*
X120854392Y-68081285D01*
X120981386Y-68013405D01*
X121115962Y-67902962D01*
X121226405Y-67768386D01*
X121308472Y-67614850D01*
X121359008Y-67448254D01*
X121376072Y-67275000D01*
X121376072Y-66075000D01*
X121359008Y-65901746D01*
X121308472Y-65735150D01*
X121226405Y-65581614D01*
X121115962Y-65447038D01*
X120981386Y-65336595D01*
X120827850Y-65254528D01*
X120661254Y-65203992D01*
X120488000Y-65186928D01*
X119288000Y-65186928D01*
X119114746Y-65203992D01*
X118948150Y-65254528D01*
X118794614Y-65336595D01*
X118660038Y-65447038D01*
X118549595Y-65581614D01*
X118481715Y-65708608D01*
X118294632Y-65521525D01*
X118051411Y-65359010D01*
X117781158Y-65247068D01*
X117494260Y-65190000D01*
X117201740Y-65190000D01*
X116914842Y-65247068D01*
X116644589Y-65359010D01*
X116401368Y-65521525D01*
X116194525Y-65728368D01*
X116078000Y-65902760D01*
X115961475Y-65728368D01*
X115754632Y-65521525D01*
X115511411Y-65359010D01*
X115241158Y-65247068D01*
X114954260Y-65190000D01*
X114661740Y-65190000D01*
X114374842Y-65247068D01*
X114104589Y-65359010D01*
X113861368Y-65521525D01*
X113654525Y-65728368D01*
X113538000Y-65902760D01*
X113421475Y-65728368D01*
X113214632Y-65521525D01*
X112971411Y-65359010D01*
X112701158Y-65247068D01*
X112414260Y-65190000D01*
X112121740Y-65190000D01*
X111834842Y-65247068D01*
X111564589Y-65359010D01*
X111321368Y-65521525D01*
X111114525Y-65728368D01*
X110998000Y-65902760D01*
X110881475Y-65728368D01*
X110674632Y-65521525D01*
X110431411Y-65359010D01*
X110161158Y-65247068D01*
X109874260Y-65190000D01*
X109581740Y-65190000D01*
X109294842Y-65247068D01*
X109024589Y-65359010D01*
X108781368Y-65521525D01*
X108574525Y-65728368D01*
X108458000Y-65902760D01*
X108341475Y-65728368D01*
X108134632Y-65521525D01*
X107891411Y-65359010D01*
X107621158Y-65247068D01*
X107334260Y-65190000D01*
X107041740Y-65190000D01*
X106754842Y-65247068D01*
X106484589Y-65359010D01*
X106241368Y-65521525D01*
X106034525Y-65728368D01*
X105918000Y-65902760D01*
X105801475Y-65728368D01*
X105594632Y-65521525D01*
X105351411Y-65359010D01*
X105081158Y-65247068D01*
X104794260Y-65190000D01*
X104501740Y-65190000D01*
X104214842Y-65247068D01*
X103944589Y-65359010D01*
X103701368Y-65521525D01*
X103494525Y-65728368D01*
X103378000Y-65902760D01*
X103261475Y-65728368D01*
X103054632Y-65521525D01*
X102811411Y-65359010D01*
X102541158Y-65247068D01*
X102254260Y-65190000D01*
X101961740Y-65190000D01*
X101674842Y-65247068D01*
X101404589Y-65359010D01*
X101161368Y-65521525D01*
X100954525Y-65728368D01*
X100838000Y-65902760D01*
X100721475Y-65728368D01*
X100514632Y-65521525D01*
X100271411Y-65359010D01*
X100001158Y-65247068D01*
X99714260Y-65190000D01*
X99421740Y-65190000D01*
X99134842Y-65247068D01*
X98864589Y-65359010D01*
X98621368Y-65521525D01*
X98414525Y-65728368D01*
X98298000Y-65902760D01*
X98181475Y-65728368D01*
X97974632Y-65521525D01*
X97731411Y-65359010D01*
X97461158Y-65247068D01*
X97174260Y-65190000D01*
X96881740Y-65190000D01*
X96594842Y-65247068D01*
X96324589Y-65359010D01*
X96081368Y-65521525D01*
X95874525Y-65728368D01*
X95712010Y-65971589D01*
X95600068Y-66241842D01*
X95543000Y-66528740D01*
X83083000Y-66528740D01*
X83083000Y-63787872D01*
X84252000Y-63787872D01*
X84252000Y-64228128D01*
X84337890Y-64659925D01*
X84506369Y-65066669D01*
X84750962Y-65432729D01*
X85062271Y-65744038D01*
X85428331Y-65988631D01*
X85835075Y-66157110D01*
X86266872Y-66243000D01*
X86707128Y-66243000D01*
X87138925Y-66157110D01*
X87545669Y-65988631D01*
X87911729Y-65744038D01*
X88223038Y-65432729D01*
X88467631Y-65066669D01*
X88636110Y-64659925D01*
X88722000Y-64228128D01*
X88722000Y-63787872D01*
X132512000Y-63787872D01*
X132512000Y-64228128D01*
X132597890Y-64659925D01*
X132766369Y-65066669D01*
X133010962Y-65432729D01*
X133322271Y-65744038D01*
X133688331Y-65988631D01*
X134095075Y-66157110D01*
X134526872Y-66243000D01*
X134967128Y-66243000D01*
X135398925Y-66157110D01*
X135805669Y-65988631D01*
X136171729Y-65744038D01*
X136483038Y-65432729D01*
X136727631Y-65066669D01*
X136896110Y-64659925D01*
X136982000Y-64228128D01*
X136982000Y-63787872D01*
X136896110Y-63356075D01*
X136727631Y-62949331D01*
X136483038Y-62583271D01*
X136171729Y-62271962D01*
X135805669Y-62027369D01*
X135398925Y-61858890D01*
X134967128Y-61773000D01*
X134526872Y-61773000D01*
X134095075Y-61858890D01*
X133688331Y-62027369D01*
X133322271Y-62271962D01*
X133010962Y-62583271D01*
X132766369Y-62949331D01*
X132597890Y-63356075D01*
X132512000Y-63787872D01*
X88722000Y-63787872D01*
X88636110Y-63356075D01*
X88467631Y-62949331D01*
X88223038Y-62583271D01*
X87911729Y-62271962D01*
X87545669Y-62027369D01*
X87138925Y-61858890D01*
X86707128Y-61773000D01*
X86266872Y-61773000D01*
X85835075Y-61858890D01*
X85428331Y-62027369D01*
X85062271Y-62271962D01*
X84750962Y-62583271D01*
X84506369Y-62949331D01*
X84337890Y-63356075D01*
X84252000Y-63787872D01*
X83083000Y-63787872D01*
X83083000Y-60604000D01*
X138151000Y-60604000D01*
X138151001Y-138024000D01*
G36*
X104140883Y-82937371D02*
G01*
X104424411Y-83009339D01*
X104716531Y-83024611D01*
X105006019Y-82982599D01*
X105063001Y-82962412D01*
X105063001Y-83347774D01*
X105041998Y-83417015D01*
X105027324Y-83566000D01*
X105031001Y-83603332D01*
X105031000Y-86926289D01*
X104987063Y-86970226D01*
X104873795Y-87139744D01*
X104795774Y-87328102D01*
X104789612Y-87359078D01*
X104600102Y-87396774D01*
X104411744Y-87474795D01*
X104242226Y-87588063D01*
X104098063Y-87732226D01*
X104076500Y-87764497D01*
X104054937Y-87732226D01*
X104011000Y-87688289D01*
X104011000Y-85276227D01*
X104032004Y-85206985D01*
X104043001Y-85095332D01*
X104043001Y-85095322D01*
X104046677Y-85058000D01*
X104043001Y-85020677D01*
X104043001Y-82890699D01*
X104140883Y-82937371D01*
G37*
X104140883Y-82937371D02*
X104424411Y-83009339D01*
X104716531Y-83024611D01*
X105006019Y-82982599D01*
X105063001Y-82962412D01*
X105063001Y-83347774D01*
X105041998Y-83417015D01*
X105027324Y-83566000D01*
X105031001Y-83603332D01*
X105031000Y-86926289D01*
X104987063Y-86970226D01*
X104873795Y-87139744D01*
X104795774Y-87328102D01*
X104789612Y-87359078D01*
X104600102Y-87396774D01*
X104411744Y-87474795D01*
X104242226Y-87588063D01*
X104098063Y-87732226D01*
X104076500Y-87764497D01*
X104054937Y-87732226D01*
X104011000Y-87688289D01*
X104011000Y-85276227D01*
X104032004Y-85206985D01*
X104043001Y-85095332D01*
X104043001Y-85095322D01*
X104046677Y-85058000D01*
X104043001Y-85020677D01*
X104043001Y-82890699D01*
X104140883Y-82937371D01*
G36*
X99761748Y-81519858D02*
G01*
X99747605Y-81534000D01*
X99761748Y-81548143D01*
X99582143Y-81727748D01*
X99568000Y-81713605D01*
X99553858Y-81727748D01*
X99374253Y-81548143D01*
X99388395Y-81534000D01*
X99374253Y-81519858D01*
X99553858Y-81340253D01*
X99568000Y-81354395D01*
X99582143Y-81340253D01*
X99761748Y-81519858D01*
G37*
X99761748Y-81519858D02*
X99747605Y-81534000D01*
X99761748Y-81548143D01*
X99582143Y-81727748D01*
X99568000Y-81713605D01*
X99553858Y-81727748D01*
X99374253Y-81548143D01*
X99388395Y-81534000D01*
X99374253Y-81519858D01*
X99553858Y-81340253D01*
X99568000Y-81354395D01*
X99582143Y-81340253D01*
X99761748Y-81519858D01*
G36*
X104841748Y-81519858D02*
G01*
X104827605Y-81534000D01*
X104841748Y-81548143D01*
X104662143Y-81727748D01*
X104648000Y-81713605D01*
X104633858Y-81727748D01*
X104454253Y-81548143D01*
X104468395Y-81534000D01*
X104454253Y-81519858D01*
X104633858Y-81340253D01*
X104648000Y-81354395D01*
X104662143Y-81340253D01*
X104841748Y-81519858D01*
G37*
X104841748Y-81519858D02*
X104827605Y-81534000D01*
X104841748Y-81548143D01*
X104662143Y-81727748D01*
X104648000Y-81713605D01*
X104633858Y-81727748D01*
X104454253Y-81548143D01*
X104468395Y-81534000D01*
X104454253Y-81519858D01*
X104633858Y-81340253D01*
X104648000Y-81354395D01*
X104662143Y-81340253D01*
X104841748Y-81519858D01*
G36*
X116428186Y-76608988D02*
G01*
X115656790Y-76608988D01*
X110546801Y-71499000D01*
X111318199Y-71499000D01*
X116428186Y-76608988D01*
G37*
X116428186Y-76608988D02*
X115656790Y-76608988D01*
X110546801Y-71499000D01*
X111318199Y-71499000D01*
X116428186Y-76608988D01*
G36*
X106688184Y-76608988D02*
G01*
X106297788Y-76608988D01*
X100236267Y-70547468D01*
X100339157Y-70492472D01*
X100394408Y-70315211D01*
X106688184Y-76608988D01*
G37*
X106688184Y-76608988D02*
X106297788Y-76608988D01*
X100236267Y-70547468D01*
X100339157Y-70492472D01*
X100394408Y-70315211D01*
X106688184Y-76608988D01*
G36*
X110097178Y-76158977D02*
G01*
X108387777Y-76158977D01*
X108045800Y-75817000D01*
X109755201Y-75817000D01*
X110097178Y-76158977D01*
G37*
X110097178Y-76158977D02*
X108387777Y-76158977D01*
X108045800Y-75817000D01*
X109755201Y-75817000D01*
X110097178Y-76158977D01*
G36*
X109036198Y-74297000D02*
G01*
X108264802Y-74297000D01*
X105567814Y-71600012D01*
X106339211Y-71600012D01*
X109036198Y-74297000D01*
G37*
X109036198Y-74297000D02*
X108264802Y-74297000D01*
X105567814Y-71600012D01*
X106339211Y-71600012D01*
X109036198Y-74297000D01*
G36*
X104841748Y-69200858D02*
G01*
X104827605Y-69215000D01*
X104841748Y-69229143D01*
X104662143Y-69408748D01*
X104648000Y-69394605D01*
X104633858Y-69408748D01*
X104454253Y-69229143D01*
X104468395Y-69215000D01*
X104454253Y-69200858D01*
X104633858Y-69021253D01*
X104648000Y-69035395D01*
X104662143Y-69021253D01*
X104841748Y-69200858D01*
G37*
X104841748Y-69200858D02*
X104827605Y-69215000D01*
X104841748Y-69229143D01*
X104662143Y-69408748D01*
X104648000Y-69394605D01*
X104633858Y-69408748D01*
X104454253Y-69229143D01*
X104468395Y-69215000D01*
X104454253Y-69200858D01*
X104633858Y-69021253D01*
X104648000Y-69035395D01*
X104662143Y-69021253D01*
X104841748Y-69200858D01*
G36*
X99761748Y-69200858D02*
G01*
X99747605Y-69215000D01*
X99761748Y-69229143D01*
X99582143Y-69408748D01*
X99568000Y-69394605D01*
X99553858Y-69408748D01*
X99374253Y-69229143D01*
X99388395Y-69215000D01*
X99374253Y-69200858D01*
X99553858Y-69021253D01*
X99568000Y-69035395D01*
X99582143Y-69021253D01*
X99761748Y-69200858D01*
G37*
X99761748Y-69200858D02*
X99747605Y-69215000D01*
X99761748Y-69229143D01*
X99582143Y-69408748D01*
X99568000Y-69394605D01*
X99553858Y-69408748D01*
X99374253Y-69229143D01*
X99388395Y-69215000D01*
X99374253Y-69200858D01*
X99553858Y-69021253D01*
X99568000Y-69035395D01*
X99582143Y-69021253D01*
X99761748Y-69200858D01*
%TD*%
M02*
