%TF.GenerationSoftware,KiCad,Pcbnew,(5.1.6)-1*%
%TF.CreationDate,2021-03-16T16:30:30+01:00*%
%TF.ProjectId,24v-logic,3234762d-6c6f-4676-9963-2e6b69636164,rev?*%
%TF.SameCoordinates,Original*%
%TF.FileFunction,Paste,Top*%
%TF.FilePolarity,Positive*%
%FSLAX46Y46*%
G04 Gerber Fmt 4.6, Leading zero omitted, Abs format (unit mm)*
G04 Created by KiCad (PCBNEW (5.1.6)-1) date 2021-03-16 16:30:30*
%MOMM*%
%LPD*%
G01*
G04 APERTURE LIST*
%ADD10R,1.100000X1.100000*%
%ADD11R,1.700000X1.300000*%
G04 APERTURE END LIST*
%TO.C,R24*%
G36*
G01*
X123136999Y-113208000D02*
X126037001Y-113208000D01*
G75*
G02*
X126287000Y-113457999I0J-249999D01*
G01*
X126287000Y-114083001D01*
G75*
G02*
X126037001Y-114333000I-249999J0D01*
G01*
X123136999Y-114333000D01*
G75*
G02*
X122887000Y-114083001I0J249999D01*
G01*
X122887000Y-113457999D01*
G75*
G02*
X123136999Y-113208000I249999J0D01*
G01*
G37*
G36*
G01*
X123136999Y-108933000D02*
X126037001Y-108933000D01*
G75*
G02*
X126287000Y-109182999I0J-249999D01*
G01*
X126287000Y-109808001D01*
G75*
G02*
X126037001Y-110058000I-249999J0D01*
G01*
X123136999Y-110058000D01*
G75*
G02*
X122887000Y-109808001I0J249999D01*
G01*
X122887000Y-109182999D01*
G75*
G02*
X123136999Y-108933000I249999J0D01*
G01*
G37*
%TD*%
%TO.C,R23*%
G36*
G01*
X119199999Y-113208000D02*
X122100001Y-113208000D01*
G75*
G02*
X122350000Y-113457999I0J-249999D01*
G01*
X122350000Y-114083001D01*
G75*
G02*
X122100001Y-114333000I-249999J0D01*
G01*
X119199999Y-114333000D01*
G75*
G02*
X118950000Y-114083001I0J249999D01*
G01*
X118950000Y-113457999D01*
G75*
G02*
X119199999Y-113208000I249999J0D01*
G01*
G37*
G36*
G01*
X119199999Y-108933000D02*
X122100001Y-108933000D01*
G75*
G02*
X122350000Y-109182999I0J-249999D01*
G01*
X122350000Y-109808001D01*
G75*
G02*
X122100001Y-110058000I-249999J0D01*
G01*
X119199999Y-110058000D01*
G75*
G02*
X118950000Y-109808001I0J249999D01*
G01*
X118950000Y-109182999D01*
G75*
G02*
X119199999Y-108933000I249999J0D01*
G01*
G37*
%TD*%
%TO.C,R22*%
G36*
G01*
X115262999Y-113208000D02*
X118163001Y-113208000D01*
G75*
G02*
X118413000Y-113457999I0J-249999D01*
G01*
X118413000Y-114083001D01*
G75*
G02*
X118163001Y-114333000I-249999J0D01*
G01*
X115262999Y-114333000D01*
G75*
G02*
X115013000Y-114083001I0J249999D01*
G01*
X115013000Y-113457999D01*
G75*
G02*
X115262999Y-113208000I249999J0D01*
G01*
G37*
G36*
G01*
X115262999Y-108933000D02*
X118163001Y-108933000D01*
G75*
G02*
X118413000Y-109182999I0J-249999D01*
G01*
X118413000Y-109808001D01*
G75*
G02*
X118163001Y-110058000I-249999J0D01*
G01*
X115262999Y-110058000D01*
G75*
G02*
X115013000Y-109808001I0J249999D01*
G01*
X115013000Y-109182999D01*
G75*
G02*
X115262999Y-108933000I249999J0D01*
G01*
G37*
%TD*%
%TO.C,R21*%
G36*
G01*
X111325999Y-113208000D02*
X114226001Y-113208000D01*
G75*
G02*
X114476000Y-113457999I0J-249999D01*
G01*
X114476000Y-114083001D01*
G75*
G02*
X114226001Y-114333000I-249999J0D01*
G01*
X111325999Y-114333000D01*
G75*
G02*
X111076000Y-114083001I0J249999D01*
G01*
X111076000Y-113457999D01*
G75*
G02*
X111325999Y-113208000I249999J0D01*
G01*
G37*
G36*
G01*
X111325999Y-108933000D02*
X114226001Y-108933000D01*
G75*
G02*
X114476000Y-109182999I0J-249999D01*
G01*
X114476000Y-109808001D01*
G75*
G02*
X114226001Y-110058000I-249999J0D01*
G01*
X111325999Y-110058000D01*
G75*
G02*
X111076000Y-109808001I0J249999D01*
G01*
X111076000Y-109182999D01*
G75*
G02*
X111325999Y-108933000I249999J0D01*
G01*
G37*
%TD*%
%TO.C,R20*%
G36*
G01*
X107388999Y-113208000D02*
X110289001Y-113208000D01*
G75*
G02*
X110539000Y-113457999I0J-249999D01*
G01*
X110539000Y-114083001D01*
G75*
G02*
X110289001Y-114333000I-249999J0D01*
G01*
X107388999Y-114333000D01*
G75*
G02*
X107139000Y-114083001I0J249999D01*
G01*
X107139000Y-113457999D01*
G75*
G02*
X107388999Y-113208000I249999J0D01*
G01*
G37*
G36*
G01*
X107388999Y-108933000D02*
X110289001Y-108933000D01*
G75*
G02*
X110539000Y-109182999I0J-249999D01*
G01*
X110539000Y-109808001D01*
G75*
G02*
X110289001Y-110058000I-249999J0D01*
G01*
X107388999Y-110058000D01*
G75*
G02*
X107139000Y-109808001I0J249999D01*
G01*
X107139000Y-109182999D01*
G75*
G02*
X107388999Y-108933000I249999J0D01*
G01*
G37*
%TD*%
%TO.C,R19*%
G36*
G01*
X103451999Y-113208000D02*
X106352001Y-113208000D01*
G75*
G02*
X106602000Y-113457999I0J-249999D01*
G01*
X106602000Y-114083001D01*
G75*
G02*
X106352001Y-114333000I-249999J0D01*
G01*
X103451999Y-114333000D01*
G75*
G02*
X103202000Y-114083001I0J249999D01*
G01*
X103202000Y-113457999D01*
G75*
G02*
X103451999Y-113208000I249999J0D01*
G01*
G37*
G36*
G01*
X103451999Y-108933000D02*
X106352001Y-108933000D01*
G75*
G02*
X106602000Y-109182999I0J-249999D01*
G01*
X106602000Y-109808001D01*
G75*
G02*
X106352001Y-110058000I-249999J0D01*
G01*
X103451999Y-110058000D01*
G75*
G02*
X103202000Y-109808001I0J249999D01*
G01*
X103202000Y-109182999D01*
G75*
G02*
X103451999Y-108933000I249999J0D01*
G01*
G37*
%TD*%
%TO.C,R18*%
G36*
G01*
X99514999Y-113208000D02*
X102415001Y-113208000D01*
G75*
G02*
X102665000Y-113457999I0J-249999D01*
G01*
X102665000Y-114083001D01*
G75*
G02*
X102415001Y-114333000I-249999J0D01*
G01*
X99514999Y-114333000D01*
G75*
G02*
X99265000Y-114083001I0J249999D01*
G01*
X99265000Y-113457999D01*
G75*
G02*
X99514999Y-113208000I249999J0D01*
G01*
G37*
G36*
G01*
X99514999Y-108933000D02*
X102415001Y-108933000D01*
G75*
G02*
X102665000Y-109182999I0J-249999D01*
G01*
X102665000Y-109808001D01*
G75*
G02*
X102415001Y-110058000I-249999J0D01*
G01*
X99514999Y-110058000D01*
G75*
G02*
X99265000Y-109808001I0J249999D01*
G01*
X99265000Y-109182999D01*
G75*
G02*
X99514999Y-108933000I249999J0D01*
G01*
G37*
%TD*%
%TO.C,R17*%
G36*
G01*
X95577999Y-113208000D02*
X98478001Y-113208000D01*
G75*
G02*
X98728000Y-113457999I0J-249999D01*
G01*
X98728000Y-114083001D01*
G75*
G02*
X98478001Y-114333000I-249999J0D01*
G01*
X95577999Y-114333000D01*
G75*
G02*
X95328000Y-114083001I0J249999D01*
G01*
X95328000Y-113457999D01*
G75*
G02*
X95577999Y-113208000I249999J0D01*
G01*
G37*
G36*
G01*
X95577999Y-108933000D02*
X98478001Y-108933000D01*
G75*
G02*
X98728000Y-109182999I0J-249999D01*
G01*
X98728000Y-109808001D01*
G75*
G02*
X98478001Y-110058000I-249999J0D01*
G01*
X95577999Y-110058000D01*
G75*
G02*
X95328000Y-109808001I0J249999D01*
G01*
X95328000Y-109182999D01*
G75*
G02*
X95577999Y-108933000I249999J0D01*
G01*
G37*
%TD*%
%TO.C,R16*%
G36*
G01*
X123136999Y-99619000D02*
X126037001Y-99619000D01*
G75*
G02*
X126287000Y-99868999I0J-249999D01*
G01*
X126287000Y-100494001D01*
G75*
G02*
X126037001Y-100744000I-249999J0D01*
G01*
X123136999Y-100744000D01*
G75*
G02*
X122887000Y-100494001I0J249999D01*
G01*
X122887000Y-99868999D01*
G75*
G02*
X123136999Y-99619000I249999J0D01*
G01*
G37*
G36*
G01*
X123136999Y-95344000D02*
X126037001Y-95344000D01*
G75*
G02*
X126287000Y-95593999I0J-249999D01*
G01*
X126287000Y-96219001D01*
G75*
G02*
X126037001Y-96469000I-249999J0D01*
G01*
X123136999Y-96469000D01*
G75*
G02*
X122887000Y-96219001I0J249999D01*
G01*
X122887000Y-95593999D01*
G75*
G02*
X123136999Y-95344000I249999J0D01*
G01*
G37*
%TD*%
%TO.C,R15*%
G36*
G01*
X123136999Y-105842000D02*
X126037001Y-105842000D01*
G75*
G02*
X126287000Y-106091999I0J-249999D01*
G01*
X126287000Y-106717001D01*
G75*
G02*
X126037001Y-106967000I-249999J0D01*
G01*
X123136999Y-106967000D01*
G75*
G02*
X122887000Y-106717001I0J249999D01*
G01*
X122887000Y-106091999D01*
G75*
G02*
X123136999Y-105842000I249999J0D01*
G01*
G37*
G36*
G01*
X123136999Y-101567000D02*
X126037001Y-101567000D01*
G75*
G02*
X126287000Y-101816999I0J-249999D01*
G01*
X126287000Y-102442001D01*
G75*
G02*
X126037001Y-102692000I-249999J0D01*
G01*
X123136999Y-102692000D01*
G75*
G02*
X122887000Y-102442001I0J249999D01*
G01*
X122887000Y-101816999D01*
G75*
G02*
X123136999Y-101567000I249999J0D01*
G01*
G37*
%TD*%
%TO.C,R14*%
G36*
G01*
X107388999Y-99619000D02*
X110289001Y-99619000D01*
G75*
G02*
X110539000Y-99868999I0J-249999D01*
G01*
X110539000Y-100494001D01*
G75*
G02*
X110289001Y-100744000I-249999J0D01*
G01*
X107388999Y-100744000D01*
G75*
G02*
X107139000Y-100494001I0J249999D01*
G01*
X107139000Y-99868999D01*
G75*
G02*
X107388999Y-99619000I249999J0D01*
G01*
G37*
G36*
G01*
X107388999Y-95344000D02*
X110289001Y-95344000D01*
G75*
G02*
X110539000Y-95593999I0J-249999D01*
G01*
X110539000Y-96219001D01*
G75*
G02*
X110289001Y-96469000I-249999J0D01*
G01*
X107388999Y-96469000D01*
G75*
G02*
X107139000Y-96219001I0J249999D01*
G01*
X107139000Y-95593999D01*
G75*
G02*
X107388999Y-95344000I249999J0D01*
G01*
G37*
%TD*%
%TO.C,R13*%
G36*
G01*
X107388999Y-105842000D02*
X110289001Y-105842000D01*
G75*
G02*
X110539000Y-106091999I0J-249999D01*
G01*
X110539000Y-106717001D01*
G75*
G02*
X110289001Y-106967000I-249999J0D01*
G01*
X107388999Y-106967000D01*
G75*
G02*
X107139000Y-106717001I0J249999D01*
G01*
X107139000Y-106091999D01*
G75*
G02*
X107388999Y-105842000I249999J0D01*
G01*
G37*
G36*
G01*
X107388999Y-101567000D02*
X110289001Y-101567000D01*
G75*
G02*
X110539000Y-101816999I0J-249999D01*
G01*
X110539000Y-102442001D01*
G75*
G02*
X110289001Y-102692000I-249999J0D01*
G01*
X107388999Y-102692000D01*
G75*
G02*
X107139000Y-102442001I0J249999D01*
G01*
X107139000Y-101816999D01*
G75*
G02*
X107388999Y-101567000I249999J0D01*
G01*
G37*
%TD*%
%TO.C,R12*%
G36*
G01*
X119199999Y-99619000D02*
X122100001Y-99619000D01*
G75*
G02*
X122350000Y-99868999I0J-249999D01*
G01*
X122350000Y-100494001D01*
G75*
G02*
X122100001Y-100744000I-249999J0D01*
G01*
X119199999Y-100744000D01*
G75*
G02*
X118950000Y-100494001I0J249999D01*
G01*
X118950000Y-99868999D01*
G75*
G02*
X119199999Y-99619000I249999J0D01*
G01*
G37*
G36*
G01*
X119199999Y-95344000D02*
X122100001Y-95344000D01*
G75*
G02*
X122350000Y-95593999I0J-249999D01*
G01*
X122350000Y-96219001D01*
G75*
G02*
X122100001Y-96469000I-249999J0D01*
G01*
X119199999Y-96469000D01*
G75*
G02*
X118950000Y-96219001I0J249999D01*
G01*
X118950000Y-95593999D01*
G75*
G02*
X119199999Y-95344000I249999J0D01*
G01*
G37*
%TD*%
%TO.C,R11*%
G36*
G01*
X119199999Y-105842000D02*
X122100001Y-105842000D01*
G75*
G02*
X122350000Y-106091999I0J-249999D01*
G01*
X122350000Y-106717001D01*
G75*
G02*
X122100001Y-106967000I-249999J0D01*
G01*
X119199999Y-106967000D01*
G75*
G02*
X118950000Y-106717001I0J249999D01*
G01*
X118950000Y-106091999D01*
G75*
G02*
X119199999Y-105842000I249999J0D01*
G01*
G37*
G36*
G01*
X119199999Y-101567000D02*
X122100001Y-101567000D01*
G75*
G02*
X122350000Y-101816999I0J-249999D01*
G01*
X122350000Y-102442001D01*
G75*
G02*
X122100001Y-102692000I-249999J0D01*
G01*
X119199999Y-102692000D01*
G75*
G02*
X118950000Y-102442001I0J249999D01*
G01*
X118950000Y-101816999D01*
G75*
G02*
X119199999Y-101567000I249999J0D01*
G01*
G37*
%TD*%
%TO.C,R10*%
G36*
G01*
X103451999Y-99619000D02*
X106352001Y-99619000D01*
G75*
G02*
X106602000Y-99868999I0J-249999D01*
G01*
X106602000Y-100494001D01*
G75*
G02*
X106352001Y-100744000I-249999J0D01*
G01*
X103451999Y-100744000D01*
G75*
G02*
X103202000Y-100494001I0J249999D01*
G01*
X103202000Y-99868999D01*
G75*
G02*
X103451999Y-99619000I249999J0D01*
G01*
G37*
G36*
G01*
X103451999Y-95344000D02*
X106352001Y-95344000D01*
G75*
G02*
X106602000Y-95593999I0J-249999D01*
G01*
X106602000Y-96219001D01*
G75*
G02*
X106352001Y-96469000I-249999J0D01*
G01*
X103451999Y-96469000D01*
G75*
G02*
X103202000Y-96219001I0J249999D01*
G01*
X103202000Y-95593999D01*
G75*
G02*
X103451999Y-95344000I249999J0D01*
G01*
G37*
%TD*%
%TO.C,R9*%
G36*
G01*
X103451999Y-105842000D02*
X106352001Y-105842000D01*
G75*
G02*
X106602000Y-106091999I0J-249999D01*
G01*
X106602000Y-106717001D01*
G75*
G02*
X106352001Y-106967000I-249999J0D01*
G01*
X103451999Y-106967000D01*
G75*
G02*
X103202000Y-106717001I0J249999D01*
G01*
X103202000Y-106091999D01*
G75*
G02*
X103451999Y-105842000I249999J0D01*
G01*
G37*
G36*
G01*
X103451999Y-101567000D02*
X106352001Y-101567000D01*
G75*
G02*
X106602000Y-101816999I0J-249999D01*
G01*
X106602000Y-102442001D01*
G75*
G02*
X106352001Y-102692000I-249999J0D01*
G01*
X103451999Y-102692000D01*
G75*
G02*
X103202000Y-102442001I0J249999D01*
G01*
X103202000Y-101816999D01*
G75*
G02*
X103451999Y-101567000I249999J0D01*
G01*
G37*
%TD*%
%TO.C,R8*%
G36*
G01*
X115262999Y-99619000D02*
X118163001Y-99619000D01*
G75*
G02*
X118413000Y-99868999I0J-249999D01*
G01*
X118413000Y-100494001D01*
G75*
G02*
X118163001Y-100744000I-249999J0D01*
G01*
X115262999Y-100744000D01*
G75*
G02*
X115013000Y-100494001I0J249999D01*
G01*
X115013000Y-99868999D01*
G75*
G02*
X115262999Y-99619000I249999J0D01*
G01*
G37*
G36*
G01*
X115262999Y-95344000D02*
X118163001Y-95344000D01*
G75*
G02*
X118413000Y-95593999I0J-249999D01*
G01*
X118413000Y-96219001D01*
G75*
G02*
X118163001Y-96469000I-249999J0D01*
G01*
X115262999Y-96469000D01*
G75*
G02*
X115013000Y-96219001I0J249999D01*
G01*
X115013000Y-95593999D01*
G75*
G02*
X115262999Y-95344000I249999J0D01*
G01*
G37*
%TD*%
%TO.C,R7*%
G36*
G01*
X115262999Y-105842000D02*
X118163001Y-105842000D01*
G75*
G02*
X118413000Y-106091999I0J-249999D01*
G01*
X118413000Y-106717001D01*
G75*
G02*
X118163001Y-106967000I-249999J0D01*
G01*
X115262999Y-106967000D01*
G75*
G02*
X115013000Y-106717001I0J249999D01*
G01*
X115013000Y-106091999D01*
G75*
G02*
X115262999Y-105842000I249999J0D01*
G01*
G37*
G36*
G01*
X115262999Y-101567000D02*
X118163001Y-101567000D01*
G75*
G02*
X118413000Y-101816999I0J-249999D01*
G01*
X118413000Y-102442001D01*
G75*
G02*
X118163001Y-102692000I-249999J0D01*
G01*
X115262999Y-102692000D01*
G75*
G02*
X115013000Y-102442001I0J249999D01*
G01*
X115013000Y-101816999D01*
G75*
G02*
X115262999Y-101567000I249999J0D01*
G01*
G37*
%TD*%
%TO.C,R6*%
G36*
G01*
X99514999Y-99619000D02*
X102415001Y-99619000D01*
G75*
G02*
X102665000Y-99868999I0J-249999D01*
G01*
X102665000Y-100494001D01*
G75*
G02*
X102415001Y-100744000I-249999J0D01*
G01*
X99514999Y-100744000D01*
G75*
G02*
X99265000Y-100494001I0J249999D01*
G01*
X99265000Y-99868999D01*
G75*
G02*
X99514999Y-99619000I249999J0D01*
G01*
G37*
G36*
G01*
X99514999Y-95344000D02*
X102415001Y-95344000D01*
G75*
G02*
X102665000Y-95593999I0J-249999D01*
G01*
X102665000Y-96219001D01*
G75*
G02*
X102415001Y-96469000I-249999J0D01*
G01*
X99514999Y-96469000D01*
G75*
G02*
X99265000Y-96219001I0J249999D01*
G01*
X99265000Y-95593999D01*
G75*
G02*
X99514999Y-95344000I249999J0D01*
G01*
G37*
%TD*%
%TO.C,R5*%
G36*
G01*
X99514999Y-105842000D02*
X102415001Y-105842000D01*
G75*
G02*
X102665000Y-106091999I0J-249999D01*
G01*
X102665000Y-106717001D01*
G75*
G02*
X102415001Y-106967000I-249999J0D01*
G01*
X99514999Y-106967000D01*
G75*
G02*
X99265000Y-106717001I0J249999D01*
G01*
X99265000Y-106091999D01*
G75*
G02*
X99514999Y-105842000I249999J0D01*
G01*
G37*
G36*
G01*
X99514999Y-101567000D02*
X102415001Y-101567000D01*
G75*
G02*
X102665000Y-101816999I0J-249999D01*
G01*
X102665000Y-102442001D01*
G75*
G02*
X102415001Y-102692000I-249999J0D01*
G01*
X99514999Y-102692000D01*
G75*
G02*
X99265000Y-102442001I0J249999D01*
G01*
X99265000Y-101816999D01*
G75*
G02*
X99514999Y-101567000I249999J0D01*
G01*
G37*
%TD*%
%TO.C,R4*%
G36*
G01*
X111325999Y-99619000D02*
X114226001Y-99619000D01*
G75*
G02*
X114476000Y-99868999I0J-249999D01*
G01*
X114476000Y-100494001D01*
G75*
G02*
X114226001Y-100744000I-249999J0D01*
G01*
X111325999Y-100744000D01*
G75*
G02*
X111076000Y-100494001I0J249999D01*
G01*
X111076000Y-99868999D01*
G75*
G02*
X111325999Y-99619000I249999J0D01*
G01*
G37*
G36*
G01*
X111325999Y-95344000D02*
X114226001Y-95344000D01*
G75*
G02*
X114476000Y-95593999I0J-249999D01*
G01*
X114476000Y-96219001D01*
G75*
G02*
X114226001Y-96469000I-249999J0D01*
G01*
X111325999Y-96469000D01*
G75*
G02*
X111076000Y-96219001I0J249999D01*
G01*
X111076000Y-95593999D01*
G75*
G02*
X111325999Y-95344000I249999J0D01*
G01*
G37*
%TD*%
%TO.C,R3*%
G36*
G01*
X111325999Y-105842000D02*
X114226001Y-105842000D01*
G75*
G02*
X114476000Y-106091999I0J-249999D01*
G01*
X114476000Y-106717001D01*
G75*
G02*
X114226001Y-106967000I-249999J0D01*
G01*
X111325999Y-106967000D01*
G75*
G02*
X111076000Y-106717001I0J249999D01*
G01*
X111076000Y-106091999D01*
G75*
G02*
X111325999Y-105842000I249999J0D01*
G01*
G37*
G36*
G01*
X111325999Y-101567000D02*
X114226001Y-101567000D01*
G75*
G02*
X114476000Y-101816999I0J-249999D01*
G01*
X114476000Y-102442001D01*
G75*
G02*
X114226001Y-102692000I-249999J0D01*
G01*
X111325999Y-102692000D01*
G75*
G02*
X111076000Y-102442001I0J249999D01*
G01*
X111076000Y-101816999D01*
G75*
G02*
X111325999Y-101567000I249999J0D01*
G01*
G37*
%TD*%
%TO.C,R2*%
G36*
G01*
X95577999Y-99619000D02*
X98478001Y-99619000D01*
G75*
G02*
X98728000Y-99868999I0J-249999D01*
G01*
X98728000Y-100494001D01*
G75*
G02*
X98478001Y-100744000I-249999J0D01*
G01*
X95577999Y-100744000D01*
G75*
G02*
X95328000Y-100494001I0J249999D01*
G01*
X95328000Y-99868999D01*
G75*
G02*
X95577999Y-99619000I249999J0D01*
G01*
G37*
G36*
G01*
X95577999Y-95344000D02*
X98478001Y-95344000D01*
G75*
G02*
X98728000Y-95593999I0J-249999D01*
G01*
X98728000Y-96219001D01*
G75*
G02*
X98478001Y-96469000I-249999J0D01*
G01*
X95577999Y-96469000D01*
G75*
G02*
X95328000Y-96219001I0J249999D01*
G01*
X95328000Y-95593999D01*
G75*
G02*
X95577999Y-95344000I249999J0D01*
G01*
G37*
%TD*%
%TO.C,R1*%
G36*
G01*
X95577999Y-105842000D02*
X98478001Y-105842000D01*
G75*
G02*
X98728000Y-106091999I0J-249999D01*
G01*
X98728000Y-106717001D01*
G75*
G02*
X98478001Y-106967000I-249999J0D01*
G01*
X95577999Y-106967000D01*
G75*
G02*
X95328000Y-106717001I0J249999D01*
G01*
X95328000Y-106091999D01*
G75*
G02*
X95577999Y-105842000I249999J0D01*
G01*
G37*
G36*
G01*
X95577999Y-101567000D02*
X98478001Y-101567000D01*
G75*
G02*
X98728000Y-101816999I0J-249999D01*
G01*
X98728000Y-102442001D01*
G75*
G02*
X98478001Y-102692000I-249999J0D01*
G01*
X95577999Y-102692000D01*
G75*
G02*
X95328000Y-102442001I0J249999D01*
G01*
X95328000Y-101816999D01*
G75*
G02*
X95577999Y-101567000I249999J0D01*
G01*
G37*
%TD*%
%TO.C,D24*%
G36*
G01*
X123622750Y-122370000D02*
X124535250Y-122370000D01*
G75*
G02*
X124779000Y-122613750I0J-243750D01*
G01*
X124779000Y-123101250D01*
G75*
G02*
X124535250Y-123345000I-243750J0D01*
G01*
X123622750Y-123345000D01*
G75*
G02*
X123379000Y-123101250I0J243750D01*
G01*
X123379000Y-122613750D01*
G75*
G02*
X123622750Y-122370000I243750J0D01*
G01*
G37*
G36*
G01*
X123622750Y-120495000D02*
X124535250Y-120495000D01*
G75*
G02*
X124779000Y-120738750I0J-243750D01*
G01*
X124779000Y-121226250D01*
G75*
G02*
X124535250Y-121470000I-243750J0D01*
G01*
X123622750Y-121470000D01*
G75*
G02*
X123379000Y-121226250I0J243750D01*
G01*
X123379000Y-120738750D01*
G75*
G02*
X123622750Y-120495000I243750J0D01*
G01*
G37*
%TD*%
%TO.C,D23*%
G36*
G01*
X119812750Y-122370000D02*
X120725250Y-122370000D01*
G75*
G02*
X120969000Y-122613750I0J-243750D01*
G01*
X120969000Y-123101250D01*
G75*
G02*
X120725250Y-123345000I-243750J0D01*
G01*
X119812750Y-123345000D01*
G75*
G02*
X119569000Y-123101250I0J243750D01*
G01*
X119569000Y-122613750D01*
G75*
G02*
X119812750Y-122370000I243750J0D01*
G01*
G37*
G36*
G01*
X119812750Y-120495000D02*
X120725250Y-120495000D01*
G75*
G02*
X120969000Y-120738750I0J-243750D01*
G01*
X120969000Y-121226250D01*
G75*
G02*
X120725250Y-121470000I-243750J0D01*
G01*
X119812750Y-121470000D01*
G75*
G02*
X119569000Y-121226250I0J243750D01*
G01*
X119569000Y-120738750D01*
G75*
G02*
X119812750Y-120495000I243750J0D01*
G01*
G37*
%TD*%
%TO.C,D22*%
G36*
G01*
X116002750Y-122370000D02*
X116915250Y-122370000D01*
G75*
G02*
X117159000Y-122613750I0J-243750D01*
G01*
X117159000Y-123101250D01*
G75*
G02*
X116915250Y-123345000I-243750J0D01*
G01*
X116002750Y-123345000D01*
G75*
G02*
X115759000Y-123101250I0J243750D01*
G01*
X115759000Y-122613750D01*
G75*
G02*
X116002750Y-122370000I243750J0D01*
G01*
G37*
G36*
G01*
X116002750Y-120495000D02*
X116915250Y-120495000D01*
G75*
G02*
X117159000Y-120738750I0J-243750D01*
G01*
X117159000Y-121226250D01*
G75*
G02*
X116915250Y-121470000I-243750J0D01*
G01*
X116002750Y-121470000D01*
G75*
G02*
X115759000Y-121226250I0J243750D01*
G01*
X115759000Y-120738750D01*
G75*
G02*
X116002750Y-120495000I243750J0D01*
G01*
G37*
%TD*%
%TO.C,D21*%
G36*
G01*
X112192750Y-122370000D02*
X113105250Y-122370000D01*
G75*
G02*
X113349000Y-122613750I0J-243750D01*
G01*
X113349000Y-123101250D01*
G75*
G02*
X113105250Y-123345000I-243750J0D01*
G01*
X112192750Y-123345000D01*
G75*
G02*
X111949000Y-123101250I0J243750D01*
G01*
X111949000Y-122613750D01*
G75*
G02*
X112192750Y-122370000I243750J0D01*
G01*
G37*
G36*
G01*
X112192750Y-120495000D02*
X113105250Y-120495000D01*
G75*
G02*
X113349000Y-120738750I0J-243750D01*
G01*
X113349000Y-121226250D01*
G75*
G02*
X113105250Y-121470000I-243750J0D01*
G01*
X112192750Y-121470000D01*
G75*
G02*
X111949000Y-121226250I0J243750D01*
G01*
X111949000Y-120738750D01*
G75*
G02*
X112192750Y-120495000I243750J0D01*
G01*
G37*
%TD*%
%TO.C,D20*%
G36*
G01*
X108382750Y-122370000D02*
X109295250Y-122370000D01*
G75*
G02*
X109539000Y-122613750I0J-243750D01*
G01*
X109539000Y-123101250D01*
G75*
G02*
X109295250Y-123345000I-243750J0D01*
G01*
X108382750Y-123345000D01*
G75*
G02*
X108139000Y-123101250I0J243750D01*
G01*
X108139000Y-122613750D01*
G75*
G02*
X108382750Y-122370000I243750J0D01*
G01*
G37*
G36*
G01*
X108382750Y-120495000D02*
X109295250Y-120495000D01*
G75*
G02*
X109539000Y-120738750I0J-243750D01*
G01*
X109539000Y-121226250D01*
G75*
G02*
X109295250Y-121470000I-243750J0D01*
G01*
X108382750Y-121470000D01*
G75*
G02*
X108139000Y-121226250I0J243750D01*
G01*
X108139000Y-120738750D01*
G75*
G02*
X108382750Y-120495000I243750J0D01*
G01*
G37*
%TD*%
%TO.C,D19*%
G36*
G01*
X104572750Y-122370000D02*
X105485250Y-122370000D01*
G75*
G02*
X105729000Y-122613750I0J-243750D01*
G01*
X105729000Y-123101250D01*
G75*
G02*
X105485250Y-123345000I-243750J0D01*
G01*
X104572750Y-123345000D01*
G75*
G02*
X104329000Y-123101250I0J243750D01*
G01*
X104329000Y-122613750D01*
G75*
G02*
X104572750Y-122370000I243750J0D01*
G01*
G37*
G36*
G01*
X104572750Y-120495000D02*
X105485250Y-120495000D01*
G75*
G02*
X105729000Y-120738750I0J-243750D01*
G01*
X105729000Y-121226250D01*
G75*
G02*
X105485250Y-121470000I-243750J0D01*
G01*
X104572750Y-121470000D01*
G75*
G02*
X104329000Y-121226250I0J243750D01*
G01*
X104329000Y-120738750D01*
G75*
G02*
X104572750Y-120495000I243750J0D01*
G01*
G37*
%TD*%
%TO.C,D18*%
G36*
G01*
X100762750Y-122370000D02*
X101675250Y-122370000D01*
G75*
G02*
X101919000Y-122613750I0J-243750D01*
G01*
X101919000Y-123101250D01*
G75*
G02*
X101675250Y-123345000I-243750J0D01*
G01*
X100762750Y-123345000D01*
G75*
G02*
X100519000Y-123101250I0J243750D01*
G01*
X100519000Y-122613750D01*
G75*
G02*
X100762750Y-122370000I243750J0D01*
G01*
G37*
G36*
G01*
X100762750Y-120495000D02*
X101675250Y-120495000D01*
G75*
G02*
X101919000Y-120738750I0J-243750D01*
G01*
X101919000Y-121226250D01*
G75*
G02*
X101675250Y-121470000I-243750J0D01*
G01*
X100762750Y-121470000D01*
G75*
G02*
X100519000Y-121226250I0J243750D01*
G01*
X100519000Y-120738750D01*
G75*
G02*
X100762750Y-120495000I243750J0D01*
G01*
G37*
%TD*%
%TO.C,D17*%
G36*
G01*
X96952750Y-122370000D02*
X97865250Y-122370000D01*
G75*
G02*
X98109000Y-122613750I0J-243750D01*
G01*
X98109000Y-123101250D01*
G75*
G02*
X97865250Y-123345000I-243750J0D01*
G01*
X96952750Y-123345000D01*
G75*
G02*
X96709000Y-123101250I0J243750D01*
G01*
X96709000Y-122613750D01*
G75*
G02*
X96952750Y-122370000I243750J0D01*
G01*
G37*
G36*
G01*
X96952750Y-120495000D02*
X97865250Y-120495000D01*
G75*
G02*
X98109000Y-120738750I0J-243750D01*
G01*
X98109000Y-121226250D01*
G75*
G02*
X97865250Y-121470000I-243750J0D01*
G01*
X96952750Y-121470000D01*
G75*
G02*
X96709000Y-121226250I0J243750D01*
G01*
X96709000Y-120738750D01*
G75*
G02*
X96952750Y-120495000I243750J0D01*
G01*
G37*
%TD*%
D10*
%TO.C,D16*%
X124079000Y-118748000D03*
X124079000Y-115948000D03*
%TD*%
%TO.C,D15*%
X120269000Y-118748000D03*
X120269000Y-115948000D03*
%TD*%
%TO.C,D14*%
X116459000Y-118748000D03*
X116459000Y-115948000D03*
%TD*%
%TO.C,D13*%
X112649000Y-118748000D03*
X112649000Y-115948000D03*
%TD*%
%TO.C,D12*%
X108839000Y-118748000D03*
X108839000Y-115948000D03*
%TD*%
%TO.C,D11*%
X105029000Y-118748000D03*
X105029000Y-115948000D03*
%TD*%
%TO.C,D10*%
X101219000Y-118748000D03*
X101219000Y-115948000D03*
%TD*%
%TO.C,D9*%
X97409000Y-118748000D03*
X97409000Y-115948000D03*
%TD*%
D11*
%TO.C,D8*%
X124587000Y-93444000D03*
X124587000Y-89944000D03*
%TD*%
%TO.C,D7*%
X120650000Y-93444000D03*
X120650000Y-89944000D03*
%TD*%
%TO.C,D6*%
X116713000Y-93444000D03*
X116713000Y-89944000D03*
%TD*%
%TO.C,D5*%
X112776000Y-93444000D03*
X112776000Y-89944000D03*
%TD*%
%TO.C,D4*%
X108839000Y-93444000D03*
X108839000Y-89944000D03*
%TD*%
%TO.C,D3*%
X104902000Y-93444000D03*
X104902000Y-89944000D03*
%TD*%
%TO.C,D2*%
X100965000Y-93444000D03*
X100965000Y-89944000D03*
%TD*%
%TO.C,D1*%
X97028000Y-93444000D03*
X97028000Y-89944000D03*
%TD*%
M02*
