%TF.GenerationSoftware,KiCad,Pcbnew,(5.1.6)-1*%
%TF.CreationDate,2021-03-16T16:30:30+01:00*%
%TF.ProjectId,24v-logic,3234762d-6c6f-4676-9963-2e6b69636164,rev?*%
%TF.SameCoordinates,Original*%
%TF.FileFunction,Soldermask,Bot*%
%TF.FilePolarity,Negative*%
%FSLAX46Y46*%
G04 Gerber Fmt 4.6, Leading zero omitted, Abs format (unit mm)*
G04 Created by KiCad (PCBNEW (5.1.6)-1) date 2021-03-16 16:30:30*
%MOMM*%
%LPD*%
G01*
G04 APERTURE LIST*
%ADD10C,3.300000*%
%ADD11C,1.800000*%
%ADD12O,1.900000X3.700000*%
G04 APERTURE END LIST*
D10*
%TO.C,H4*%
X134747000Y-134620000D03*
%TD*%
%TO.C,H3*%
X134747000Y-64008000D03*
%TD*%
%TO.C,H2*%
X86487000Y-134620000D03*
%TD*%
%TO.C,H1*%
X86487000Y-64008000D03*
%TD*%
D11*
%TO.C,J3*%
X97028000Y-81534000D03*
X99568000Y-81534000D03*
X102108000Y-81534000D03*
X104648000Y-81534000D03*
X107188000Y-81534000D03*
X109728000Y-81534000D03*
X112268000Y-81534000D03*
X114808000Y-81534000D03*
X117348000Y-81534000D03*
X119888000Y-81534000D03*
X97028000Y-78994000D03*
X99568000Y-78994000D03*
X102108000Y-78994000D03*
X104648000Y-78994000D03*
X107188000Y-78994000D03*
X109728000Y-78994000D03*
X112268000Y-78994000D03*
X114808000Y-78994000D03*
X117348000Y-78994000D03*
G36*
G01*
X119252706Y-78094000D02*
X120523294Y-78094000D01*
G75*
G02*
X120788000Y-78358706I0J-264706D01*
G01*
X120788000Y-79629294D01*
G75*
G02*
X120523294Y-79894000I-264706J0D01*
G01*
X119252706Y-79894000D01*
G75*
G02*
X118988000Y-79629294I0J264706D01*
G01*
X118988000Y-78358706D01*
G75*
G02*
X119252706Y-78094000I264706J0D01*
G01*
G37*
%TD*%
D12*
%TO.C,J2*%
X124079000Y-129540000D03*
X120269000Y-129540000D03*
X116459000Y-129540000D03*
X112649000Y-129540000D03*
X108839000Y-129540000D03*
X105029000Y-129540000D03*
X101219000Y-129540000D03*
X97409000Y-129540000D03*
G36*
G01*
X92649000Y-131126111D02*
X92649000Y-127953889D01*
G75*
G02*
X92912889Y-127690000I263889J0D01*
G01*
X94285111Y-127690000D01*
G75*
G02*
X94549000Y-127953889I0J-263889D01*
G01*
X94549000Y-131126111D01*
G75*
G02*
X94285111Y-131390000I-263889J0D01*
G01*
X92912889Y-131390000D01*
G75*
G02*
X92649000Y-131126111I0J263889D01*
G01*
G37*
%TD*%
D11*
%TO.C,J1*%
X97028000Y-69215000D03*
X99568000Y-69215000D03*
X102108000Y-69215000D03*
X104648000Y-69215000D03*
X107188000Y-69215000D03*
X109728000Y-69215000D03*
X112268000Y-69215000D03*
X114808000Y-69215000D03*
X117348000Y-69215000D03*
X119888000Y-69215000D03*
X97028000Y-66675000D03*
X99568000Y-66675000D03*
X102108000Y-66675000D03*
X104648000Y-66675000D03*
X107188000Y-66675000D03*
X109728000Y-66675000D03*
X112268000Y-66675000D03*
X114808000Y-66675000D03*
X117348000Y-66675000D03*
G36*
G01*
X119252706Y-65775000D02*
X120523294Y-65775000D01*
G75*
G02*
X120788000Y-66039706I0J-264706D01*
G01*
X120788000Y-67310294D01*
G75*
G02*
X120523294Y-67575000I-264706J0D01*
G01*
X119252706Y-67575000D01*
G75*
G02*
X118988000Y-67310294I0J264706D01*
G01*
X118988000Y-66039706D01*
G75*
G02*
X119252706Y-65775000I264706J0D01*
G01*
G37*
%TD*%
M02*
