%TF.GenerationSoftware,KiCad,Pcbnew,(5.1.6)-1*%
%TF.CreationDate,2021-03-16T16:30:30+01:00*%
%TF.ProjectId,24v-logic,3234762d-6c6f-4676-9963-2e6b69636164,rev?*%
%TF.SameCoordinates,Original*%
%TF.FileFunction,Soldermask,Top*%
%TF.FilePolarity,Negative*%
%FSLAX46Y46*%
G04 Gerber Fmt 4.6, Leading zero omitted, Abs format (unit mm)*
G04 Created by KiCad (PCBNEW (5.1.6)-1) date 2021-03-16 16:30:30*
%MOMM*%
%LPD*%
G01*
G04 APERTURE LIST*
%ADD10C,3.300000*%
%ADD11C,1.800000*%
%ADD12O,1.900000X3.700000*%
%ADD13R,1.200000X1.200000*%
%ADD14R,1.800000X1.400000*%
G04 APERTURE END LIST*
D10*
%TO.C,H4*%
X134747000Y-134620000D03*
%TD*%
%TO.C,H3*%
X134747000Y-64008000D03*
%TD*%
%TO.C,H2*%
X86487000Y-134620000D03*
%TD*%
%TO.C,H1*%
X86487000Y-64008000D03*
%TD*%
%TO.C,R24*%
G36*
G01*
X123109221Y-113158000D02*
X126064779Y-113158000D01*
G75*
G02*
X126337000Y-113430221I0J-272221D01*
G01*
X126337000Y-114110779D01*
G75*
G02*
X126064779Y-114383000I-272221J0D01*
G01*
X123109221Y-114383000D01*
G75*
G02*
X122837000Y-114110779I0J272221D01*
G01*
X122837000Y-113430221D01*
G75*
G02*
X123109221Y-113158000I272221J0D01*
G01*
G37*
G36*
G01*
X123109221Y-108883000D02*
X126064779Y-108883000D01*
G75*
G02*
X126337000Y-109155221I0J-272221D01*
G01*
X126337000Y-109835779D01*
G75*
G02*
X126064779Y-110108000I-272221J0D01*
G01*
X123109221Y-110108000D01*
G75*
G02*
X122837000Y-109835779I0J272221D01*
G01*
X122837000Y-109155221D01*
G75*
G02*
X123109221Y-108883000I272221J0D01*
G01*
G37*
%TD*%
%TO.C,R23*%
G36*
G01*
X119172221Y-113158000D02*
X122127779Y-113158000D01*
G75*
G02*
X122400000Y-113430221I0J-272221D01*
G01*
X122400000Y-114110779D01*
G75*
G02*
X122127779Y-114383000I-272221J0D01*
G01*
X119172221Y-114383000D01*
G75*
G02*
X118900000Y-114110779I0J272221D01*
G01*
X118900000Y-113430221D01*
G75*
G02*
X119172221Y-113158000I272221J0D01*
G01*
G37*
G36*
G01*
X119172221Y-108883000D02*
X122127779Y-108883000D01*
G75*
G02*
X122400000Y-109155221I0J-272221D01*
G01*
X122400000Y-109835779D01*
G75*
G02*
X122127779Y-110108000I-272221J0D01*
G01*
X119172221Y-110108000D01*
G75*
G02*
X118900000Y-109835779I0J272221D01*
G01*
X118900000Y-109155221D01*
G75*
G02*
X119172221Y-108883000I272221J0D01*
G01*
G37*
%TD*%
%TO.C,R22*%
G36*
G01*
X115235221Y-113158000D02*
X118190779Y-113158000D01*
G75*
G02*
X118463000Y-113430221I0J-272221D01*
G01*
X118463000Y-114110779D01*
G75*
G02*
X118190779Y-114383000I-272221J0D01*
G01*
X115235221Y-114383000D01*
G75*
G02*
X114963000Y-114110779I0J272221D01*
G01*
X114963000Y-113430221D01*
G75*
G02*
X115235221Y-113158000I272221J0D01*
G01*
G37*
G36*
G01*
X115235221Y-108883000D02*
X118190779Y-108883000D01*
G75*
G02*
X118463000Y-109155221I0J-272221D01*
G01*
X118463000Y-109835779D01*
G75*
G02*
X118190779Y-110108000I-272221J0D01*
G01*
X115235221Y-110108000D01*
G75*
G02*
X114963000Y-109835779I0J272221D01*
G01*
X114963000Y-109155221D01*
G75*
G02*
X115235221Y-108883000I272221J0D01*
G01*
G37*
%TD*%
%TO.C,R21*%
G36*
G01*
X111298221Y-113158000D02*
X114253779Y-113158000D01*
G75*
G02*
X114526000Y-113430221I0J-272221D01*
G01*
X114526000Y-114110779D01*
G75*
G02*
X114253779Y-114383000I-272221J0D01*
G01*
X111298221Y-114383000D01*
G75*
G02*
X111026000Y-114110779I0J272221D01*
G01*
X111026000Y-113430221D01*
G75*
G02*
X111298221Y-113158000I272221J0D01*
G01*
G37*
G36*
G01*
X111298221Y-108883000D02*
X114253779Y-108883000D01*
G75*
G02*
X114526000Y-109155221I0J-272221D01*
G01*
X114526000Y-109835779D01*
G75*
G02*
X114253779Y-110108000I-272221J0D01*
G01*
X111298221Y-110108000D01*
G75*
G02*
X111026000Y-109835779I0J272221D01*
G01*
X111026000Y-109155221D01*
G75*
G02*
X111298221Y-108883000I272221J0D01*
G01*
G37*
%TD*%
%TO.C,R20*%
G36*
G01*
X107361221Y-113158000D02*
X110316779Y-113158000D01*
G75*
G02*
X110589000Y-113430221I0J-272221D01*
G01*
X110589000Y-114110779D01*
G75*
G02*
X110316779Y-114383000I-272221J0D01*
G01*
X107361221Y-114383000D01*
G75*
G02*
X107089000Y-114110779I0J272221D01*
G01*
X107089000Y-113430221D01*
G75*
G02*
X107361221Y-113158000I272221J0D01*
G01*
G37*
G36*
G01*
X107361221Y-108883000D02*
X110316779Y-108883000D01*
G75*
G02*
X110589000Y-109155221I0J-272221D01*
G01*
X110589000Y-109835779D01*
G75*
G02*
X110316779Y-110108000I-272221J0D01*
G01*
X107361221Y-110108000D01*
G75*
G02*
X107089000Y-109835779I0J272221D01*
G01*
X107089000Y-109155221D01*
G75*
G02*
X107361221Y-108883000I272221J0D01*
G01*
G37*
%TD*%
%TO.C,R19*%
G36*
G01*
X103424221Y-113158000D02*
X106379779Y-113158000D01*
G75*
G02*
X106652000Y-113430221I0J-272221D01*
G01*
X106652000Y-114110779D01*
G75*
G02*
X106379779Y-114383000I-272221J0D01*
G01*
X103424221Y-114383000D01*
G75*
G02*
X103152000Y-114110779I0J272221D01*
G01*
X103152000Y-113430221D01*
G75*
G02*
X103424221Y-113158000I272221J0D01*
G01*
G37*
G36*
G01*
X103424221Y-108883000D02*
X106379779Y-108883000D01*
G75*
G02*
X106652000Y-109155221I0J-272221D01*
G01*
X106652000Y-109835779D01*
G75*
G02*
X106379779Y-110108000I-272221J0D01*
G01*
X103424221Y-110108000D01*
G75*
G02*
X103152000Y-109835779I0J272221D01*
G01*
X103152000Y-109155221D01*
G75*
G02*
X103424221Y-108883000I272221J0D01*
G01*
G37*
%TD*%
%TO.C,R18*%
G36*
G01*
X99487221Y-113158000D02*
X102442779Y-113158000D01*
G75*
G02*
X102715000Y-113430221I0J-272221D01*
G01*
X102715000Y-114110779D01*
G75*
G02*
X102442779Y-114383000I-272221J0D01*
G01*
X99487221Y-114383000D01*
G75*
G02*
X99215000Y-114110779I0J272221D01*
G01*
X99215000Y-113430221D01*
G75*
G02*
X99487221Y-113158000I272221J0D01*
G01*
G37*
G36*
G01*
X99487221Y-108883000D02*
X102442779Y-108883000D01*
G75*
G02*
X102715000Y-109155221I0J-272221D01*
G01*
X102715000Y-109835779D01*
G75*
G02*
X102442779Y-110108000I-272221J0D01*
G01*
X99487221Y-110108000D01*
G75*
G02*
X99215000Y-109835779I0J272221D01*
G01*
X99215000Y-109155221D01*
G75*
G02*
X99487221Y-108883000I272221J0D01*
G01*
G37*
%TD*%
%TO.C,R17*%
G36*
G01*
X95550221Y-113158000D02*
X98505779Y-113158000D01*
G75*
G02*
X98778000Y-113430221I0J-272221D01*
G01*
X98778000Y-114110779D01*
G75*
G02*
X98505779Y-114383000I-272221J0D01*
G01*
X95550221Y-114383000D01*
G75*
G02*
X95278000Y-114110779I0J272221D01*
G01*
X95278000Y-113430221D01*
G75*
G02*
X95550221Y-113158000I272221J0D01*
G01*
G37*
G36*
G01*
X95550221Y-108883000D02*
X98505779Y-108883000D01*
G75*
G02*
X98778000Y-109155221I0J-272221D01*
G01*
X98778000Y-109835779D01*
G75*
G02*
X98505779Y-110108000I-272221J0D01*
G01*
X95550221Y-110108000D01*
G75*
G02*
X95278000Y-109835779I0J272221D01*
G01*
X95278000Y-109155221D01*
G75*
G02*
X95550221Y-108883000I272221J0D01*
G01*
G37*
%TD*%
%TO.C,R16*%
G36*
G01*
X123109221Y-99569000D02*
X126064779Y-99569000D01*
G75*
G02*
X126337000Y-99841221I0J-272221D01*
G01*
X126337000Y-100521779D01*
G75*
G02*
X126064779Y-100794000I-272221J0D01*
G01*
X123109221Y-100794000D01*
G75*
G02*
X122837000Y-100521779I0J272221D01*
G01*
X122837000Y-99841221D01*
G75*
G02*
X123109221Y-99569000I272221J0D01*
G01*
G37*
G36*
G01*
X123109221Y-95294000D02*
X126064779Y-95294000D01*
G75*
G02*
X126337000Y-95566221I0J-272221D01*
G01*
X126337000Y-96246779D01*
G75*
G02*
X126064779Y-96519000I-272221J0D01*
G01*
X123109221Y-96519000D01*
G75*
G02*
X122837000Y-96246779I0J272221D01*
G01*
X122837000Y-95566221D01*
G75*
G02*
X123109221Y-95294000I272221J0D01*
G01*
G37*
%TD*%
%TO.C,R15*%
G36*
G01*
X123109221Y-105792000D02*
X126064779Y-105792000D01*
G75*
G02*
X126337000Y-106064221I0J-272221D01*
G01*
X126337000Y-106744779D01*
G75*
G02*
X126064779Y-107017000I-272221J0D01*
G01*
X123109221Y-107017000D01*
G75*
G02*
X122837000Y-106744779I0J272221D01*
G01*
X122837000Y-106064221D01*
G75*
G02*
X123109221Y-105792000I272221J0D01*
G01*
G37*
G36*
G01*
X123109221Y-101517000D02*
X126064779Y-101517000D01*
G75*
G02*
X126337000Y-101789221I0J-272221D01*
G01*
X126337000Y-102469779D01*
G75*
G02*
X126064779Y-102742000I-272221J0D01*
G01*
X123109221Y-102742000D01*
G75*
G02*
X122837000Y-102469779I0J272221D01*
G01*
X122837000Y-101789221D01*
G75*
G02*
X123109221Y-101517000I272221J0D01*
G01*
G37*
%TD*%
%TO.C,R14*%
G36*
G01*
X107361221Y-99569000D02*
X110316779Y-99569000D01*
G75*
G02*
X110589000Y-99841221I0J-272221D01*
G01*
X110589000Y-100521779D01*
G75*
G02*
X110316779Y-100794000I-272221J0D01*
G01*
X107361221Y-100794000D01*
G75*
G02*
X107089000Y-100521779I0J272221D01*
G01*
X107089000Y-99841221D01*
G75*
G02*
X107361221Y-99569000I272221J0D01*
G01*
G37*
G36*
G01*
X107361221Y-95294000D02*
X110316779Y-95294000D01*
G75*
G02*
X110589000Y-95566221I0J-272221D01*
G01*
X110589000Y-96246779D01*
G75*
G02*
X110316779Y-96519000I-272221J0D01*
G01*
X107361221Y-96519000D01*
G75*
G02*
X107089000Y-96246779I0J272221D01*
G01*
X107089000Y-95566221D01*
G75*
G02*
X107361221Y-95294000I272221J0D01*
G01*
G37*
%TD*%
%TO.C,R13*%
G36*
G01*
X107361221Y-105792000D02*
X110316779Y-105792000D01*
G75*
G02*
X110589000Y-106064221I0J-272221D01*
G01*
X110589000Y-106744779D01*
G75*
G02*
X110316779Y-107017000I-272221J0D01*
G01*
X107361221Y-107017000D01*
G75*
G02*
X107089000Y-106744779I0J272221D01*
G01*
X107089000Y-106064221D01*
G75*
G02*
X107361221Y-105792000I272221J0D01*
G01*
G37*
G36*
G01*
X107361221Y-101517000D02*
X110316779Y-101517000D01*
G75*
G02*
X110589000Y-101789221I0J-272221D01*
G01*
X110589000Y-102469779D01*
G75*
G02*
X110316779Y-102742000I-272221J0D01*
G01*
X107361221Y-102742000D01*
G75*
G02*
X107089000Y-102469779I0J272221D01*
G01*
X107089000Y-101789221D01*
G75*
G02*
X107361221Y-101517000I272221J0D01*
G01*
G37*
%TD*%
%TO.C,R12*%
G36*
G01*
X119172221Y-99569000D02*
X122127779Y-99569000D01*
G75*
G02*
X122400000Y-99841221I0J-272221D01*
G01*
X122400000Y-100521779D01*
G75*
G02*
X122127779Y-100794000I-272221J0D01*
G01*
X119172221Y-100794000D01*
G75*
G02*
X118900000Y-100521779I0J272221D01*
G01*
X118900000Y-99841221D01*
G75*
G02*
X119172221Y-99569000I272221J0D01*
G01*
G37*
G36*
G01*
X119172221Y-95294000D02*
X122127779Y-95294000D01*
G75*
G02*
X122400000Y-95566221I0J-272221D01*
G01*
X122400000Y-96246779D01*
G75*
G02*
X122127779Y-96519000I-272221J0D01*
G01*
X119172221Y-96519000D01*
G75*
G02*
X118900000Y-96246779I0J272221D01*
G01*
X118900000Y-95566221D01*
G75*
G02*
X119172221Y-95294000I272221J0D01*
G01*
G37*
%TD*%
%TO.C,R11*%
G36*
G01*
X119172221Y-105792000D02*
X122127779Y-105792000D01*
G75*
G02*
X122400000Y-106064221I0J-272221D01*
G01*
X122400000Y-106744779D01*
G75*
G02*
X122127779Y-107017000I-272221J0D01*
G01*
X119172221Y-107017000D01*
G75*
G02*
X118900000Y-106744779I0J272221D01*
G01*
X118900000Y-106064221D01*
G75*
G02*
X119172221Y-105792000I272221J0D01*
G01*
G37*
G36*
G01*
X119172221Y-101517000D02*
X122127779Y-101517000D01*
G75*
G02*
X122400000Y-101789221I0J-272221D01*
G01*
X122400000Y-102469779D01*
G75*
G02*
X122127779Y-102742000I-272221J0D01*
G01*
X119172221Y-102742000D01*
G75*
G02*
X118900000Y-102469779I0J272221D01*
G01*
X118900000Y-101789221D01*
G75*
G02*
X119172221Y-101517000I272221J0D01*
G01*
G37*
%TD*%
%TO.C,R10*%
G36*
G01*
X103424221Y-99569000D02*
X106379779Y-99569000D01*
G75*
G02*
X106652000Y-99841221I0J-272221D01*
G01*
X106652000Y-100521779D01*
G75*
G02*
X106379779Y-100794000I-272221J0D01*
G01*
X103424221Y-100794000D01*
G75*
G02*
X103152000Y-100521779I0J272221D01*
G01*
X103152000Y-99841221D01*
G75*
G02*
X103424221Y-99569000I272221J0D01*
G01*
G37*
G36*
G01*
X103424221Y-95294000D02*
X106379779Y-95294000D01*
G75*
G02*
X106652000Y-95566221I0J-272221D01*
G01*
X106652000Y-96246779D01*
G75*
G02*
X106379779Y-96519000I-272221J0D01*
G01*
X103424221Y-96519000D01*
G75*
G02*
X103152000Y-96246779I0J272221D01*
G01*
X103152000Y-95566221D01*
G75*
G02*
X103424221Y-95294000I272221J0D01*
G01*
G37*
%TD*%
%TO.C,R9*%
G36*
G01*
X103424221Y-105792000D02*
X106379779Y-105792000D01*
G75*
G02*
X106652000Y-106064221I0J-272221D01*
G01*
X106652000Y-106744779D01*
G75*
G02*
X106379779Y-107017000I-272221J0D01*
G01*
X103424221Y-107017000D01*
G75*
G02*
X103152000Y-106744779I0J272221D01*
G01*
X103152000Y-106064221D01*
G75*
G02*
X103424221Y-105792000I272221J0D01*
G01*
G37*
G36*
G01*
X103424221Y-101517000D02*
X106379779Y-101517000D01*
G75*
G02*
X106652000Y-101789221I0J-272221D01*
G01*
X106652000Y-102469779D01*
G75*
G02*
X106379779Y-102742000I-272221J0D01*
G01*
X103424221Y-102742000D01*
G75*
G02*
X103152000Y-102469779I0J272221D01*
G01*
X103152000Y-101789221D01*
G75*
G02*
X103424221Y-101517000I272221J0D01*
G01*
G37*
%TD*%
%TO.C,R8*%
G36*
G01*
X115235221Y-99569000D02*
X118190779Y-99569000D01*
G75*
G02*
X118463000Y-99841221I0J-272221D01*
G01*
X118463000Y-100521779D01*
G75*
G02*
X118190779Y-100794000I-272221J0D01*
G01*
X115235221Y-100794000D01*
G75*
G02*
X114963000Y-100521779I0J272221D01*
G01*
X114963000Y-99841221D01*
G75*
G02*
X115235221Y-99569000I272221J0D01*
G01*
G37*
G36*
G01*
X115235221Y-95294000D02*
X118190779Y-95294000D01*
G75*
G02*
X118463000Y-95566221I0J-272221D01*
G01*
X118463000Y-96246779D01*
G75*
G02*
X118190779Y-96519000I-272221J0D01*
G01*
X115235221Y-96519000D01*
G75*
G02*
X114963000Y-96246779I0J272221D01*
G01*
X114963000Y-95566221D01*
G75*
G02*
X115235221Y-95294000I272221J0D01*
G01*
G37*
%TD*%
%TO.C,R7*%
G36*
G01*
X115235221Y-105792000D02*
X118190779Y-105792000D01*
G75*
G02*
X118463000Y-106064221I0J-272221D01*
G01*
X118463000Y-106744779D01*
G75*
G02*
X118190779Y-107017000I-272221J0D01*
G01*
X115235221Y-107017000D01*
G75*
G02*
X114963000Y-106744779I0J272221D01*
G01*
X114963000Y-106064221D01*
G75*
G02*
X115235221Y-105792000I272221J0D01*
G01*
G37*
G36*
G01*
X115235221Y-101517000D02*
X118190779Y-101517000D01*
G75*
G02*
X118463000Y-101789221I0J-272221D01*
G01*
X118463000Y-102469779D01*
G75*
G02*
X118190779Y-102742000I-272221J0D01*
G01*
X115235221Y-102742000D01*
G75*
G02*
X114963000Y-102469779I0J272221D01*
G01*
X114963000Y-101789221D01*
G75*
G02*
X115235221Y-101517000I272221J0D01*
G01*
G37*
%TD*%
%TO.C,R6*%
G36*
G01*
X99487221Y-99569000D02*
X102442779Y-99569000D01*
G75*
G02*
X102715000Y-99841221I0J-272221D01*
G01*
X102715000Y-100521779D01*
G75*
G02*
X102442779Y-100794000I-272221J0D01*
G01*
X99487221Y-100794000D01*
G75*
G02*
X99215000Y-100521779I0J272221D01*
G01*
X99215000Y-99841221D01*
G75*
G02*
X99487221Y-99569000I272221J0D01*
G01*
G37*
G36*
G01*
X99487221Y-95294000D02*
X102442779Y-95294000D01*
G75*
G02*
X102715000Y-95566221I0J-272221D01*
G01*
X102715000Y-96246779D01*
G75*
G02*
X102442779Y-96519000I-272221J0D01*
G01*
X99487221Y-96519000D01*
G75*
G02*
X99215000Y-96246779I0J272221D01*
G01*
X99215000Y-95566221D01*
G75*
G02*
X99487221Y-95294000I272221J0D01*
G01*
G37*
%TD*%
%TO.C,R5*%
G36*
G01*
X99487221Y-105792000D02*
X102442779Y-105792000D01*
G75*
G02*
X102715000Y-106064221I0J-272221D01*
G01*
X102715000Y-106744779D01*
G75*
G02*
X102442779Y-107017000I-272221J0D01*
G01*
X99487221Y-107017000D01*
G75*
G02*
X99215000Y-106744779I0J272221D01*
G01*
X99215000Y-106064221D01*
G75*
G02*
X99487221Y-105792000I272221J0D01*
G01*
G37*
G36*
G01*
X99487221Y-101517000D02*
X102442779Y-101517000D01*
G75*
G02*
X102715000Y-101789221I0J-272221D01*
G01*
X102715000Y-102469779D01*
G75*
G02*
X102442779Y-102742000I-272221J0D01*
G01*
X99487221Y-102742000D01*
G75*
G02*
X99215000Y-102469779I0J272221D01*
G01*
X99215000Y-101789221D01*
G75*
G02*
X99487221Y-101517000I272221J0D01*
G01*
G37*
%TD*%
%TO.C,R4*%
G36*
G01*
X111298221Y-99569000D02*
X114253779Y-99569000D01*
G75*
G02*
X114526000Y-99841221I0J-272221D01*
G01*
X114526000Y-100521779D01*
G75*
G02*
X114253779Y-100794000I-272221J0D01*
G01*
X111298221Y-100794000D01*
G75*
G02*
X111026000Y-100521779I0J272221D01*
G01*
X111026000Y-99841221D01*
G75*
G02*
X111298221Y-99569000I272221J0D01*
G01*
G37*
G36*
G01*
X111298221Y-95294000D02*
X114253779Y-95294000D01*
G75*
G02*
X114526000Y-95566221I0J-272221D01*
G01*
X114526000Y-96246779D01*
G75*
G02*
X114253779Y-96519000I-272221J0D01*
G01*
X111298221Y-96519000D01*
G75*
G02*
X111026000Y-96246779I0J272221D01*
G01*
X111026000Y-95566221D01*
G75*
G02*
X111298221Y-95294000I272221J0D01*
G01*
G37*
%TD*%
%TO.C,R3*%
G36*
G01*
X111298221Y-105792000D02*
X114253779Y-105792000D01*
G75*
G02*
X114526000Y-106064221I0J-272221D01*
G01*
X114526000Y-106744779D01*
G75*
G02*
X114253779Y-107017000I-272221J0D01*
G01*
X111298221Y-107017000D01*
G75*
G02*
X111026000Y-106744779I0J272221D01*
G01*
X111026000Y-106064221D01*
G75*
G02*
X111298221Y-105792000I272221J0D01*
G01*
G37*
G36*
G01*
X111298221Y-101517000D02*
X114253779Y-101517000D01*
G75*
G02*
X114526000Y-101789221I0J-272221D01*
G01*
X114526000Y-102469779D01*
G75*
G02*
X114253779Y-102742000I-272221J0D01*
G01*
X111298221Y-102742000D01*
G75*
G02*
X111026000Y-102469779I0J272221D01*
G01*
X111026000Y-101789221D01*
G75*
G02*
X111298221Y-101517000I272221J0D01*
G01*
G37*
%TD*%
%TO.C,R2*%
G36*
G01*
X95550221Y-99569000D02*
X98505779Y-99569000D01*
G75*
G02*
X98778000Y-99841221I0J-272221D01*
G01*
X98778000Y-100521779D01*
G75*
G02*
X98505779Y-100794000I-272221J0D01*
G01*
X95550221Y-100794000D01*
G75*
G02*
X95278000Y-100521779I0J272221D01*
G01*
X95278000Y-99841221D01*
G75*
G02*
X95550221Y-99569000I272221J0D01*
G01*
G37*
G36*
G01*
X95550221Y-95294000D02*
X98505779Y-95294000D01*
G75*
G02*
X98778000Y-95566221I0J-272221D01*
G01*
X98778000Y-96246779D01*
G75*
G02*
X98505779Y-96519000I-272221J0D01*
G01*
X95550221Y-96519000D01*
G75*
G02*
X95278000Y-96246779I0J272221D01*
G01*
X95278000Y-95566221D01*
G75*
G02*
X95550221Y-95294000I272221J0D01*
G01*
G37*
%TD*%
%TO.C,R1*%
G36*
G01*
X95550221Y-105792000D02*
X98505779Y-105792000D01*
G75*
G02*
X98778000Y-106064221I0J-272221D01*
G01*
X98778000Y-106744779D01*
G75*
G02*
X98505779Y-107017000I-272221J0D01*
G01*
X95550221Y-107017000D01*
G75*
G02*
X95278000Y-106744779I0J272221D01*
G01*
X95278000Y-106064221D01*
G75*
G02*
X95550221Y-105792000I272221J0D01*
G01*
G37*
G36*
G01*
X95550221Y-101517000D02*
X98505779Y-101517000D01*
G75*
G02*
X98778000Y-101789221I0J-272221D01*
G01*
X98778000Y-102469779D01*
G75*
G02*
X98505779Y-102742000I-272221J0D01*
G01*
X95550221Y-102742000D01*
G75*
G02*
X95278000Y-102469779I0J272221D01*
G01*
X95278000Y-101789221D01*
G75*
G02*
X95550221Y-101517000I272221J0D01*
G01*
G37*
%TD*%
D11*
%TO.C,J3*%
X97028000Y-81534000D03*
X99568000Y-81534000D03*
X102108000Y-81534000D03*
X104648000Y-81534000D03*
X107188000Y-81534000D03*
X109728000Y-81534000D03*
X112268000Y-81534000D03*
X114808000Y-81534000D03*
X117348000Y-81534000D03*
X119888000Y-81534000D03*
X97028000Y-78994000D03*
X99568000Y-78994000D03*
X102108000Y-78994000D03*
X104648000Y-78994000D03*
X107188000Y-78994000D03*
X109728000Y-78994000D03*
X112268000Y-78994000D03*
X114808000Y-78994000D03*
X117348000Y-78994000D03*
G36*
G01*
X119252706Y-78094000D02*
X120523294Y-78094000D01*
G75*
G02*
X120788000Y-78358706I0J-264706D01*
G01*
X120788000Y-79629294D01*
G75*
G02*
X120523294Y-79894000I-264706J0D01*
G01*
X119252706Y-79894000D01*
G75*
G02*
X118988000Y-79629294I0J264706D01*
G01*
X118988000Y-78358706D01*
G75*
G02*
X119252706Y-78094000I264706J0D01*
G01*
G37*
%TD*%
D12*
%TO.C,J2*%
X124079000Y-129540000D03*
X120269000Y-129540000D03*
X116459000Y-129540000D03*
X112649000Y-129540000D03*
X108839000Y-129540000D03*
X105029000Y-129540000D03*
X101219000Y-129540000D03*
X97409000Y-129540000D03*
G36*
G01*
X92649000Y-131126111D02*
X92649000Y-127953889D01*
G75*
G02*
X92912889Y-127690000I263889J0D01*
G01*
X94285111Y-127690000D01*
G75*
G02*
X94549000Y-127953889I0J-263889D01*
G01*
X94549000Y-131126111D01*
G75*
G02*
X94285111Y-131390000I-263889J0D01*
G01*
X92912889Y-131390000D01*
G75*
G02*
X92649000Y-131126111I0J263889D01*
G01*
G37*
%TD*%
%TO.C,D24*%
G36*
G01*
X123597750Y-122320000D02*
X124560250Y-122320000D01*
G75*
G02*
X124829000Y-122588750I0J-268750D01*
G01*
X124829000Y-123126250D01*
G75*
G02*
X124560250Y-123395000I-268750J0D01*
G01*
X123597750Y-123395000D01*
G75*
G02*
X123329000Y-123126250I0J268750D01*
G01*
X123329000Y-122588750D01*
G75*
G02*
X123597750Y-122320000I268750J0D01*
G01*
G37*
G36*
G01*
X123597750Y-120445000D02*
X124560250Y-120445000D01*
G75*
G02*
X124829000Y-120713750I0J-268750D01*
G01*
X124829000Y-121251250D01*
G75*
G02*
X124560250Y-121520000I-268750J0D01*
G01*
X123597750Y-121520000D01*
G75*
G02*
X123329000Y-121251250I0J268750D01*
G01*
X123329000Y-120713750D01*
G75*
G02*
X123597750Y-120445000I268750J0D01*
G01*
G37*
%TD*%
%TO.C,D23*%
G36*
G01*
X119787750Y-122320000D02*
X120750250Y-122320000D01*
G75*
G02*
X121019000Y-122588750I0J-268750D01*
G01*
X121019000Y-123126250D01*
G75*
G02*
X120750250Y-123395000I-268750J0D01*
G01*
X119787750Y-123395000D01*
G75*
G02*
X119519000Y-123126250I0J268750D01*
G01*
X119519000Y-122588750D01*
G75*
G02*
X119787750Y-122320000I268750J0D01*
G01*
G37*
G36*
G01*
X119787750Y-120445000D02*
X120750250Y-120445000D01*
G75*
G02*
X121019000Y-120713750I0J-268750D01*
G01*
X121019000Y-121251250D01*
G75*
G02*
X120750250Y-121520000I-268750J0D01*
G01*
X119787750Y-121520000D01*
G75*
G02*
X119519000Y-121251250I0J268750D01*
G01*
X119519000Y-120713750D01*
G75*
G02*
X119787750Y-120445000I268750J0D01*
G01*
G37*
%TD*%
%TO.C,D22*%
G36*
G01*
X115977750Y-122320000D02*
X116940250Y-122320000D01*
G75*
G02*
X117209000Y-122588750I0J-268750D01*
G01*
X117209000Y-123126250D01*
G75*
G02*
X116940250Y-123395000I-268750J0D01*
G01*
X115977750Y-123395000D01*
G75*
G02*
X115709000Y-123126250I0J268750D01*
G01*
X115709000Y-122588750D01*
G75*
G02*
X115977750Y-122320000I268750J0D01*
G01*
G37*
G36*
G01*
X115977750Y-120445000D02*
X116940250Y-120445000D01*
G75*
G02*
X117209000Y-120713750I0J-268750D01*
G01*
X117209000Y-121251250D01*
G75*
G02*
X116940250Y-121520000I-268750J0D01*
G01*
X115977750Y-121520000D01*
G75*
G02*
X115709000Y-121251250I0J268750D01*
G01*
X115709000Y-120713750D01*
G75*
G02*
X115977750Y-120445000I268750J0D01*
G01*
G37*
%TD*%
%TO.C,D21*%
G36*
G01*
X112167750Y-122320000D02*
X113130250Y-122320000D01*
G75*
G02*
X113399000Y-122588750I0J-268750D01*
G01*
X113399000Y-123126250D01*
G75*
G02*
X113130250Y-123395000I-268750J0D01*
G01*
X112167750Y-123395000D01*
G75*
G02*
X111899000Y-123126250I0J268750D01*
G01*
X111899000Y-122588750D01*
G75*
G02*
X112167750Y-122320000I268750J0D01*
G01*
G37*
G36*
G01*
X112167750Y-120445000D02*
X113130250Y-120445000D01*
G75*
G02*
X113399000Y-120713750I0J-268750D01*
G01*
X113399000Y-121251250D01*
G75*
G02*
X113130250Y-121520000I-268750J0D01*
G01*
X112167750Y-121520000D01*
G75*
G02*
X111899000Y-121251250I0J268750D01*
G01*
X111899000Y-120713750D01*
G75*
G02*
X112167750Y-120445000I268750J0D01*
G01*
G37*
%TD*%
%TO.C,D20*%
G36*
G01*
X108357750Y-122320000D02*
X109320250Y-122320000D01*
G75*
G02*
X109589000Y-122588750I0J-268750D01*
G01*
X109589000Y-123126250D01*
G75*
G02*
X109320250Y-123395000I-268750J0D01*
G01*
X108357750Y-123395000D01*
G75*
G02*
X108089000Y-123126250I0J268750D01*
G01*
X108089000Y-122588750D01*
G75*
G02*
X108357750Y-122320000I268750J0D01*
G01*
G37*
G36*
G01*
X108357750Y-120445000D02*
X109320250Y-120445000D01*
G75*
G02*
X109589000Y-120713750I0J-268750D01*
G01*
X109589000Y-121251250D01*
G75*
G02*
X109320250Y-121520000I-268750J0D01*
G01*
X108357750Y-121520000D01*
G75*
G02*
X108089000Y-121251250I0J268750D01*
G01*
X108089000Y-120713750D01*
G75*
G02*
X108357750Y-120445000I268750J0D01*
G01*
G37*
%TD*%
%TO.C,D19*%
G36*
G01*
X104547750Y-122320000D02*
X105510250Y-122320000D01*
G75*
G02*
X105779000Y-122588750I0J-268750D01*
G01*
X105779000Y-123126250D01*
G75*
G02*
X105510250Y-123395000I-268750J0D01*
G01*
X104547750Y-123395000D01*
G75*
G02*
X104279000Y-123126250I0J268750D01*
G01*
X104279000Y-122588750D01*
G75*
G02*
X104547750Y-122320000I268750J0D01*
G01*
G37*
G36*
G01*
X104547750Y-120445000D02*
X105510250Y-120445000D01*
G75*
G02*
X105779000Y-120713750I0J-268750D01*
G01*
X105779000Y-121251250D01*
G75*
G02*
X105510250Y-121520000I-268750J0D01*
G01*
X104547750Y-121520000D01*
G75*
G02*
X104279000Y-121251250I0J268750D01*
G01*
X104279000Y-120713750D01*
G75*
G02*
X104547750Y-120445000I268750J0D01*
G01*
G37*
%TD*%
%TO.C,D18*%
G36*
G01*
X100737750Y-122320000D02*
X101700250Y-122320000D01*
G75*
G02*
X101969000Y-122588750I0J-268750D01*
G01*
X101969000Y-123126250D01*
G75*
G02*
X101700250Y-123395000I-268750J0D01*
G01*
X100737750Y-123395000D01*
G75*
G02*
X100469000Y-123126250I0J268750D01*
G01*
X100469000Y-122588750D01*
G75*
G02*
X100737750Y-122320000I268750J0D01*
G01*
G37*
G36*
G01*
X100737750Y-120445000D02*
X101700250Y-120445000D01*
G75*
G02*
X101969000Y-120713750I0J-268750D01*
G01*
X101969000Y-121251250D01*
G75*
G02*
X101700250Y-121520000I-268750J0D01*
G01*
X100737750Y-121520000D01*
G75*
G02*
X100469000Y-121251250I0J268750D01*
G01*
X100469000Y-120713750D01*
G75*
G02*
X100737750Y-120445000I268750J0D01*
G01*
G37*
%TD*%
%TO.C,D17*%
G36*
G01*
X96927750Y-122320000D02*
X97890250Y-122320000D01*
G75*
G02*
X98159000Y-122588750I0J-268750D01*
G01*
X98159000Y-123126250D01*
G75*
G02*
X97890250Y-123395000I-268750J0D01*
G01*
X96927750Y-123395000D01*
G75*
G02*
X96659000Y-123126250I0J268750D01*
G01*
X96659000Y-122588750D01*
G75*
G02*
X96927750Y-122320000I268750J0D01*
G01*
G37*
G36*
G01*
X96927750Y-120445000D02*
X97890250Y-120445000D01*
G75*
G02*
X98159000Y-120713750I0J-268750D01*
G01*
X98159000Y-121251250D01*
G75*
G02*
X97890250Y-121520000I-268750J0D01*
G01*
X96927750Y-121520000D01*
G75*
G02*
X96659000Y-121251250I0J268750D01*
G01*
X96659000Y-120713750D01*
G75*
G02*
X96927750Y-120445000I268750J0D01*
G01*
G37*
%TD*%
D13*
%TO.C,D16*%
X124079000Y-118748000D03*
X124079000Y-115948000D03*
%TD*%
%TO.C,D15*%
X120269000Y-118748000D03*
X120269000Y-115948000D03*
%TD*%
%TO.C,D14*%
X116459000Y-118748000D03*
X116459000Y-115948000D03*
%TD*%
%TO.C,D13*%
X112649000Y-118748000D03*
X112649000Y-115948000D03*
%TD*%
%TO.C,D12*%
X108839000Y-118748000D03*
X108839000Y-115948000D03*
%TD*%
%TO.C,D11*%
X105029000Y-118748000D03*
X105029000Y-115948000D03*
%TD*%
%TO.C,D10*%
X101219000Y-118748000D03*
X101219000Y-115948000D03*
%TD*%
%TO.C,D9*%
X97409000Y-118748000D03*
X97409000Y-115948000D03*
%TD*%
D14*
%TO.C,D8*%
X124587000Y-93444000D03*
X124587000Y-89944000D03*
%TD*%
%TO.C,D7*%
X120650000Y-93444000D03*
X120650000Y-89944000D03*
%TD*%
%TO.C,D6*%
X116713000Y-93444000D03*
X116713000Y-89944000D03*
%TD*%
%TO.C,D5*%
X112776000Y-93444000D03*
X112776000Y-89944000D03*
%TD*%
%TO.C,D4*%
X108839000Y-93444000D03*
X108839000Y-89944000D03*
%TD*%
%TO.C,D3*%
X104902000Y-93444000D03*
X104902000Y-89944000D03*
%TD*%
%TO.C,D2*%
X100965000Y-93444000D03*
X100965000Y-89944000D03*
%TD*%
%TO.C,D1*%
X97028000Y-93444000D03*
X97028000Y-89944000D03*
%TD*%
D11*
%TO.C,J1*%
X97028000Y-69215000D03*
X99568000Y-69215000D03*
X102108000Y-69215000D03*
X104648000Y-69215000D03*
X107188000Y-69215000D03*
X109728000Y-69215000D03*
X112268000Y-69215000D03*
X114808000Y-69215000D03*
X117348000Y-69215000D03*
X119888000Y-69215000D03*
X97028000Y-66675000D03*
X99568000Y-66675000D03*
X102108000Y-66675000D03*
X104648000Y-66675000D03*
X107188000Y-66675000D03*
X109728000Y-66675000D03*
X112268000Y-66675000D03*
X114808000Y-66675000D03*
X117348000Y-66675000D03*
G36*
G01*
X119252706Y-65775000D02*
X120523294Y-65775000D01*
G75*
G02*
X120788000Y-66039706I0J-264706D01*
G01*
X120788000Y-67310294D01*
G75*
G02*
X120523294Y-67575000I-264706J0D01*
G01*
X119252706Y-67575000D01*
G75*
G02*
X118988000Y-67310294I0J264706D01*
G01*
X118988000Y-66039706D01*
G75*
G02*
X119252706Y-65775000I264706J0D01*
G01*
G37*
%TD*%
M02*
