M48
; DRILL file {KiCad (5.1.6)-1} date 03/16/21 16:30:24
; FORMAT={-:-/ absolute / metric / decimal}
; #@! TF.CreationDate,2021-03-16T16:30:24+01:00
; #@! TF.GenerationSoftware,Kicad,Pcbnew,(5.1.6)-1
FMAT,2
METRIC
T1C0.400
T2C1.000
T3C1.200
T4C3.200
%
G90
G05
T1
X90.17Y-110.236
X90.551Y-62.738
X90.678Y-72.644
X91.059Y-83.82
X91.186Y-98.171
X97.028Y-88.392
X97.028Y-98.933
X97.409Y-104.902
X98.044Y-86.868
X98.679Y-72.644
X100.076Y-87.593
X100.965Y-88.392
X100.965Y-98.933
X101.219Y-104.902
X102.108Y-85.725
X102.235Y-75.946
X103.251Y-88.392
X104.394Y-74.422
X104.902Y-88.392
X104.902Y-98.933
X104.902Y-104.902
X105.791Y-87.63
X106.553Y-72.263
X107.188Y-85.926
X107.315Y-62.357
X108.204Y-75.819
X108.458Y-84.709
X108.839Y-88.392
X108.839Y-98.933
X108.839Y-104.902
X108.966Y-74.295
X111.633Y-72.136
X112.649Y-104.902
X112.776Y-88.392
X112.776Y-98.933
X114.3Y-74.93
X116.586Y-72.136
X116.586Y-104.902
X116.713Y-88.392
X116.713Y-98.933
X120.396Y-104.902
X120.65Y-88.392
X120.65Y-98.933
X124.46Y-104.902
X124.587Y-88.392
X124.587Y-98.933
X129.667Y-83.82
X129.667Y-98.044
X129.794Y-110.363
X129.921Y-72.517
X130.048Y-63.119
T2
X97.028Y-66.675
X97.028Y-69.215
X99.568Y-66.675
X99.568Y-69.215
X102.108Y-66.675
X102.108Y-69.215
X104.648Y-66.675
X104.648Y-69.215
X107.188Y-66.675
X107.188Y-69.215
X109.728Y-66.675
X109.728Y-69.215
X112.268Y-66.675
X112.268Y-69.215
X114.808Y-66.675
X114.808Y-69.215
X117.348Y-66.675
X117.348Y-69.215
X119.888Y-66.675
X119.888Y-69.215
X97.028Y-78.994
X97.028Y-81.534
X99.568Y-78.994
X99.568Y-81.534
X102.108Y-78.994
X102.108Y-81.534
X104.648Y-78.994
X104.648Y-81.534
X107.188Y-78.994
X107.188Y-81.534
X109.728Y-78.994
X109.728Y-81.534
X112.268Y-78.994
X112.268Y-81.534
X114.808Y-78.994
X114.808Y-81.534
X117.348Y-78.994
X117.348Y-81.534
X119.888Y-78.994
X119.888Y-81.534
T3
X93.599Y-129.54
X97.409Y-129.54
X101.219Y-129.54
X105.029Y-129.54
X108.839Y-129.54
X112.649Y-129.54
X116.459Y-129.54
X120.269Y-129.54
X124.079Y-129.54
T4
X86.487Y-64.008
X134.747Y-134.62
X86.487Y-134.62
X134.747Y-64.008
T0
M30
