%TF.GenerationSoftware,KiCad,Pcbnew,(5.1.6)-1*%
%TF.CreationDate,2021-03-16T16:30:30+01:00*%
%TF.ProjectId,24v-logic,3234762d-6c6f-4676-9963-2e6b69636164,rev?*%
%TF.SameCoordinates,Original*%
%TF.FileFunction,Legend,Top*%
%TF.FilePolarity,Positive*%
%FSLAX46Y46*%
G04 Gerber Fmt 4.6, Leading zero omitted, Abs format (unit mm)*
G04 Created by KiCad (PCBNEW (5.1.6)-1) date 2021-03-16 16:30:30*
%MOMM*%
%LPD*%
G01*
G04 APERTURE LIST*
%ADD10C,0.150000*%
%ADD11C,0.120000*%
G04 APERTURE END LIST*
D10*
X125507761Y-121554904D02*
X125412523Y-121459666D01*
X125364904Y-121364428D01*
X125317285Y-121173952D01*
X125317285Y-121078714D01*
X125364904Y-120888238D01*
X125412523Y-120793000D01*
X125507761Y-120697761D01*
X125698238Y-120697761D01*
X125793476Y-120793000D01*
X125841095Y-120888238D01*
X125888714Y-121078714D01*
X125888714Y-121173952D01*
X125841095Y-121364428D01*
X125793476Y-121459666D01*
X125698238Y-121554904D01*
X125507761Y-121554904D01*
X125412523Y-121650142D01*
X125364904Y-121745380D01*
X125317285Y-121935857D01*
X125317285Y-122316809D01*
X125364904Y-122507285D01*
X125412523Y-122602523D01*
X125507761Y-122697761D01*
X125698238Y-122697761D01*
X125793476Y-122602523D01*
X125841095Y-122507285D01*
X125888714Y-122316809D01*
X125888714Y-121935857D01*
X125841095Y-121745380D01*
X125793476Y-121650142D01*
X125698238Y-121554904D01*
X121459666Y-120697761D02*
X122126333Y-120697761D01*
X121697761Y-122697761D01*
X118173476Y-120824761D02*
X117983000Y-120824761D01*
X117887761Y-120920000D01*
X117840142Y-121015238D01*
X117744904Y-121300952D01*
X117697285Y-121681904D01*
X117697285Y-122443809D01*
X117744904Y-122634285D01*
X117792523Y-122729523D01*
X117887761Y-122824761D01*
X118078238Y-122824761D01*
X118173476Y-122729523D01*
X118221095Y-122634285D01*
X118268714Y-122443809D01*
X118268714Y-121967619D01*
X118221095Y-121777142D01*
X118173476Y-121681904D01*
X118078238Y-121586666D01*
X117887761Y-121586666D01*
X117792523Y-121681904D01*
X117744904Y-121777142D01*
X117697285Y-121967619D01*
X114411095Y-120824761D02*
X113934904Y-120824761D01*
X113887285Y-121777142D01*
X113934904Y-121681904D01*
X114030142Y-121586666D01*
X114268238Y-121586666D01*
X114363476Y-121681904D01*
X114411095Y-121777142D01*
X114458714Y-121967619D01*
X114458714Y-122443809D01*
X114411095Y-122634285D01*
X114363476Y-122729523D01*
X114268238Y-122824761D01*
X114030142Y-122824761D01*
X113934904Y-122729523D01*
X113887285Y-122634285D01*
X110553476Y-121491428D02*
X110553476Y-122824761D01*
X110315380Y-120729523D02*
X110077285Y-122158095D01*
X110696333Y-122158095D01*
X106219666Y-120951761D02*
X106838714Y-120951761D01*
X106505380Y-121713666D01*
X106648238Y-121713666D01*
X106743476Y-121808904D01*
X106791095Y-121904142D01*
X106838714Y-122094619D01*
X106838714Y-122570809D01*
X106791095Y-122761285D01*
X106743476Y-122856523D01*
X106648238Y-122951761D01*
X106362523Y-122951761D01*
X106267285Y-122856523D01*
X106219666Y-122761285D01*
X102457285Y-121142238D02*
X102504904Y-121047000D01*
X102600142Y-120951761D01*
X102838238Y-120951761D01*
X102933476Y-121047000D01*
X102981095Y-121142238D01*
X103028714Y-121332714D01*
X103028714Y-121523190D01*
X102981095Y-121808904D01*
X102409666Y-122951761D01*
X103028714Y-122951761D01*
X99218714Y-122824761D02*
X98647285Y-122824761D01*
X98933000Y-122824761D02*
X98933000Y-120824761D01*
X98837761Y-121110476D01*
X98742523Y-121300952D01*
X98647285Y-121396190D01*
X123856761Y-134635904D02*
X123761523Y-134540666D01*
X123713904Y-134445428D01*
X123666285Y-134254952D01*
X123666285Y-134159714D01*
X123713904Y-133969238D01*
X123761523Y-133874000D01*
X123856761Y-133778761D01*
X124047238Y-133778761D01*
X124142476Y-133874000D01*
X124190095Y-133969238D01*
X124237714Y-134159714D01*
X124237714Y-134254952D01*
X124190095Y-134445428D01*
X124142476Y-134540666D01*
X124047238Y-134635904D01*
X123856761Y-134635904D01*
X123761523Y-134731142D01*
X123713904Y-134826380D01*
X123666285Y-135016857D01*
X123666285Y-135397809D01*
X123713904Y-135588285D01*
X123761523Y-135683523D01*
X123856761Y-135778761D01*
X124047238Y-135778761D01*
X124142476Y-135683523D01*
X124190095Y-135588285D01*
X124237714Y-135397809D01*
X124237714Y-135016857D01*
X124190095Y-134826380D01*
X124142476Y-134731142D01*
X124047238Y-134635904D01*
X119808666Y-133778761D02*
X120475333Y-133778761D01*
X120046761Y-135778761D01*
X116522476Y-133778761D02*
X116332000Y-133778761D01*
X116236761Y-133874000D01*
X116189142Y-133969238D01*
X116093904Y-134254952D01*
X116046285Y-134635904D01*
X116046285Y-135397809D01*
X116093904Y-135588285D01*
X116141523Y-135683523D01*
X116236761Y-135778761D01*
X116427238Y-135778761D01*
X116522476Y-135683523D01*
X116570095Y-135588285D01*
X116617714Y-135397809D01*
X116617714Y-134921619D01*
X116570095Y-134731142D01*
X116522476Y-134635904D01*
X116427238Y-134540666D01*
X116236761Y-134540666D01*
X116141523Y-134635904D01*
X116093904Y-134731142D01*
X116046285Y-134921619D01*
X112760095Y-133778761D02*
X112283904Y-133778761D01*
X112236285Y-134731142D01*
X112283904Y-134635904D01*
X112379142Y-134540666D01*
X112617238Y-134540666D01*
X112712476Y-134635904D01*
X112760095Y-134731142D01*
X112807714Y-134921619D01*
X112807714Y-135397809D01*
X112760095Y-135588285D01*
X112712476Y-135683523D01*
X112617238Y-135778761D01*
X112379142Y-135778761D01*
X112283904Y-135683523D01*
X112236285Y-135588285D01*
X108902476Y-134445428D02*
X108902476Y-135778761D01*
X108664380Y-133683523D02*
X108426285Y-135112095D01*
X109045333Y-135112095D01*
X104568666Y-133778761D02*
X105187714Y-133778761D01*
X104854380Y-134540666D01*
X104997238Y-134540666D01*
X105092476Y-134635904D01*
X105140095Y-134731142D01*
X105187714Y-134921619D01*
X105187714Y-135397809D01*
X105140095Y-135588285D01*
X105092476Y-135683523D01*
X104997238Y-135778761D01*
X104711523Y-135778761D01*
X104616285Y-135683523D01*
X104568666Y-135588285D01*
X100806285Y-133969238D02*
X100853904Y-133874000D01*
X100949142Y-133778761D01*
X101187238Y-133778761D01*
X101282476Y-133874000D01*
X101330095Y-133969238D01*
X101377714Y-134159714D01*
X101377714Y-134350190D01*
X101330095Y-134635904D01*
X100758666Y-135778761D01*
X101377714Y-135778761D01*
X97567714Y-135778761D02*
X96996285Y-135778761D01*
X97282000Y-135778761D02*
X97282000Y-133778761D01*
X97186761Y-134064476D01*
X97091523Y-134254952D01*
X96996285Y-134350190D01*
X92710095Y-122190000D02*
X92614857Y-122094761D01*
X92472000Y-122094761D01*
X92329142Y-122190000D01*
X92233904Y-122380476D01*
X92186285Y-122570952D01*
X92138666Y-122951904D01*
X92138666Y-123237619D01*
X92186285Y-123618571D01*
X92233904Y-123809047D01*
X92329142Y-123999523D01*
X92472000Y-124094761D01*
X92567238Y-124094761D01*
X92710095Y-123999523D01*
X92757714Y-123904285D01*
X92757714Y-123237619D01*
X92567238Y-123237619D01*
X93186285Y-124094761D02*
X93186285Y-122094761D01*
X93757714Y-124094761D01*
X93757714Y-122094761D01*
X94233904Y-124094761D02*
X94233904Y-122094761D01*
X94472000Y-122094761D01*
X94614857Y-122190000D01*
X94710095Y-122380476D01*
X94757714Y-122570952D01*
X94805333Y-122951904D01*
X94805333Y-123237619D01*
X94757714Y-123618571D01*
X94710095Y-123809047D01*
X94614857Y-123999523D01*
X94472000Y-124094761D01*
X94233904Y-124094761D01*
X92837095Y-133874000D02*
X92741857Y-133778761D01*
X92599000Y-133778761D01*
X92456142Y-133874000D01*
X92360904Y-134064476D01*
X92313285Y-134254952D01*
X92265666Y-134635904D01*
X92265666Y-134921619D01*
X92313285Y-135302571D01*
X92360904Y-135493047D01*
X92456142Y-135683523D01*
X92599000Y-135778761D01*
X92694238Y-135778761D01*
X92837095Y-135683523D01*
X92884714Y-135588285D01*
X92884714Y-134921619D01*
X92694238Y-134921619D01*
X93313285Y-135778761D02*
X93313285Y-133778761D01*
X93884714Y-135778761D01*
X93884714Y-133778761D01*
X94360904Y-135778761D02*
X94360904Y-133778761D01*
X94599000Y-133778761D01*
X94741857Y-133874000D01*
X94837095Y-134064476D01*
X94884714Y-134254952D01*
X94932333Y-134635904D01*
X94932333Y-134921619D01*
X94884714Y-135302571D01*
X94837095Y-135493047D01*
X94741857Y-135683523D01*
X94599000Y-135778761D01*
X94360904Y-135778761D01*
D11*
%TO.C,R24*%
X126297000Y-110246748D02*
X126297000Y-113019252D01*
X122877000Y-110246748D02*
X122877000Y-113019252D01*
%TO.C,R23*%
X122360000Y-110246748D02*
X122360000Y-113019252D01*
X118940000Y-110246748D02*
X118940000Y-113019252D01*
%TO.C,R22*%
X118423000Y-110246748D02*
X118423000Y-113019252D01*
X115003000Y-110246748D02*
X115003000Y-113019252D01*
%TO.C,R21*%
X114486000Y-110246748D02*
X114486000Y-113019252D01*
X111066000Y-110246748D02*
X111066000Y-113019252D01*
%TO.C,R20*%
X110549000Y-110246748D02*
X110549000Y-113019252D01*
X107129000Y-110246748D02*
X107129000Y-113019252D01*
%TO.C,R19*%
X106612000Y-110246748D02*
X106612000Y-113019252D01*
X103192000Y-110246748D02*
X103192000Y-113019252D01*
%TO.C,R18*%
X102675000Y-110246748D02*
X102675000Y-113019252D01*
X99255000Y-110246748D02*
X99255000Y-113019252D01*
%TO.C,R17*%
X98738000Y-110246748D02*
X98738000Y-113019252D01*
X95318000Y-110246748D02*
X95318000Y-113019252D01*
%TO.C,R16*%
X126297000Y-96657748D02*
X126297000Y-99430252D01*
X122877000Y-96657748D02*
X122877000Y-99430252D01*
%TO.C,R15*%
X126297000Y-102880748D02*
X126297000Y-105653252D01*
X122877000Y-102880748D02*
X122877000Y-105653252D01*
%TO.C,R14*%
X110549000Y-96657748D02*
X110549000Y-99430252D01*
X107129000Y-96657748D02*
X107129000Y-99430252D01*
%TO.C,R13*%
X110549000Y-102880748D02*
X110549000Y-105653252D01*
X107129000Y-102880748D02*
X107129000Y-105653252D01*
%TO.C,R12*%
X122360000Y-96657748D02*
X122360000Y-99430252D01*
X118940000Y-96657748D02*
X118940000Y-99430252D01*
%TO.C,R11*%
X122360000Y-102880748D02*
X122360000Y-105653252D01*
X118940000Y-102880748D02*
X118940000Y-105653252D01*
%TO.C,R10*%
X106612000Y-96657748D02*
X106612000Y-99430252D01*
X103192000Y-96657748D02*
X103192000Y-99430252D01*
%TO.C,R9*%
X106612000Y-102880748D02*
X106612000Y-105653252D01*
X103192000Y-102880748D02*
X103192000Y-105653252D01*
%TO.C,R8*%
X118423000Y-96657748D02*
X118423000Y-99430252D01*
X115003000Y-96657748D02*
X115003000Y-99430252D01*
%TO.C,R7*%
X118423000Y-102880748D02*
X118423000Y-105653252D01*
X115003000Y-102880748D02*
X115003000Y-105653252D01*
%TO.C,R6*%
X102675000Y-96657748D02*
X102675000Y-99430252D01*
X99255000Y-96657748D02*
X99255000Y-99430252D01*
%TO.C,R5*%
X102675000Y-102880748D02*
X102675000Y-105653252D01*
X99255000Y-102880748D02*
X99255000Y-105653252D01*
%TO.C,R4*%
X114486000Y-96657748D02*
X114486000Y-99430252D01*
X111066000Y-96657748D02*
X111066000Y-99430252D01*
%TO.C,R3*%
X114486000Y-102880748D02*
X114486000Y-105653252D01*
X111066000Y-102880748D02*
X111066000Y-105653252D01*
%TO.C,R2*%
X98738000Y-96657748D02*
X98738000Y-99430252D01*
X95318000Y-96657748D02*
X95318000Y-99430252D01*
%TO.C,R1*%
X98738000Y-102880748D02*
X98738000Y-105653252D01*
X95318000Y-102880748D02*
X95318000Y-105653252D01*
%TO.C,J3*%
X125098000Y-75704000D02*
X125098000Y-84824000D01*
X125098000Y-84824000D02*
X91818000Y-84824000D01*
X91818000Y-84824000D02*
X91818000Y-75704000D01*
X91818000Y-75704000D02*
X125098000Y-75704000D01*
X110508000Y-75704000D02*
X110508000Y-77014000D01*
X110508000Y-77014000D02*
X123798000Y-77014000D01*
X123798000Y-77014000D02*
X123798000Y-83514000D01*
X123798000Y-83514000D02*
X93118000Y-83514000D01*
X93118000Y-83514000D02*
X93118000Y-77014000D01*
X93118000Y-77014000D02*
X106408000Y-77014000D01*
X106408000Y-77014000D02*
X106408000Y-77014000D01*
X106408000Y-77014000D02*
X106408000Y-75704000D01*
X119888000Y-75314000D02*
X120388000Y-74314000D01*
X120388000Y-74314000D02*
X119388000Y-74314000D01*
X119388000Y-74314000D02*
X119888000Y-75314000D01*
%TO.C,J2*%
X124828647Y-131789845D02*
G75*
G03*
X123329000Y-131790000I-749647J-1700155D01*
G01*
X121018647Y-131789845D02*
G75*
G03*
X119519000Y-131790000I-749647J-1700155D01*
G01*
X117208647Y-131789845D02*
G75*
G03*
X115709000Y-131790000I-749647J-1700155D01*
G01*
X113398647Y-131789845D02*
G75*
G03*
X111899000Y-131790000I-749647J-1700155D01*
G01*
X109588647Y-131789845D02*
G75*
G03*
X108089000Y-131790000I-749647J-1700155D01*
G01*
X105778647Y-131789845D02*
G75*
G03*
X104279000Y-131790000I-749647J-1700155D01*
G01*
X101968647Y-131789845D02*
G75*
G03*
X100469000Y-131790000I-749647J-1700155D01*
G01*
X98158647Y-131789845D02*
G75*
G03*
X96659000Y-131790000I-749647J-1700155D01*
G01*
X94348647Y-131789845D02*
G75*
G03*
X92849000Y-131790000I-749647J-1700155D01*
G01*
X90889000Y-125180000D02*
X90889000Y-132650000D01*
X90889000Y-132650000D02*
X126789000Y-132650000D01*
X126789000Y-132650000D02*
X126789000Y-125180000D01*
X126789000Y-125180000D02*
X90889000Y-125180000D01*
X92849000Y-131790000D02*
X92099000Y-131790000D01*
X92099000Y-131790000D02*
X92099000Y-127490000D01*
X92099000Y-127490000D02*
X92849000Y-127490000D01*
X92849000Y-127490000D02*
X92849000Y-127140000D01*
X92849000Y-127140000D02*
X92349000Y-127140000D01*
X92349000Y-127140000D02*
X92099000Y-126140000D01*
X92099000Y-126140000D02*
X95099000Y-126140000D01*
X95099000Y-126140000D02*
X94849000Y-127140000D01*
X94849000Y-127140000D02*
X94349000Y-127140000D01*
X94349000Y-127140000D02*
X94349000Y-127490000D01*
X94349000Y-127490000D02*
X95099000Y-127490000D01*
X95099000Y-127490000D02*
X95099000Y-131790000D01*
X95099000Y-131790000D02*
X94349000Y-131790000D01*
X96659000Y-131790000D02*
X95909000Y-131790000D01*
X95909000Y-131790000D02*
X95909000Y-127490000D01*
X95909000Y-127490000D02*
X96659000Y-127490000D01*
X96659000Y-127490000D02*
X96659000Y-127140000D01*
X96659000Y-127140000D02*
X96159000Y-127140000D01*
X96159000Y-127140000D02*
X95909000Y-126140000D01*
X95909000Y-126140000D02*
X98909000Y-126140000D01*
X98909000Y-126140000D02*
X98659000Y-127140000D01*
X98659000Y-127140000D02*
X98159000Y-127140000D01*
X98159000Y-127140000D02*
X98159000Y-127490000D01*
X98159000Y-127490000D02*
X98909000Y-127490000D01*
X98909000Y-127490000D02*
X98909000Y-131790000D01*
X98909000Y-131790000D02*
X98159000Y-131790000D01*
X100469000Y-131790000D02*
X99719000Y-131790000D01*
X99719000Y-131790000D02*
X99719000Y-127490000D01*
X99719000Y-127490000D02*
X100469000Y-127490000D01*
X100469000Y-127490000D02*
X100469000Y-127140000D01*
X100469000Y-127140000D02*
X99969000Y-127140000D01*
X99969000Y-127140000D02*
X99719000Y-126140000D01*
X99719000Y-126140000D02*
X102719000Y-126140000D01*
X102719000Y-126140000D02*
X102469000Y-127140000D01*
X102469000Y-127140000D02*
X101969000Y-127140000D01*
X101969000Y-127140000D02*
X101969000Y-127490000D01*
X101969000Y-127490000D02*
X102719000Y-127490000D01*
X102719000Y-127490000D02*
X102719000Y-131790000D01*
X102719000Y-131790000D02*
X101969000Y-131790000D01*
X104279000Y-131790000D02*
X103529000Y-131790000D01*
X103529000Y-131790000D02*
X103529000Y-127490000D01*
X103529000Y-127490000D02*
X104279000Y-127490000D01*
X104279000Y-127490000D02*
X104279000Y-127140000D01*
X104279000Y-127140000D02*
X103779000Y-127140000D01*
X103779000Y-127140000D02*
X103529000Y-126140000D01*
X103529000Y-126140000D02*
X106529000Y-126140000D01*
X106529000Y-126140000D02*
X106279000Y-127140000D01*
X106279000Y-127140000D02*
X105779000Y-127140000D01*
X105779000Y-127140000D02*
X105779000Y-127490000D01*
X105779000Y-127490000D02*
X106529000Y-127490000D01*
X106529000Y-127490000D02*
X106529000Y-131790000D01*
X106529000Y-131790000D02*
X105779000Y-131790000D01*
X108089000Y-131790000D02*
X107339000Y-131790000D01*
X107339000Y-131790000D02*
X107339000Y-127490000D01*
X107339000Y-127490000D02*
X108089000Y-127490000D01*
X108089000Y-127490000D02*
X108089000Y-127140000D01*
X108089000Y-127140000D02*
X107589000Y-127140000D01*
X107589000Y-127140000D02*
X107339000Y-126140000D01*
X107339000Y-126140000D02*
X110339000Y-126140000D01*
X110339000Y-126140000D02*
X110089000Y-127140000D01*
X110089000Y-127140000D02*
X109589000Y-127140000D01*
X109589000Y-127140000D02*
X109589000Y-127490000D01*
X109589000Y-127490000D02*
X110339000Y-127490000D01*
X110339000Y-127490000D02*
X110339000Y-131790000D01*
X110339000Y-131790000D02*
X109589000Y-131790000D01*
X111899000Y-131790000D02*
X111149000Y-131790000D01*
X111149000Y-131790000D02*
X111149000Y-127490000D01*
X111149000Y-127490000D02*
X111899000Y-127490000D01*
X111899000Y-127490000D02*
X111899000Y-127140000D01*
X111899000Y-127140000D02*
X111399000Y-127140000D01*
X111399000Y-127140000D02*
X111149000Y-126140000D01*
X111149000Y-126140000D02*
X114149000Y-126140000D01*
X114149000Y-126140000D02*
X113899000Y-127140000D01*
X113899000Y-127140000D02*
X113399000Y-127140000D01*
X113399000Y-127140000D02*
X113399000Y-127490000D01*
X113399000Y-127490000D02*
X114149000Y-127490000D01*
X114149000Y-127490000D02*
X114149000Y-131790000D01*
X114149000Y-131790000D02*
X113399000Y-131790000D01*
X115709000Y-131790000D02*
X114959000Y-131790000D01*
X114959000Y-131790000D02*
X114959000Y-127490000D01*
X114959000Y-127490000D02*
X115709000Y-127490000D01*
X115709000Y-127490000D02*
X115709000Y-127140000D01*
X115709000Y-127140000D02*
X115209000Y-127140000D01*
X115209000Y-127140000D02*
X114959000Y-126140000D01*
X114959000Y-126140000D02*
X117959000Y-126140000D01*
X117959000Y-126140000D02*
X117709000Y-127140000D01*
X117709000Y-127140000D02*
X117209000Y-127140000D01*
X117209000Y-127140000D02*
X117209000Y-127490000D01*
X117209000Y-127490000D02*
X117959000Y-127490000D01*
X117959000Y-127490000D02*
X117959000Y-131790000D01*
X117959000Y-131790000D02*
X117209000Y-131790000D01*
X119519000Y-131790000D02*
X118769000Y-131790000D01*
X118769000Y-131790000D02*
X118769000Y-127490000D01*
X118769000Y-127490000D02*
X119519000Y-127490000D01*
X119519000Y-127490000D02*
X119519000Y-127140000D01*
X119519000Y-127140000D02*
X119019000Y-127140000D01*
X119019000Y-127140000D02*
X118769000Y-126140000D01*
X118769000Y-126140000D02*
X121769000Y-126140000D01*
X121769000Y-126140000D02*
X121519000Y-127140000D01*
X121519000Y-127140000D02*
X121019000Y-127140000D01*
X121019000Y-127140000D02*
X121019000Y-127490000D01*
X121019000Y-127490000D02*
X121769000Y-127490000D01*
X121769000Y-127490000D02*
X121769000Y-131790000D01*
X121769000Y-131790000D02*
X121019000Y-131790000D01*
X123329000Y-131790000D02*
X122579000Y-131790000D01*
X122579000Y-131790000D02*
X122579000Y-127490000D01*
X122579000Y-127490000D02*
X123329000Y-127490000D01*
X123329000Y-127490000D02*
X123329000Y-127140000D01*
X123329000Y-127140000D02*
X122829000Y-127140000D01*
X122829000Y-127140000D02*
X122579000Y-126140000D01*
X122579000Y-126140000D02*
X125579000Y-126140000D01*
X125579000Y-126140000D02*
X125329000Y-127140000D01*
X125329000Y-127140000D02*
X124829000Y-127140000D01*
X124829000Y-127140000D02*
X124829000Y-127490000D01*
X124829000Y-127490000D02*
X125579000Y-127490000D01*
X125579000Y-127490000D02*
X125579000Y-131790000D01*
X125579000Y-131790000D02*
X124829000Y-131790000D01*
X90499000Y-126040000D02*
X90499000Y-124790000D01*
X90499000Y-124790000D02*
X92499000Y-124790000D01*
%TO.C,D24*%
X125039000Y-122920000D02*
X125039000Y-120235000D01*
X125039000Y-120235000D02*
X123119000Y-120235000D01*
X123119000Y-120235000D02*
X123119000Y-122920000D01*
%TO.C,D23*%
X121229000Y-122920000D02*
X121229000Y-120235000D01*
X121229000Y-120235000D02*
X119309000Y-120235000D01*
X119309000Y-120235000D02*
X119309000Y-122920000D01*
%TO.C,D22*%
X117419000Y-122920000D02*
X117419000Y-120235000D01*
X117419000Y-120235000D02*
X115499000Y-120235000D01*
X115499000Y-120235000D02*
X115499000Y-122920000D01*
%TO.C,D21*%
X113609000Y-122920000D02*
X113609000Y-120235000D01*
X113609000Y-120235000D02*
X111689000Y-120235000D01*
X111689000Y-120235000D02*
X111689000Y-122920000D01*
%TO.C,D20*%
X109799000Y-122920000D02*
X109799000Y-120235000D01*
X109799000Y-120235000D02*
X107879000Y-120235000D01*
X107879000Y-120235000D02*
X107879000Y-122920000D01*
%TO.C,D19*%
X105989000Y-122920000D02*
X105989000Y-120235000D01*
X105989000Y-120235000D02*
X104069000Y-120235000D01*
X104069000Y-120235000D02*
X104069000Y-122920000D01*
%TO.C,D18*%
X102179000Y-122920000D02*
X102179000Y-120235000D01*
X102179000Y-120235000D02*
X100259000Y-120235000D01*
X100259000Y-120235000D02*
X100259000Y-122920000D01*
%TO.C,D17*%
X98369000Y-122920000D02*
X98369000Y-120235000D01*
X98369000Y-120235000D02*
X96449000Y-120235000D01*
X96449000Y-120235000D02*
X96449000Y-122920000D01*
%TO.C,D16*%
X125079000Y-115148000D02*
X123079000Y-115148000D01*
X123079000Y-115148000D02*
X123079000Y-118998000D01*
X125079000Y-115148000D02*
X125079000Y-118998000D01*
%TO.C,D15*%
X121269000Y-115148000D02*
X119269000Y-115148000D01*
X119269000Y-115148000D02*
X119269000Y-118998000D01*
X121269000Y-115148000D02*
X121269000Y-118998000D01*
%TO.C,D14*%
X117459000Y-115148000D02*
X115459000Y-115148000D01*
X115459000Y-115148000D02*
X115459000Y-118998000D01*
X117459000Y-115148000D02*
X117459000Y-118998000D01*
%TO.C,D13*%
X113649000Y-115148000D02*
X111649000Y-115148000D01*
X111649000Y-115148000D02*
X111649000Y-118998000D01*
X113649000Y-115148000D02*
X113649000Y-118998000D01*
%TO.C,D12*%
X109839000Y-115148000D02*
X107839000Y-115148000D01*
X107839000Y-115148000D02*
X107839000Y-118998000D01*
X109839000Y-115148000D02*
X109839000Y-118998000D01*
%TO.C,D11*%
X106029000Y-115148000D02*
X104029000Y-115148000D01*
X104029000Y-115148000D02*
X104029000Y-118998000D01*
X106029000Y-115148000D02*
X106029000Y-118998000D01*
%TO.C,D10*%
X102219000Y-115148000D02*
X100219000Y-115148000D01*
X100219000Y-115148000D02*
X100219000Y-118998000D01*
X102219000Y-115148000D02*
X102219000Y-118998000D01*
%TO.C,D9*%
X98409000Y-115148000D02*
X96409000Y-115148000D01*
X96409000Y-115148000D02*
X96409000Y-118998000D01*
X98409000Y-115148000D02*
X98409000Y-118998000D01*
%TO.C,D8*%
X125587000Y-93444000D02*
X125587000Y-89144000D01*
X125587000Y-89144000D02*
X123587000Y-89144000D01*
X123587000Y-89144000D02*
X123587000Y-93444000D01*
%TO.C,D7*%
X121650000Y-93444000D02*
X121650000Y-89144000D01*
X121650000Y-89144000D02*
X119650000Y-89144000D01*
X119650000Y-89144000D02*
X119650000Y-93444000D01*
%TO.C,D6*%
X117713000Y-93444000D02*
X117713000Y-89144000D01*
X117713000Y-89144000D02*
X115713000Y-89144000D01*
X115713000Y-89144000D02*
X115713000Y-93444000D01*
%TO.C,D5*%
X113776000Y-93444000D02*
X113776000Y-89144000D01*
X113776000Y-89144000D02*
X111776000Y-89144000D01*
X111776000Y-89144000D02*
X111776000Y-93444000D01*
%TO.C,D4*%
X109839000Y-93444000D02*
X109839000Y-89144000D01*
X109839000Y-89144000D02*
X107839000Y-89144000D01*
X107839000Y-89144000D02*
X107839000Y-93444000D01*
%TO.C,D3*%
X105902000Y-93444000D02*
X105902000Y-89144000D01*
X105902000Y-89144000D02*
X103902000Y-89144000D01*
X103902000Y-89144000D02*
X103902000Y-93444000D01*
%TO.C,D2*%
X101965000Y-93444000D02*
X101965000Y-89144000D01*
X101965000Y-89144000D02*
X99965000Y-89144000D01*
X99965000Y-89144000D02*
X99965000Y-93444000D01*
%TO.C,D1*%
X98028000Y-93444000D02*
X98028000Y-89144000D01*
X98028000Y-89144000D02*
X96028000Y-89144000D01*
X96028000Y-89144000D02*
X96028000Y-93444000D01*
%TO.C,J1*%
X125098000Y-63385000D02*
X125098000Y-72505000D01*
X125098000Y-72505000D02*
X91818000Y-72505000D01*
X91818000Y-72505000D02*
X91818000Y-63385000D01*
X91818000Y-63385000D02*
X125098000Y-63385000D01*
X110508000Y-63385000D02*
X110508000Y-64695000D01*
X110508000Y-64695000D02*
X123798000Y-64695000D01*
X123798000Y-64695000D02*
X123798000Y-71195000D01*
X123798000Y-71195000D02*
X93118000Y-71195000D01*
X93118000Y-71195000D02*
X93118000Y-64695000D01*
X93118000Y-64695000D02*
X106408000Y-64695000D01*
X106408000Y-64695000D02*
X106408000Y-64695000D01*
X106408000Y-64695000D02*
X106408000Y-63385000D01*
X119888000Y-62995000D02*
X120388000Y-61995000D01*
X120388000Y-61995000D02*
X119388000Y-61995000D01*
X119388000Y-61995000D02*
X119888000Y-62995000D01*
%TO.C,H4*%
D10*
X133985095Y-130872380D02*
X133985095Y-129872380D01*
X133985095Y-130348571D02*
X134556523Y-130348571D01*
X134556523Y-130872380D02*
X134556523Y-129872380D01*
X135461285Y-130205714D02*
X135461285Y-130872380D01*
X135223190Y-129824761D02*
X134985095Y-130539047D01*
X135604142Y-130539047D01*
%TO.C,H3*%
X133985095Y-60260380D02*
X133985095Y-59260380D01*
X133985095Y-59736571D02*
X134556523Y-59736571D01*
X134556523Y-60260380D02*
X134556523Y-59260380D01*
X134937476Y-59260380D02*
X135556523Y-59260380D01*
X135223190Y-59641333D01*
X135366047Y-59641333D01*
X135461285Y-59688952D01*
X135508904Y-59736571D01*
X135556523Y-59831809D01*
X135556523Y-60069904D01*
X135508904Y-60165142D01*
X135461285Y-60212761D01*
X135366047Y-60260380D01*
X135080333Y-60260380D01*
X134985095Y-60212761D01*
X134937476Y-60165142D01*
%TO.C,H2*%
X85725095Y-130872380D02*
X85725095Y-129872380D01*
X85725095Y-130348571D02*
X86296523Y-130348571D01*
X86296523Y-130872380D02*
X86296523Y-129872380D01*
X86725095Y-129967619D02*
X86772714Y-129920000D01*
X86867952Y-129872380D01*
X87106047Y-129872380D01*
X87201285Y-129920000D01*
X87248904Y-129967619D01*
X87296523Y-130062857D01*
X87296523Y-130158095D01*
X87248904Y-130300952D01*
X86677476Y-130872380D01*
X87296523Y-130872380D01*
%TO.C,H1*%
X85725095Y-60260380D02*
X85725095Y-59260380D01*
X85725095Y-59736571D02*
X86296523Y-59736571D01*
X86296523Y-60260380D02*
X86296523Y-59260380D01*
X87296523Y-60260380D02*
X86725095Y-60260380D01*
X87010809Y-60260380D02*
X87010809Y-59260380D01*
X86915571Y-59403238D01*
X86820333Y-59498476D01*
X86725095Y-59546095D01*
%TO.C,R24*%
X123944142Y-111958380D02*
X123610809Y-111482190D01*
X123372714Y-111958380D02*
X123372714Y-110958380D01*
X123753666Y-110958380D01*
X123848904Y-111006000D01*
X123896523Y-111053619D01*
X123944142Y-111148857D01*
X123944142Y-111291714D01*
X123896523Y-111386952D01*
X123848904Y-111434571D01*
X123753666Y-111482190D01*
X123372714Y-111482190D01*
X124325095Y-111053619D02*
X124372714Y-111006000D01*
X124467952Y-110958380D01*
X124706047Y-110958380D01*
X124801285Y-111006000D01*
X124848904Y-111053619D01*
X124896523Y-111148857D01*
X124896523Y-111244095D01*
X124848904Y-111386952D01*
X124277476Y-111958380D01*
X124896523Y-111958380D01*
X125753666Y-111291714D02*
X125753666Y-111958380D01*
X125515571Y-110910761D02*
X125277476Y-111625047D01*
X125896523Y-111625047D01*
%TO.C,R23*%
X119880142Y-111958380D02*
X119546809Y-111482190D01*
X119308714Y-111958380D02*
X119308714Y-110958380D01*
X119689666Y-110958380D01*
X119784904Y-111006000D01*
X119832523Y-111053619D01*
X119880142Y-111148857D01*
X119880142Y-111291714D01*
X119832523Y-111386952D01*
X119784904Y-111434571D01*
X119689666Y-111482190D01*
X119308714Y-111482190D01*
X120261095Y-111053619D02*
X120308714Y-111006000D01*
X120403952Y-110958380D01*
X120642047Y-110958380D01*
X120737285Y-111006000D01*
X120784904Y-111053619D01*
X120832523Y-111148857D01*
X120832523Y-111244095D01*
X120784904Y-111386952D01*
X120213476Y-111958380D01*
X120832523Y-111958380D01*
X121165857Y-110958380D02*
X121784904Y-110958380D01*
X121451571Y-111339333D01*
X121594428Y-111339333D01*
X121689666Y-111386952D01*
X121737285Y-111434571D01*
X121784904Y-111529809D01*
X121784904Y-111767904D01*
X121737285Y-111863142D01*
X121689666Y-111910761D01*
X121594428Y-111958380D01*
X121308714Y-111958380D01*
X121213476Y-111910761D01*
X121165857Y-111863142D01*
%TO.C,R22*%
X116070142Y-111958380D02*
X115736809Y-111482190D01*
X115498714Y-111958380D02*
X115498714Y-110958380D01*
X115879666Y-110958380D01*
X115974904Y-111006000D01*
X116022523Y-111053619D01*
X116070142Y-111148857D01*
X116070142Y-111291714D01*
X116022523Y-111386952D01*
X115974904Y-111434571D01*
X115879666Y-111482190D01*
X115498714Y-111482190D01*
X116451095Y-111053619D02*
X116498714Y-111006000D01*
X116593952Y-110958380D01*
X116832047Y-110958380D01*
X116927285Y-111006000D01*
X116974904Y-111053619D01*
X117022523Y-111148857D01*
X117022523Y-111244095D01*
X116974904Y-111386952D01*
X116403476Y-111958380D01*
X117022523Y-111958380D01*
X117403476Y-111053619D02*
X117451095Y-111006000D01*
X117546333Y-110958380D01*
X117784428Y-110958380D01*
X117879666Y-111006000D01*
X117927285Y-111053619D01*
X117974904Y-111148857D01*
X117974904Y-111244095D01*
X117927285Y-111386952D01*
X117355857Y-111958380D01*
X117974904Y-111958380D01*
%TO.C,R21*%
X112133142Y-111958380D02*
X111799809Y-111482190D01*
X111561714Y-111958380D02*
X111561714Y-110958380D01*
X111942666Y-110958380D01*
X112037904Y-111006000D01*
X112085523Y-111053619D01*
X112133142Y-111148857D01*
X112133142Y-111291714D01*
X112085523Y-111386952D01*
X112037904Y-111434571D01*
X111942666Y-111482190D01*
X111561714Y-111482190D01*
X112514095Y-111053619D02*
X112561714Y-111006000D01*
X112656952Y-110958380D01*
X112895047Y-110958380D01*
X112990285Y-111006000D01*
X113037904Y-111053619D01*
X113085523Y-111148857D01*
X113085523Y-111244095D01*
X113037904Y-111386952D01*
X112466476Y-111958380D01*
X113085523Y-111958380D01*
X114037904Y-111958380D02*
X113466476Y-111958380D01*
X113752190Y-111958380D02*
X113752190Y-110958380D01*
X113656952Y-111101238D01*
X113561714Y-111196476D01*
X113466476Y-111244095D01*
%TO.C,R20*%
X108196142Y-111958380D02*
X107862809Y-111482190D01*
X107624714Y-111958380D02*
X107624714Y-110958380D01*
X108005666Y-110958380D01*
X108100904Y-111006000D01*
X108148523Y-111053619D01*
X108196142Y-111148857D01*
X108196142Y-111291714D01*
X108148523Y-111386952D01*
X108100904Y-111434571D01*
X108005666Y-111482190D01*
X107624714Y-111482190D01*
X108577095Y-111053619D02*
X108624714Y-111006000D01*
X108719952Y-110958380D01*
X108958047Y-110958380D01*
X109053285Y-111006000D01*
X109100904Y-111053619D01*
X109148523Y-111148857D01*
X109148523Y-111244095D01*
X109100904Y-111386952D01*
X108529476Y-111958380D01*
X109148523Y-111958380D01*
X109767571Y-110958380D02*
X109862809Y-110958380D01*
X109958047Y-111006000D01*
X110005666Y-111053619D01*
X110053285Y-111148857D01*
X110100904Y-111339333D01*
X110100904Y-111577428D01*
X110053285Y-111767904D01*
X110005666Y-111863142D01*
X109958047Y-111910761D01*
X109862809Y-111958380D01*
X109767571Y-111958380D01*
X109672333Y-111910761D01*
X109624714Y-111863142D01*
X109577095Y-111767904D01*
X109529476Y-111577428D01*
X109529476Y-111339333D01*
X109577095Y-111148857D01*
X109624714Y-111053619D01*
X109672333Y-111006000D01*
X109767571Y-110958380D01*
%TO.C,R19*%
X104132142Y-111958380D02*
X103798809Y-111482190D01*
X103560714Y-111958380D02*
X103560714Y-110958380D01*
X103941666Y-110958380D01*
X104036904Y-111006000D01*
X104084523Y-111053619D01*
X104132142Y-111148857D01*
X104132142Y-111291714D01*
X104084523Y-111386952D01*
X104036904Y-111434571D01*
X103941666Y-111482190D01*
X103560714Y-111482190D01*
X105084523Y-111958380D02*
X104513095Y-111958380D01*
X104798809Y-111958380D02*
X104798809Y-110958380D01*
X104703571Y-111101238D01*
X104608333Y-111196476D01*
X104513095Y-111244095D01*
X105560714Y-111958380D02*
X105751190Y-111958380D01*
X105846428Y-111910761D01*
X105894047Y-111863142D01*
X105989285Y-111720285D01*
X106036904Y-111529809D01*
X106036904Y-111148857D01*
X105989285Y-111053619D01*
X105941666Y-111006000D01*
X105846428Y-110958380D01*
X105655952Y-110958380D01*
X105560714Y-111006000D01*
X105513095Y-111053619D01*
X105465476Y-111148857D01*
X105465476Y-111386952D01*
X105513095Y-111482190D01*
X105560714Y-111529809D01*
X105655952Y-111577428D01*
X105846428Y-111577428D01*
X105941666Y-111529809D01*
X105989285Y-111482190D01*
X106036904Y-111386952D01*
%TO.C,R18*%
X100195142Y-111958380D02*
X99861809Y-111482190D01*
X99623714Y-111958380D02*
X99623714Y-110958380D01*
X100004666Y-110958380D01*
X100099904Y-111006000D01*
X100147523Y-111053619D01*
X100195142Y-111148857D01*
X100195142Y-111291714D01*
X100147523Y-111386952D01*
X100099904Y-111434571D01*
X100004666Y-111482190D01*
X99623714Y-111482190D01*
X101147523Y-111958380D02*
X100576095Y-111958380D01*
X100861809Y-111958380D02*
X100861809Y-110958380D01*
X100766571Y-111101238D01*
X100671333Y-111196476D01*
X100576095Y-111244095D01*
X101718952Y-111386952D02*
X101623714Y-111339333D01*
X101576095Y-111291714D01*
X101528476Y-111196476D01*
X101528476Y-111148857D01*
X101576095Y-111053619D01*
X101623714Y-111006000D01*
X101718952Y-110958380D01*
X101909428Y-110958380D01*
X102004666Y-111006000D01*
X102052285Y-111053619D01*
X102099904Y-111148857D01*
X102099904Y-111196476D01*
X102052285Y-111291714D01*
X102004666Y-111339333D01*
X101909428Y-111386952D01*
X101718952Y-111386952D01*
X101623714Y-111434571D01*
X101576095Y-111482190D01*
X101528476Y-111577428D01*
X101528476Y-111767904D01*
X101576095Y-111863142D01*
X101623714Y-111910761D01*
X101718952Y-111958380D01*
X101909428Y-111958380D01*
X102004666Y-111910761D01*
X102052285Y-111863142D01*
X102099904Y-111767904D01*
X102099904Y-111577428D01*
X102052285Y-111482190D01*
X102004666Y-111434571D01*
X101909428Y-111386952D01*
%TO.C,R17*%
X96385142Y-112212380D02*
X96051809Y-111736190D01*
X95813714Y-112212380D02*
X95813714Y-111212380D01*
X96194666Y-111212380D01*
X96289904Y-111260000D01*
X96337523Y-111307619D01*
X96385142Y-111402857D01*
X96385142Y-111545714D01*
X96337523Y-111640952D01*
X96289904Y-111688571D01*
X96194666Y-111736190D01*
X95813714Y-111736190D01*
X97337523Y-112212380D02*
X96766095Y-112212380D01*
X97051809Y-112212380D02*
X97051809Y-111212380D01*
X96956571Y-111355238D01*
X96861333Y-111450476D01*
X96766095Y-111498095D01*
X97670857Y-111212380D02*
X98337523Y-111212380D01*
X97908952Y-112212380D01*
%TO.C,R16*%
X127689380Y-98686857D02*
X127213190Y-99020190D01*
X127689380Y-99258285D02*
X126689380Y-99258285D01*
X126689380Y-98877333D01*
X126737000Y-98782095D01*
X126784619Y-98734476D01*
X126879857Y-98686857D01*
X127022714Y-98686857D01*
X127117952Y-98734476D01*
X127165571Y-98782095D01*
X127213190Y-98877333D01*
X127213190Y-99258285D01*
X127689380Y-97734476D02*
X127689380Y-98305904D01*
X127689380Y-98020190D02*
X126689380Y-98020190D01*
X126832238Y-98115428D01*
X126927476Y-98210666D01*
X126975095Y-98305904D01*
X126689380Y-96877333D02*
X126689380Y-97067809D01*
X126737000Y-97163047D01*
X126784619Y-97210666D01*
X126927476Y-97305904D01*
X127117952Y-97353523D01*
X127498904Y-97353523D01*
X127594142Y-97305904D01*
X127641761Y-97258285D01*
X127689380Y-97163047D01*
X127689380Y-96972571D01*
X127641761Y-96877333D01*
X127594142Y-96829714D01*
X127498904Y-96782095D01*
X127260809Y-96782095D01*
X127165571Y-96829714D01*
X127117952Y-96877333D01*
X127070333Y-96972571D01*
X127070333Y-97163047D01*
X127117952Y-97258285D01*
X127165571Y-97305904D01*
X127260809Y-97353523D01*
%TO.C,R15*%
X127689380Y-104909857D02*
X127213190Y-105243190D01*
X127689380Y-105481285D02*
X126689380Y-105481285D01*
X126689380Y-105100333D01*
X126737000Y-105005095D01*
X126784619Y-104957476D01*
X126879857Y-104909857D01*
X127022714Y-104909857D01*
X127117952Y-104957476D01*
X127165571Y-105005095D01*
X127213190Y-105100333D01*
X127213190Y-105481285D01*
X127689380Y-103957476D02*
X127689380Y-104528904D01*
X127689380Y-104243190D02*
X126689380Y-104243190D01*
X126832238Y-104338428D01*
X126927476Y-104433666D01*
X126975095Y-104528904D01*
X126689380Y-103052714D02*
X126689380Y-103528904D01*
X127165571Y-103576523D01*
X127117952Y-103528904D01*
X127070333Y-103433666D01*
X127070333Y-103195571D01*
X127117952Y-103100333D01*
X127165571Y-103052714D01*
X127260809Y-103005095D01*
X127498904Y-103005095D01*
X127594142Y-103052714D01*
X127641761Y-103100333D01*
X127689380Y-103195571D01*
X127689380Y-103433666D01*
X127641761Y-103528904D01*
X127594142Y-103576523D01*
%TO.C,R14*%
X111941380Y-98686857D02*
X111465190Y-99020190D01*
X111941380Y-99258285D02*
X110941380Y-99258285D01*
X110941380Y-98877333D01*
X110989000Y-98782095D01*
X111036619Y-98734476D01*
X111131857Y-98686857D01*
X111274714Y-98686857D01*
X111369952Y-98734476D01*
X111417571Y-98782095D01*
X111465190Y-98877333D01*
X111465190Y-99258285D01*
X111941380Y-97734476D02*
X111941380Y-98305904D01*
X111941380Y-98020190D02*
X110941380Y-98020190D01*
X111084238Y-98115428D01*
X111179476Y-98210666D01*
X111227095Y-98305904D01*
X111274714Y-96877333D02*
X111941380Y-96877333D01*
X110893761Y-97115428D02*
X111608047Y-97353523D01*
X111608047Y-96734476D01*
%TO.C,R13*%
X111941380Y-104909857D02*
X111465190Y-105243190D01*
X111941380Y-105481285D02*
X110941380Y-105481285D01*
X110941380Y-105100333D01*
X110989000Y-105005095D01*
X111036619Y-104957476D01*
X111131857Y-104909857D01*
X111274714Y-104909857D01*
X111369952Y-104957476D01*
X111417571Y-105005095D01*
X111465190Y-105100333D01*
X111465190Y-105481285D01*
X111941380Y-103957476D02*
X111941380Y-104528904D01*
X111941380Y-104243190D02*
X110941380Y-104243190D01*
X111084238Y-104338428D01*
X111179476Y-104433666D01*
X111227095Y-104528904D01*
X110941380Y-103624142D02*
X110941380Y-103005095D01*
X111322333Y-103338428D01*
X111322333Y-103195571D01*
X111369952Y-103100333D01*
X111417571Y-103052714D01*
X111512809Y-103005095D01*
X111750904Y-103005095D01*
X111846142Y-103052714D01*
X111893761Y-103100333D01*
X111941380Y-103195571D01*
X111941380Y-103481285D01*
X111893761Y-103576523D01*
X111846142Y-103624142D01*
%TO.C,R12*%
X123752380Y-98686857D02*
X123276190Y-99020190D01*
X123752380Y-99258285D02*
X122752380Y-99258285D01*
X122752380Y-98877333D01*
X122800000Y-98782095D01*
X122847619Y-98734476D01*
X122942857Y-98686857D01*
X123085714Y-98686857D01*
X123180952Y-98734476D01*
X123228571Y-98782095D01*
X123276190Y-98877333D01*
X123276190Y-99258285D01*
X123752380Y-97734476D02*
X123752380Y-98305904D01*
X123752380Y-98020190D02*
X122752380Y-98020190D01*
X122895238Y-98115428D01*
X122990476Y-98210666D01*
X123038095Y-98305904D01*
X122847619Y-97353523D02*
X122800000Y-97305904D01*
X122752380Y-97210666D01*
X122752380Y-96972571D01*
X122800000Y-96877333D01*
X122847619Y-96829714D01*
X122942857Y-96782095D01*
X123038095Y-96782095D01*
X123180952Y-96829714D01*
X123752380Y-97401142D01*
X123752380Y-96782095D01*
%TO.C,R11*%
X123752380Y-104909857D02*
X123276190Y-105243190D01*
X123752380Y-105481285D02*
X122752380Y-105481285D01*
X122752380Y-105100333D01*
X122800000Y-105005095D01*
X122847619Y-104957476D01*
X122942857Y-104909857D01*
X123085714Y-104909857D01*
X123180952Y-104957476D01*
X123228571Y-105005095D01*
X123276190Y-105100333D01*
X123276190Y-105481285D01*
X123752380Y-103957476D02*
X123752380Y-104528904D01*
X123752380Y-104243190D02*
X122752380Y-104243190D01*
X122895238Y-104338428D01*
X122990476Y-104433666D01*
X123038095Y-104528904D01*
X123752380Y-103005095D02*
X123752380Y-103576523D01*
X123752380Y-103290809D02*
X122752380Y-103290809D01*
X122895238Y-103386047D01*
X122990476Y-103481285D01*
X123038095Y-103576523D01*
%TO.C,R10*%
X108004380Y-98686857D02*
X107528190Y-99020190D01*
X108004380Y-99258285D02*
X107004380Y-99258285D01*
X107004380Y-98877333D01*
X107052000Y-98782095D01*
X107099619Y-98734476D01*
X107194857Y-98686857D01*
X107337714Y-98686857D01*
X107432952Y-98734476D01*
X107480571Y-98782095D01*
X107528190Y-98877333D01*
X107528190Y-99258285D01*
X108004380Y-97734476D02*
X108004380Y-98305904D01*
X108004380Y-98020190D02*
X107004380Y-98020190D01*
X107147238Y-98115428D01*
X107242476Y-98210666D01*
X107290095Y-98305904D01*
X107004380Y-97115428D02*
X107004380Y-97020190D01*
X107052000Y-96924952D01*
X107099619Y-96877333D01*
X107194857Y-96829714D01*
X107385333Y-96782095D01*
X107623428Y-96782095D01*
X107813904Y-96829714D01*
X107909142Y-96877333D01*
X107956761Y-96924952D01*
X108004380Y-97020190D01*
X108004380Y-97115428D01*
X107956761Y-97210666D01*
X107909142Y-97258285D01*
X107813904Y-97305904D01*
X107623428Y-97353523D01*
X107385333Y-97353523D01*
X107194857Y-97305904D01*
X107099619Y-97258285D01*
X107052000Y-97210666D01*
X107004380Y-97115428D01*
%TO.C,R9*%
X108004380Y-104433666D02*
X107528190Y-104767000D01*
X108004380Y-105005095D02*
X107004380Y-105005095D01*
X107004380Y-104624142D01*
X107052000Y-104528904D01*
X107099619Y-104481285D01*
X107194857Y-104433666D01*
X107337714Y-104433666D01*
X107432952Y-104481285D01*
X107480571Y-104528904D01*
X107528190Y-104624142D01*
X107528190Y-105005095D01*
X108004380Y-103957476D02*
X108004380Y-103767000D01*
X107956761Y-103671761D01*
X107909142Y-103624142D01*
X107766285Y-103528904D01*
X107575809Y-103481285D01*
X107194857Y-103481285D01*
X107099619Y-103528904D01*
X107052000Y-103576523D01*
X107004380Y-103671761D01*
X107004380Y-103862238D01*
X107052000Y-103957476D01*
X107099619Y-104005095D01*
X107194857Y-104052714D01*
X107432952Y-104052714D01*
X107528190Y-104005095D01*
X107575809Y-103957476D01*
X107623428Y-103862238D01*
X107623428Y-103671761D01*
X107575809Y-103576523D01*
X107528190Y-103528904D01*
X107432952Y-103481285D01*
%TO.C,R8*%
X119815380Y-98210666D02*
X119339190Y-98544000D01*
X119815380Y-98782095D02*
X118815380Y-98782095D01*
X118815380Y-98401142D01*
X118863000Y-98305904D01*
X118910619Y-98258285D01*
X119005857Y-98210666D01*
X119148714Y-98210666D01*
X119243952Y-98258285D01*
X119291571Y-98305904D01*
X119339190Y-98401142D01*
X119339190Y-98782095D01*
X119243952Y-97639238D02*
X119196333Y-97734476D01*
X119148714Y-97782095D01*
X119053476Y-97829714D01*
X119005857Y-97829714D01*
X118910619Y-97782095D01*
X118863000Y-97734476D01*
X118815380Y-97639238D01*
X118815380Y-97448761D01*
X118863000Y-97353523D01*
X118910619Y-97305904D01*
X119005857Y-97258285D01*
X119053476Y-97258285D01*
X119148714Y-97305904D01*
X119196333Y-97353523D01*
X119243952Y-97448761D01*
X119243952Y-97639238D01*
X119291571Y-97734476D01*
X119339190Y-97782095D01*
X119434428Y-97829714D01*
X119624904Y-97829714D01*
X119720142Y-97782095D01*
X119767761Y-97734476D01*
X119815380Y-97639238D01*
X119815380Y-97448761D01*
X119767761Y-97353523D01*
X119720142Y-97305904D01*
X119624904Y-97258285D01*
X119434428Y-97258285D01*
X119339190Y-97305904D01*
X119291571Y-97353523D01*
X119243952Y-97448761D01*
%TO.C,R7*%
X119815380Y-104433666D02*
X119339190Y-104767000D01*
X119815380Y-105005095D02*
X118815380Y-105005095D01*
X118815380Y-104624142D01*
X118863000Y-104528904D01*
X118910619Y-104481285D01*
X119005857Y-104433666D01*
X119148714Y-104433666D01*
X119243952Y-104481285D01*
X119291571Y-104528904D01*
X119339190Y-104624142D01*
X119339190Y-105005095D01*
X118815380Y-104100333D02*
X118815380Y-103433666D01*
X119815380Y-103862238D01*
%TO.C,R6*%
X104067380Y-98210666D02*
X103591190Y-98544000D01*
X104067380Y-98782095D02*
X103067380Y-98782095D01*
X103067380Y-98401142D01*
X103115000Y-98305904D01*
X103162619Y-98258285D01*
X103257857Y-98210666D01*
X103400714Y-98210666D01*
X103495952Y-98258285D01*
X103543571Y-98305904D01*
X103591190Y-98401142D01*
X103591190Y-98782095D01*
X103067380Y-97353523D02*
X103067380Y-97544000D01*
X103115000Y-97639238D01*
X103162619Y-97686857D01*
X103305476Y-97782095D01*
X103495952Y-97829714D01*
X103876904Y-97829714D01*
X103972142Y-97782095D01*
X104019761Y-97734476D01*
X104067380Y-97639238D01*
X104067380Y-97448761D01*
X104019761Y-97353523D01*
X103972142Y-97305904D01*
X103876904Y-97258285D01*
X103638809Y-97258285D01*
X103543571Y-97305904D01*
X103495952Y-97353523D01*
X103448333Y-97448761D01*
X103448333Y-97639238D01*
X103495952Y-97734476D01*
X103543571Y-97782095D01*
X103638809Y-97829714D01*
%TO.C,R5*%
X104067380Y-104433666D02*
X103591190Y-104767000D01*
X104067380Y-105005095D02*
X103067380Y-105005095D01*
X103067380Y-104624142D01*
X103115000Y-104528904D01*
X103162619Y-104481285D01*
X103257857Y-104433666D01*
X103400714Y-104433666D01*
X103495952Y-104481285D01*
X103543571Y-104528904D01*
X103591190Y-104624142D01*
X103591190Y-105005095D01*
X103067380Y-103528904D02*
X103067380Y-104005095D01*
X103543571Y-104052714D01*
X103495952Y-104005095D01*
X103448333Y-103909857D01*
X103448333Y-103671761D01*
X103495952Y-103576523D01*
X103543571Y-103528904D01*
X103638809Y-103481285D01*
X103876904Y-103481285D01*
X103972142Y-103528904D01*
X104019761Y-103576523D01*
X104067380Y-103671761D01*
X104067380Y-103909857D01*
X104019761Y-104005095D01*
X103972142Y-104052714D01*
%TO.C,R4*%
X115878380Y-98210666D02*
X115402190Y-98544000D01*
X115878380Y-98782095D02*
X114878380Y-98782095D01*
X114878380Y-98401142D01*
X114926000Y-98305904D01*
X114973619Y-98258285D01*
X115068857Y-98210666D01*
X115211714Y-98210666D01*
X115306952Y-98258285D01*
X115354571Y-98305904D01*
X115402190Y-98401142D01*
X115402190Y-98782095D01*
X115211714Y-97353523D02*
X115878380Y-97353523D01*
X114830761Y-97591619D02*
X115545047Y-97829714D01*
X115545047Y-97210666D01*
%TO.C,R3*%
X115878380Y-104433666D02*
X115402190Y-104767000D01*
X115878380Y-105005095D02*
X114878380Y-105005095D01*
X114878380Y-104624142D01*
X114926000Y-104528904D01*
X114973619Y-104481285D01*
X115068857Y-104433666D01*
X115211714Y-104433666D01*
X115306952Y-104481285D01*
X115354571Y-104528904D01*
X115402190Y-104624142D01*
X115402190Y-105005095D01*
X114878380Y-104100333D02*
X114878380Y-103481285D01*
X115259333Y-103814619D01*
X115259333Y-103671761D01*
X115306952Y-103576523D01*
X115354571Y-103528904D01*
X115449809Y-103481285D01*
X115687904Y-103481285D01*
X115783142Y-103528904D01*
X115830761Y-103576523D01*
X115878380Y-103671761D01*
X115878380Y-103957476D01*
X115830761Y-104052714D01*
X115783142Y-104100333D01*
%TO.C,R2*%
X100130380Y-98210666D02*
X99654190Y-98544000D01*
X100130380Y-98782095D02*
X99130380Y-98782095D01*
X99130380Y-98401142D01*
X99178000Y-98305904D01*
X99225619Y-98258285D01*
X99320857Y-98210666D01*
X99463714Y-98210666D01*
X99558952Y-98258285D01*
X99606571Y-98305904D01*
X99654190Y-98401142D01*
X99654190Y-98782095D01*
X99225619Y-97829714D02*
X99178000Y-97782095D01*
X99130380Y-97686857D01*
X99130380Y-97448761D01*
X99178000Y-97353523D01*
X99225619Y-97305904D01*
X99320857Y-97258285D01*
X99416095Y-97258285D01*
X99558952Y-97305904D01*
X100130380Y-97877333D01*
X100130380Y-97258285D01*
%TO.C,R1*%
X100130380Y-104433666D02*
X99654190Y-104767000D01*
X100130380Y-105005095D02*
X99130380Y-105005095D01*
X99130380Y-104624142D01*
X99178000Y-104528904D01*
X99225619Y-104481285D01*
X99320857Y-104433666D01*
X99463714Y-104433666D01*
X99558952Y-104481285D01*
X99606571Y-104528904D01*
X99654190Y-104624142D01*
X99654190Y-105005095D01*
X100130380Y-103481285D02*
X100130380Y-104052714D01*
X100130380Y-103767000D02*
X99130380Y-103767000D01*
X99273238Y-103862238D01*
X99368476Y-103957476D01*
X99416095Y-104052714D01*
%TO.C,J3*%
X125440380Y-80597333D02*
X126154666Y-80597333D01*
X126297523Y-80644952D01*
X126392761Y-80740190D01*
X126440380Y-80883047D01*
X126440380Y-80978285D01*
X125440380Y-80216380D02*
X125440380Y-79597333D01*
X125821333Y-79930666D01*
X125821333Y-79787809D01*
X125868952Y-79692571D01*
X125916571Y-79644952D01*
X126011809Y-79597333D01*
X126249904Y-79597333D01*
X126345142Y-79644952D01*
X126392761Y-79692571D01*
X126440380Y-79787809D01*
X126440380Y-80073523D01*
X126392761Y-80168761D01*
X126345142Y-80216380D01*
%TO.C,J2*%
X88947666Y-124928380D02*
X88947666Y-125642666D01*
X88900047Y-125785523D01*
X88804809Y-125880761D01*
X88661952Y-125928380D01*
X88566714Y-125928380D01*
X89376238Y-125023619D02*
X89423857Y-124976000D01*
X89519095Y-124928380D01*
X89757190Y-124928380D01*
X89852428Y-124976000D01*
X89900047Y-125023619D01*
X89947666Y-125118857D01*
X89947666Y-125214095D01*
X89900047Y-125356952D01*
X89328619Y-125928380D01*
X89947666Y-125928380D01*
%TO.C,D24*%
X122864714Y-124658380D02*
X122864714Y-123658380D01*
X123102809Y-123658380D01*
X123245666Y-123706000D01*
X123340904Y-123801238D01*
X123388523Y-123896476D01*
X123436142Y-124086952D01*
X123436142Y-124229809D01*
X123388523Y-124420285D01*
X123340904Y-124515523D01*
X123245666Y-124610761D01*
X123102809Y-124658380D01*
X122864714Y-124658380D01*
X123817095Y-123753619D02*
X123864714Y-123706000D01*
X123959952Y-123658380D01*
X124198047Y-123658380D01*
X124293285Y-123706000D01*
X124340904Y-123753619D01*
X124388523Y-123848857D01*
X124388523Y-123944095D01*
X124340904Y-124086952D01*
X123769476Y-124658380D01*
X124388523Y-124658380D01*
X125245666Y-123991714D02*
X125245666Y-124658380D01*
X125007571Y-123610761D02*
X124769476Y-124325047D01*
X125388523Y-124325047D01*
%TO.C,D23*%
X119054714Y-124658380D02*
X119054714Y-123658380D01*
X119292809Y-123658380D01*
X119435666Y-123706000D01*
X119530904Y-123801238D01*
X119578523Y-123896476D01*
X119626142Y-124086952D01*
X119626142Y-124229809D01*
X119578523Y-124420285D01*
X119530904Y-124515523D01*
X119435666Y-124610761D01*
X119292809Y-124658380D01*
X119054714Y-124658380D01*
X120007095Y-123753619D02*
X120054714Y-123706000D01*
X120149952Y-123658380D01*
X120388047Y-123658380D01*
X120483285Y-123706000D01*
X120530904Y-123753619D01*
X120578523Y-123848857D01*
X120578523Y-123944095D01*
X120530904Y-124086952D01*
X119959476Y-124658380D01*
X120578523Y-124658380D01*
X120911857Y-123658380D02*
X121530904Y-123658380D01*
X121197571Y-124039333D01*
X121340428Y-124039333D01*
X121435666Y-124086952D01*
X121483285Y-124134571D01*
X121530904Y-124229809D01*
X121530904Y-124467904D01*
X121483285Y-124563142D01*
X121435666Y-124610761D01*
X121340428Y-124658380D01*
X121054714Y-124658380D01*
X120959476Y-124610761D01*
X120911857Y-124563142D01*
%TO.C,D22*%
X115244714Y-124658380D02*
X115244714Y-123658380D01*
X115482809Y-123658380D01*
X115625666Y-123706000D01*
X115720904Y-123801238D01*
X115768523Y-123896476D01*
X115816142Y-124086952D01*
X115816142Y-124229809D01*
X115768523Y-124420285D01*
X115720904Y-124515523D01*
X115625666Y-124610761D01*
X115482809Y-124658380D01*
X115244714Y-124658380D01*
X116197095Y-123753619D02*
X116244714Y-123706000D01*
X116339952Y-123658380D01*
X116578047Y-123658380D01*
X116673285Y-123706000D01*
X116720904Y-123753619D01*
X116768523Y-123848857D01*
X116768523Y-123944095D01*
X116720904Y-124086952D01*
X116149476Y-124658380D01*
X116768523Y-124658380D01*
X117149476Y-123753619D02*
X117197095Y-123706000D01*
X117292333Y-123658380D01*
X117530428Y-123658380D01*
X117625666Y-123706000D01*
X117673285Y-123753619D01*
X117720904Y-123848857D01*
X117720904Y-123944095D01*
X117673285Y-124086952D01*
X117101857Y-124658380D01*
X117720904Y-124658380D01*
%TO.C,D21*%
X111434714Y-124658380D02*
X111434714Y-123658380D01*
X111672809Y-123658380D01*
X111815666Y-123706000D01*
X111910904Y-123801238D01*
X111958523Y-123896476D01*
X112006142Y-124086952D01*
X112006142Y-124229809D01*
X111958523Y-124420285D01*
X111910904Y-124515523D01*
X111815666Y-124610761D01*
X111672809Y-124658380D01*
X111434714Y-124658380D01*
X112387095Y-123753619D02*
X112434714Y-123706000D01*
X112529952Y-123658380D01*
X112768047Y-123658380D01*
X112863285Y-123706000D01*
X112910904Y-123753619D01*
X112958523Y-123848857D01*
X112958523Y-123944095D01*
X112910904Y-124086952D01*
X112339476Y-124658380D01*
X112958523Y-124658380D01*
X113910904Y-124658380D02*
X113339476Y-124658380D01*
X113625190Y-124658380D02*
X113625190Y-123658380D01*
X113529952Y-123801238D01*
X113434714Y-123896476D01*
X113339476Y-123944095D01*
%TO.C,D20*%
X107624714Y-124658380D02*
X107624714Y-123658380D01*
X107862809Y-123658380D01*
X108005666Y-123706000D01*
X108100904Y-123801238D01*
X108148523Y-123896476D01*
X108196142Y-124086952D01*
X108196142Y-124229809D01*
X108148523Y-124420285D01*
X108100904Y-124515523D01*
X108005666Y-124610761D01*
X107862809Y-124658380D01*
X107624714Y-124658380D01*
X108577095Y-123753619D02*
X108624714Y-123706000D01*
X108719952Y-123658380D01*
X108958047Y-123658380D01*
X109053285Y-123706000D01*
X109100904Y-123753619D01*
X109148523Y-123848857D01*
X109148523Y-123944095D01*
X109100904Y-124086952D01*
X108529476Y-124658380D01*
X109148523Y-124658380D01*
X109767571Y-123658380D02*
X109862809Y-123658380D01*
X109958047Y-123706000D01*
X110005666Y-123753619D01*
X110053285Y-123848857D01*
X110100904Y-124039333D01*
X110100904Y-124277428D01*
X110053285Y-124467904D01*
X110005666Y-124563142D01*
X109958047Y-124610761D01*
X109862809Y-124658380D01*
X109767571Y-124658380D01*
X109672333Y-124610761D01*
X109624714Y-124563142D01*
X109577095Y-124467904D01*
X109529476Y-124277428D01*
X109529476Y-124039333D01*
X109577095Y-123848857D01*
X109624714Y-123753619D01*
X109672333Y-123706000D01*
X109767571Y-123658380D01*
%TO.C,D19*%
X103814714Y-124658380D02*
X103814714Y-123658380D01*
X104052809Y-123658380D01*
X104195666Y-123706000D01*
X104290904Y-123801238D01*
X104338523Y-123896476D01*
X104386142Y-124086952D01*
X104386142Y-124229809D01*
X104338523Y-124420285D01*
X104290904Y-124515523D01*
X104195666Y-124610761D01*
X104052809Y-124658380D01*
X103814714Y-124658380D01*
X105338523Y-124658380D02*
X104767095Y-124658380D01*
X105052809Y-124658380D02*
X105052809Y-123658380D01*
X104957571Y-123801238D01*
X104862333Y-123896476D01*
X104767095Y-123944095D01*
X105814714Y-124658380D02*
X106005190Y-124658380D01*
X106100428Y-124610761D01*
X106148047Y-124563142D01*
X106243285Y-124420285D01*
X106290904Y-124229809D01*
X106290904Y-123848857D01*
X106243285Y-123753619D01*
X106195666Y-123706000D01*
X106100428Y-123658380D01*
X105909952Y-123658380D01*
X105814714Y-123706000D01*
X105767095Y-123753619D01*
X105719476Y-123848857D01*
X105719476Y-124086952D01*
X105767095Y-124182190D01*
X105814714Y-124229809D01*
X105909952Y-124277428D01*
X106100428Y-124277428D01*
X106195666Y-124229809D01*
X106243285Y-124182190D01*
X106290904Y-124086952D01*
%TO.C,D18*%
X99877714Y-124658380D02*
X99877714Y-123658380D01*
X100115809Y-123658380D01*
X100258666Y-123706000D01*
X100353904Y-123801238D01*
X100401523Y-123896476D01*
X100449142Y-124086952D01*
X100449142Y-124229809D01*
X100401523Y-124420285D01*
X100353904Y-124515523D01*
X100258666Y-124610761D01*
X100115809Y-124658380D01*
X99877714Y-124658380D01*
X101401523Y-124658380D02*
X100830095Y-124658380D01*
X101115809Y-124658380D02*
X101115809Y-123658380D01*
X101020571Y-123801238D01*
X100925333Y-123896476D01*
X100830095Y-123944095D01*
X101972952Y-124086952D02*
X101877714Y-124039333D01*
X101830095Y-123991714D01*
X101782476Y-123896476D01*
X101782476Y-123848857D01*
X101830095Y-123753619D01*
X101877714Y-123706000D01*
X101972952Y-123658380D01*
X102163428Y-123658380D01*
X102258666Y-123706000D01*
X102306285Y-123753619D01*
X102353904Y-123848857D01*
X102353904Y-123896476D01*
X102306285Y-123991714D01*
X102258666Y-124039333D01*
X102163428Y-124086952D01*
X101972952Y-124086952D01*
X101877714Y-124134571D01*
X101830095Y-124182190D01*
X101782476Y-124277428D01*
X101782476Y-124467904D01*
X101830095Y-124563142D01*
X101877714Y-124610761D01*
X101972952Y-124658380D01*
X102163428Y-124658380D01*
X102258666Y-124610761D01*
X102306285Y-124563142D01*
X102353904Y-124467904D01*
X102353904Y-124277428D01*
X102306285Y-124182190D01*
X102258666Y-124134571D01*
X102163428Y-124086952D01*
%TO.C,D17*%
X96194714Y-124658380D02*
X96194714Y-123658380D01*
X96432809Y-123658380D01*
X96575666Y-123706000D01*
X96670904Y-123801238D01*
X96718523Y-123896476D01*
X96766142Y-124086952D01*
X96766142Y-124229809D01*
X96718523Y-124420285D01*
X96670904Y-124515523D01*
X96575666Y-124610761D01*
X96432809Y-124658380D01*
X96194714Y-124658380D01*
X97718523Y-124658380D02*
X97147095Y-124658380D01*
X97432809Y-124658380D02*
X97432809Y-123658380D01*
X97337571Y-123801238D01*
X97242333Y-123896476D01*
X97147095Y-123944095D01*
X98051857Y-123658380D02*
X98718523Y-123658380D01*
X98289952Y-124658380D01*
%TO.C,D16*%
X126436380Y-118435285D02*
X125436380Y-118435285D01*
X125436380Y-118197190D01*
X125484000Y-118054333D01*
X125579238Y-117959095D01*
X125674476Y-117911476D01*
X125864952Y-117863857D01*
X126007809Y-117863857D01*
X126198285Y-117911476D01*
X126293523Y-117959095D01*
X126388761Y-118054333D01*
X126436380Y-118197190D01*
X126436380Y-118435285D01*
X126436380Y-116911476D02*
X126436380Y-117482904D01*
X126436380Y-117197190D02*
X125436380Y-117197190D01*
X125579238Y-117292428D01*
X125674476Y-117387666D01*
X125722095Y-117482904D01*
X125436380Y-116054333D02*
X125436380Y-116244809D01*
X125484000Y-116340047D01*
X125531619Y-116387666D01*
X125674476Y-116482904D01*
X125864952Y-116530523D01*
X126245904Y-116530523D01*
X126341142Y-116482904D01*
X126388761Y-116435285D01*
X126436380Y-116340047D01*
X126436380Y-116149571D01*
X126388761Y-116054333D01*
X126341142Y-116006714D01*
X126245904Y-115959095D01*
X126007809Y-115959095D01*
X125912571Y-116006714D01*
X125864952Y-116054333D01*
X125817333Y-116149571D01*
X125817333Y-116340047D01*
X125864952Y-116435285D01*
X125912571Y-116482904D01*
X126007809Y-116530523D01*
%TO.C,D15*%
X122626380Y-118435285D02*
X121626380Y-118435285D01*
X121626380Y-118197190D01*
X121674000Y-118054333D01*
X121769238Y-117959095D01*
X121864476Y-117911476D01*
X122054952Y-117863857D01*
X122197809Y-117863857D01*
X122388285Y-117911476D01*
X122483523Y-117959095D01*
X122578761Y-118054333D01*
X122626380Y-118197190D01*
X122626380Y-118435285D01*
X122626380Y-116911476D02*
X122626380Y-117482904D01*
X122626380Y-117197190D02*
X121626380Y-117197190D01*
X121769238Y-117292428D01*
X121864476Y-117387666D01*
X121912095Y-117482904D01*
X121626380Y-116006714D02*
X121626380Y-116482904D01*
X122102571Y-116530523D01*
X122054952Y-116482904D01*
X122007333Y-116387666D01*
X122007333Y-116149571D01*
X122054952Y-116054333D01*
X122102571Y-116006714D01*
X122197809Y-115959095D01*
X122435904Y-115959095D01*
X122531142Y-116006714D01*
X122578761Y-116054333D01*
X122626380Y-116149571D01*
X122626380Y-116387666D01*
X122578761Y-116482904D01*
X122531142Y-116530523D01*
%TO.C,D14*%
X118816380Y-118435285D02*
X117816380Y-118435285D01*
X117816380Y-118197190D01*
X117864000Y-118054333D01*
X117959238Y-117959095D01*
X118054476Y-117911476D01*
X118244952Y-117863857D01*
X118387809Y-117863857D01*
X118578285Y-117911476D01*
X118673523Y-117959095D01*
X118768761Y-118054333D01*
X118816380Y-118197190D01*
X118816380Y-118435285D01*
X118816380Y-116911476D02*
X118816380Y-117482904D01*
X118816380Y-117197190D02*
X117816380Y-117197190D01*
X117959238Y-117292428D01*
X118054476Y-117387666D01*
X118102095Y-117482904D01*
X118149714Y-116054333D02*
X118816380Y-116054333D01*
X117768761Y-116292428D02*
X118483047Y-116530523D01*
X118483047Y-115911476D01*
%TO.C,D13*%
X115006380Y-118435285D02*
X114006380Y-118435285D01*
X114006380Y-118197190D01*
X114054000Y-118054333D01*
X114149238Y-117959095D01*
X114244476Y-117911476D01*
X114434952Y-117863857D01*
X114577809Y-117863857D01*
X114768285Y-117911476D01*
X114863523Y-117959095D01*
X114958761Y-118054333D01*
X115006380Y-118197190D01*
X115006380Y-118435285D01*
X115006380Y-116911476D02*
X115006380Y-117482904D01*
X115006380Y-117197190D02*
X114006380Y-117197190D01*
X114149238Y-117292428D01*
X114244476Y-117387666D01*
X114292095Y-117482904D01*
X114006380Y-116578142D02*
X114006380Y-115959095D01*
X114387333Y-116292428D01*
X114387333Y-116149571D01*
X114434952Y-116054333D01*
X114482571Y-116006714D01*
X114577809Y-115959095D01*
X114815904Y-115959095D01*
X114911142Y-116006714D01*
X114958761Y-116054333D01*
X115006380Y-116149571D01*
X115006380Y-116435285D01*
X114958761Y-116530523D01*
X114911142Y-116578142D01*
%TO.C,D12*%
X111196380Y-118435285D02*
X110196380Y-118435285D01*
X110196380Y-118197190D01*
X110244000Y-118054333D01*
X110339238Y-117959095D01*
X110434476Y-117911476D01*
X110624952Y-117863857D01*
X110767809Y-117863857D01*
X110958285Y-117911476D01*
X111053523Y-117959095D01*
X111148761Y-118054333D01*
X111196380Y-118197190D01*
X111196380Y-118435285D01*
X111196380Y-116911476D02*
X111196380Y-117482904D01*
X111196380Y-117197190D02*
X110196380Y-117197190D01*
X110339238Y-117292428D01*
X110434476Y-117387666D01*
X110482095Y-117482904D01*
X110291619Y-116530523D02*
X110244000Y-116482904D01*
X110196380Y-116387666D01*
X110196380Y-116149571D01*
X110244000Y-116054333D01*
X110291619Y-116006714D01*
X110386857Y-115959095D01*
X110482095Y-115959095D01*
X110624952Y-116006714D01*
X111196380Y-116578142D01*
X111196380Y-115959095D01*
%TO.C,D11*%
X107386380Y-118435285D02*
X106386380Y-118435285D01*
X106386380Y-118197190D01*
X106434000Y-118054333D01*
X106529238Y-117959095D01*
X106624476Y-117911476D01*
X106814952Y-117863857D01*
X106957809Y-117863857D01*
X107148285Y-117911476D01*
X107243523Y-117959095D01*
X107338761Y-118054333D01*
X107386380Y-118197190D01*
X107386380Y-118435285D01*
X107386380Y-116911476D02*
X107386380Y-117482904D01*
X107386380Y-117197190D02*
X106386380Y-117197190D01*
X106529238Y-117292428D01*
X106624476Y-117387666D01*
X106672095Y-117482904D01*
X107386380Y-115959095D02*
X107386380Y-116530523D01*
X107386380Y-116244809D02*
X106386380Y-116244809D01*
X106529238Y-116340047D01*
X106624476Y-116435285D01*
X106672095Y-116530523D01*
%TO.C,D10*%
X103576380Y-118435285D02*
X102576380Y-118435285D01*
X102576380Y-118197190D01*
X102624000Y-118054333D01*
X102719238Y-117959095D01*
X102814476Y-117911476D01*
X103004952Y-117863857D01*
X103147809Y-117863857D01*
X103338285Y-117911476D01*
X103433523Y-117959095D01*
X103528761Y-118054333D01*
X103576380Y-118197190D01*
X103576380Y-118435285D01*
X103576380Y-116911476D02*
X103576380Y-117482904D01*
X103576380Y-117197190D02*
X102576380Y-117197190D01*
X102719238Y-117292428D01*
X102814476Y-117387666D01*
X102862095Y-117482904D01*
X102576380Y-116292428D02*
X102576380Y-116197190D01*
X102624000Y-116101952D01*
X102671619Y-116054333D01*
X102766857Y-116006714D01*
X102957333Y-115959095D01*
X103195428Y-115959095D01*
X103385904Y-116006714D01*
X103481142Y-116054333D01*
X103528761Y-116101952D01*
X103576380Y-116197190D01*
X103576380Y-116292428D01*
X103528761Y-116387666D01*
X103481142Y-116435285D01*
X103385904Y-116482904D01*
X103195428Y-116530523D01*
X102957333Y-116530523D01*
X102766857Y-116482904D01*
X102671619Y-116435285D01*
X102624000Y-116387666D01*
X102576380Y-116292428D01*
%TO.C,D9*%
X99766380Y-117959095D02*
X98766380Y-117959095D01*
X98766380Y-117721000D01*
X98814000Y-117578142D01*
X98909238Y-117482904D01*
X99004476Y-117435285D01*
X99194952Y-117387666D01*
X99337809Y-117387666D01*
X99528285Y-117435285D01*
X99623523Y-117482904D01*
X99718761Y-117578142D01*
X99766380Y-117721000D01*
X99766380Y-117959095D01*
X99766380Y-116911476D02*
X99766380Y-116721000D01*
X99718761Y-116625761D01*
X99671142Y-116578142D01*
X99528285Y-116482904D01*
X99337809Y-116435285D01*
X98956857Y-116435285D01*
X98861619Y-116482904D01*
X98814000Y-116530523D01*
X98766380Y-116625761D01*
X98766380Y-116816238D01*
X98814000Y-116911476D01*
X98861619Y-116959095D01*
X98956857Y-117006714D01*
X99194952Y-117006714D01*
X99290190Y-116959095D01*
X99337809Y-116911476D01*
X99385428Y-116816238D01*
X99385428Y-116625761D01*
X99337809Y-116530523D01*
X99290190Y-116482904D01*
X99194952Y-116435285D01*
%TO.C,D8*%
X127039380Y-92432095D02*
X126039380Y-92432095D01*
X126039380Y-92194000D01*
X126087000Y-92051142D01*
X126182238Y-91955904D01*
X126277476Y-91908285D01*
X126467952Y-91860666D01*
X126610809Y-91860666D01*
X126801285Y-91908285D01*
X126896523Y-91955904D01*
X126991761Y-92051142D01*
X127039380Y-92194000D01*
X127039380Y-92432095D01*
X126467952Y-91289238D02*
X126420333Y-91384476D01*
X126372714Y-91432095D01*
X126277476Y-91479714D01*
X126229857Y-91479714D01*
X126134619Y-91432095D01*
X126087000Y-91384476D01*
X126039380Y-91289238D01*
X126039380Y-91098761D01*
X126087000Y-91003523D01*
X126134619Y-90955904D01*
X126229857Y-90908285D01*
X126277476Y-90908285D01*
X126372714Y-90955904D01*
X126420333Y-91003523D01*
X126467952Y-91098761D01*
X126467952Y-91289238D01*
X126515571Y-91384476D01*
X126563190Y-91432095D01*
X126658428Y-91479714D01*
X126848904Y-91479714D01*
X126944142Y-91432095D01*
X126991761Y-91384476D01*
X127039380Y-91289238D01*
X127039380Y-91098761D01*
X126991761Y-91003523D01*
X126944142Y-90955904D01*
X126848904Y-90908285D01*
X126658428Y-90908285D01*
X126563190Y-90955904D01*
X126515571Y-91003523D01*
X126467952Y-91098761D01*
%TO.C,D7*%
X123102380Y-92432095D02*
X122102380Y-92432095D01*
X122102380Y-92194000D01*
X122150000Y-92051142D01*
X122245238Y-91955904D01*
X122340476Y-91908285D01*
X122530952Y-91860666D01*
X122673809Y-91860666D01*
X122864285Y-91908285D01*
X122959523Y-91955904D01*
X123054761Y-92051142D01*
X123102380Y-92194000D01*
X123102380Y-92432095D01*
X122102380Y-91527333D02*
X122102380Y-90860666D01*
X123102380Y-91289238D01*
%TO.C,D6*%
X119165380Y-92432095D02*
X118165380Y-92432095D01*
X118165380Y-92194000D01*
X118213000Y-92051142D01*
X118308238Y-91955904D01*
X118403476Y-91908285D01*
X118593952Y-91860666D01*
X118736809Y-91860666D01*
X118927285Y-91908285D01*
X119022523Y-91955904D01*
X119117761Y-92051142D01*
X119165380Y-92194000D01*
X119165380Y-92432095D01*
X118165380Y-91003523D02*
X118165380Y-91194000D01*
X118213000Y-91289238D01*
X118260619Y-91336857D01*
X118403476Y-91432095D01*
X118593952Y-91479714D01*
X118974904Y-91479714D01*
X119070142Y-91432095D01*
X119117761Y-91384476D01*
X119165380Y-91289238D01*
X119165380Y-91098761D01*
X119117761Y-91003523D01*
X119070142Y-90955904D01*
X118974904Y-90908285D01*
X118736809Y-90908285D01*
X118641571Y-90955904D01*
X118593952Y-91003523D01*
X118546333Y-91098761D01*
X118546333Y-91289238D01*
X118593952Y-91384476D01*
X118641571Y-91432095D01*
X118736809Y-91479714D01*
%TO.C,D5*%
X115228380Y-92432095D02*
X114228380Y-92432095D01*
X114228380Y-92194000D01*
X114276000Y-92051142D01*
X114371238Y-91955904D01*
X114466476Y-91908285D01*
X114656952Y-91860666D01*
X114799809Y-91860666D01*
X114990285Y-91908285D01*
X115085523Y-91955904D01*
X115180761Y-92051142D01*
X115228380Y-92194000D01*
X115228380Y-92432095D01*
X114228380Y-90955904D02*
X114228380Y-91432095D01*
X114704571Y-91479714D01*
X114656952Y-91432095D01*
X114609333Y-91336857D01*
X114609333Y-91098761D01*
X114656952Y-91003523D01*
X114704571Y-90955904D01*
X114799809Y-90908285D01*
X115037904Y-90908285D01*
X115133142Y-90955904D01*
X115180761Y-91003523D01*
X115228380Y-91098761D01*
X115228380Y-91336857D01*
X115180761Y-91432095D01*
X115133142Y-91479714D01*
%TO.C,D4*%
X111291380Y-92432095D02*
X110291380Y-92432095D01*
X110291380Y-92194000D01*
X110339000Y-92051142D01*
X110434238Y-91955904D01*
X110529476Y-91908285D01*
X110719952Y-91860666D01*
X110862809Y-91860666D01*
X111053285Y-91908285D01*
X111148523Y-91955904D01*
X111243761Y-92051142D01*
X111291380Y-92194000D01*
X111291380Y-92432095D01*
X110624714Y-91003523D02*
X111291380Y-91003523D01*
X110243761Y-91241619D02*
X110958047Y-91479714D01*
X110958047Y-90860666D01*
%TO.C,D3*%
X107354380Y-92432095D02*
X106354380Y-92432095D01*
X106354380Y-92194000D01*
X106402000Y-92051142D01*
X106497238Y-91955904D01*
X106592476Y-91908285D01*
X106782952Y-91860666D01*
X106925809Y-91860666D01*
X107116285Y-91908285D01*
X107211523Y-91955904D01*
X107306761Y-92051142D01*
X107354380Y-92194000D01*
X107354380Y-92432095D01*
X106354380Y-91527333D02*
X106354380Y-90908285D01*
X106735333Y-91241619D01*
X106735333Y-91098761D01*
X106782952Y-91003523D01*
X106830571Y-90955904D01*
X106925809Y-90908285D01*
X107163904Y-90908285D01*
X107259142Y-90955904D01*
X107306761Y-91003523D01*
X107354380Y-91098761D01*
X107354380Y-91384476D01*
X107306761Y-91479714D01*
X107259142Y-91527333D01*
%TO.C,D2*%
X103417380Y-92432095D02*
X102417380Y-92432095D01*
X102417380Y-92194000D01*
X102465000Y-92051142D01*
X102560238Y-91955904D01*
X102655476Y-91908285D01*
X102845952Y-91860666D01*
X102988809Y-91860666D01*
X103179285Y-91908285D01*
X103274523Y-91955904D01*
X103369761Y-92051142D01*
X103417380Y-92194000D01*
X103417380Y-92432095D01*
X102512619Y-91479714D02*
X102465000Y-91432095D01*
X102417380Y-91336857D01*
X102417380Y-91098761D01*
X102465000Y-91003523D01*
X102512619Y-90955904D01*
X102607857Y-90908285D01*
X102703095Y-90908285D01*
X102845952Y-90955904D01*
X103417380Y-91527333D01*
X103417380Y-90908285D01*
%TO.C,D1*%
X99480380Y-92432095D02*
X98480380Y-92432095D01*
X98480380Y-92194000D01*
X98528000Y-92051142D01*
X98623238Y-91955904D01*
X98718476Y-91908285D01*
X98908952Y-91860666D01*
X99051809Y-91860666D01*
X99242285Y-91908285D01*
X99337523Y-91955904D01*
X99432761Y-92051142D01*
X99480380Y-92194000D01*
X99480380Y-92432095D01*
X99480380Y-90908285D02*
X99480380Y-91479714D01*
X99480380Y-91194000D02*
X98480380Y-91194000D01*
X98623238Y-91289238D01*
X98718476Y-91384476D01*
X98766095Y-91479714D01*
%TO.C,J1*%
X125440380Y-68278333D02*
X126154666Y-68278333D01*
X126297523Y-68325952D01*
X126392761Y-68421190D01*
X126440380Y-68564047D01*
X126440380Y-68659285D01*
X126440380Y-67278333D02*
X126440380Y-67849761D01*
X126440380Y-67564047D02*
X125440380Y-67564047D01*
X125583238Y-67659285D01*
X125678476Y-67754523D01*
X125726095Y-67849761D01*
%TD*%
M02*
